<?xml version="1.0" encoding="utf-8"?>
<!-- Generator: Adobe Illustrator 19.1.0, SVG Export Plug-In . SVG Version: 6.00 Build 0)  -->
<svg version="1.1" id="Layer_1" xmlns="http://www.w3.org/2000/svg" xmlns:xlink="http://www.w3.org/1999/xlink" x="0px" y="0px"
	 viewBox="0 0 220.4 199.4" style="enable-background:new 0 0 220.4 199.4;" xml:space="preserve">
<style type="text/css">
	.st0{fill:#C88896;}
	.st1{fill:#81CBE8;}
	.st2{fill:#251549;}
	.st3{fill:none;stroke:#251549;stroke-width:5;stroke-linecap:round;stroke-linejoin:round;stroke-miterlimit:10;}
</style>
<g>
	<g>
		<polygon class="st0" points="5,125.8 35,111.8 35.9,155.2 5.9,169.2 		"/>
	</g>
	<g>
		<path class="st1" d="M35,111.8c3.1,0.3,10.2,0.4,18.2-3.3l-30,14c-8,3.7-15.1,3.6-18.2,3.3C14,121.6,25.2,113.4,35,111.8z"/>
	</g>
	<g>
		<path class="st0" d="M2.6,122.1l30-14c0.2-0.1,0.5-0.1,0.8-0.1c2.6,0.4,8.2,0.9,15-1.5c1.1-0.4,2.2-0.8,3.3-1.3l-30,14
			c-1.1,0.5-2.2,1-3.3,1.3c-6.8,2.4-12.4,1.9-15,1.5C3.1,121.9,2.8,121.9,2.6,122.1z"/>
	</g>
	<g>
		<path class="st0" d="M87.8,24.4l30-14c-3.8,1.8-7.4,4.1-10.7,6.8C96.5,26,88.3,39.6,84.8,57.3c-2.8,14.2-7,24.8-11.9,32.6
			c-4.8,7.9-10.3,13-15.5,16.3c-1.4,0.9-2.8,1.6-4.1,2.3l-30,14c1.4-0.6,2.7-1.4,4.1-2.3c5.3-3.3,10.7-8.4,15.5-16.3
			c4.8-7.9,9-18.4,11.9-32.6C58.3,53.6,66.4,40,77,31.2C80.4,28.4,84,26.1,87.8,24.4z"/>
	</g>
	<g>
		<polygon class="st0" points="5.9,169.2 35.9,155.2 215.5,180.4 185.5,194.4 		"/>
	</g>
	<g>
		<path class="st0" d="M217.9,184.1l-30,14c0.5-0.2,0.8-0.8,0.8-1.5l30-14C218.8,183.4,218.4,183.9,217.9,184.1z"/>
	</g>
	<g>
		<path class="st1" d="M117.8,10.4c8.1-3.8,17.1-5.2,26.2-3.9l-30,14c-9.1-1.3-18.1,0.1-26.2,3.9C96.8,20.2,108.8,14.6,117.8,10.4z"
			/>
	</g>
	<g>
		<polygon class="st1" points="184.9,151 214.9,137 215.5,180.4 185.5,194.4 		"/>
	</g>
	<g>
		<path class="st1" d="M187.8,125.3c7.8,5.9,17.1,10.1,27.1,11.8l-30,14c-9.9-1.7-19.2-5.9-27.1-11.8c-8.3-6.2-15-14.4-19.1-23.5
			c-2.7-6.1-4.3-12.6-4.5-19.2C134,86.8,137,78,142.3,71c1-0.5,2.4-1.1,3.4-1.6c1.1-0.5,2.5-1.2,3.6-1.7c1.1-0.5,2.6-1.2,3.8-1.8
			c1.2-0.5,2.7-1.3,3.8-1.8c1.2-0.5,2.7-1.3,3.8-1.8c1.1-0.5,2.6-1.2,3.8-1.8c1.1-0.5,2.5-1.2,3.6-1.7c1-0.5,2.4-1.1,3.4-1.6
			c0,0,0,0,0.1,0c0,0,0.1,0,0.1,0c0,0,0.1,0,0.1,0c0,0,0.1,0,0.1,0c0,0,0.1,0,0.1,0c0,0,0.1,0,0.1,0c0,0,0.1,0,0.1,0c0,0,0,0,0.1,0
			c-5.3,6.9-8.3,15.8-8.1,25.6c0.1,6.6,1.7,13.1,4.5,19.2C172.8,110.9,179.5,119,187.8,125.3z"/>
	</g>
	<g>
		<polygon class="st0" points="187.2,149.3 217.2,135.3 217.9,182.3 187.9,196.3 		"/>
	</g>
	<g>
		<path class="st0" d="M187.6,148.4l30-14c0.3,0.4,0.5,0.9,0.5,1.4l-30,14C188.1,149.2,187.9,148.8,187.6,148.4z"/>
	</g>
	<g>
		<path class="st1" d="M172.3,57c0,0-0.1,0-0.1,0c-0.1,0-0.1,0.1-0.2,0.1c-0.1,0-0.2,0.1-0.3,0.1c-9.8,4.6-19.6,9.1-29.4,13.7
			c0,0,0.1-0.1,0.1-0.1c3.8-5,8.8-9,14.7-11.7l30-14c-5.9,2.7-10.9,6.8-14.7,11.7C172.4,56.9,172.3,57,172.3,57z"/>
	</g>
	<g>
		<path class="st0" d="M158.7,62.6l30-14c-5.5,2.6-10.2,6.3-13.7,11c-4.9,6.5-7.7,14.6-7.5,23.5c0.1,6,1.6,11.9,4.1,17.5
			c2.5,5.6,6.1,10.8,10.5,15.4c8.8,9.2,21,15.9,34.3,17.8c0.4,0.1,0.8,0.3,1.2,0.7l-30,14c-0.3-0.4-0.7-0.6-1.2-0.7
			c-13.3-1.9-25.5-8.6-34.3-17.8c-4.4-4.6-8-9.8-10.5-15.4c-2.5-5.6-4-11.5-4.1-17.5c-0.2-9,2.6-17.1,7.5-23.5
			C148.5,68.9,153.2,65.1,158.7,62.6z"/>
	</g>
	<g>
		<path class="st0" d="M157.1,59.2l30-14c1.7-0.8,3.5-1.5,5.3-2l-30,14C160.5,57.7,158.8,58.4,157.1,59.2z"/>
	</g>
	<g>
		<path class="st1" d="M114,20.5l30-14c8.7,1.2,17.5,4.9,26,11.2c8,6,15.6,14.4,22.4,25.4l-30,14c-6.8-11.1-14.4-19.5-22.4-25.4
			C131.5,25.3,122.7,21.7,114,20.5z"/>
	</g>
	<g>
		<path class="st0" d="M86.2,21l30-14c8.6-4,18-5.5,27.7-4.1c9.2,1.3,18.6,5.2,27.6,11.9c8.9,6.7,17.4,16.2,24.7,28.8
			c0.3,0.5,0.4,1.1,0.2,1.6c-0.1,0.4-0.4,0.8-0.7,0.9l-30,14c0.4-0.2,0.6-0.5,0.7-0.9c0.1-0.5,0.1-1.1-0.2-1.6
			c-7.3-12.5-15.8-22-24.7-28.8c-8.9-6.7-18.3-10.6-27.6-11.9C104.2,15.5,94.8,17,86.2,21z"/>
	</g>
	<g>
		<path class="st0" d="M187.6,148.4c0.3,0.4,0.5,0.9,0.5,1.4l0.7,46.9c0,1-0.7,1.7-1.6,1.6L4.4,172.6c-0.4-0.1-0.8-0.3-1.2-0.7
			c-0.3-0.4-0.5-0.9-0.5-1.3l-1-47c0-0.5,0.2-1,0.5-1.3c0.3-0.3,0.7-0.4,1.1-0.3c2.6,0.4,8.2,0.9,15-1.5c6.8-2.4,14.9-7.6,21.8-18.8
			c4.6-7.5,8.7-17.7,11.4-31.6c3.7-18.4,12.2-32.7,23.3-41.9c11.1-9.2,24.8-13.3,39-11.3c9.2,1.3,18.6,5.2,27.6,11.9
			c8.9,6.7,17.4,16.2,24.7,28.8c0.3,0.5,0.4,1.1,0.2,1.6c-0.1,0.5-0.5,0.9-1,1c-8.5,2.2-15.6,7-20.5,13.4
			c-4.9,6.5-7.7,14.6-7.5,23.5c0.1,6,1.6,11.9,4.1,17.5c2.5,5.6,6.1,10.8,10.5,15.4c8.8,9.2,21,15.9,34.3,17.8
			C186.8,147.7,187.3,148,187.6,148.4z M185.5,194.4l-0.6-43.4c-9.9-1.7-19.2-5.9-27.1-11.8c-8.3-6.2-15-14.4-19.1-23.5
			c-2.7-6.1-4.3-12.6-4.5-19.2c-0.2-9.9,2.8-18.7,8.1-25.7c4.9-6.4,11.8-11.3,20-13.8c-6.8-11.1-14.4-19.5-22.4-25.4
			c-8.4-6.3-17.3-10-26-11.2c-13.4-1.9-26.4,2-37,10.7C66.4,40,58.3,53.6,54.8,71.3c-2.8,14.2-7,24.8-11.9,32.6
			c-4.8,7.9-10.3,13-15.5,16.3c-9.7,6-18.7,5.9-22.4,5.6l0.9,43.4L185.5,194.4"/>
	</g>
	<g>
		<g>
			<path class="st1" d="M185.5,196.9c-0.1,0-0.2,0-0.3,0L5.6,171.6c-1.2-0.2-2.1-1.2-2.2-2.4l-0.9-43.4c0-0.7,0.3-1.4,0.8-1.9
				c0.5-0.4,1.1-0.7,1.7-0.7c0.1,0,0.2,0,0.3,0c0.9,0.1,1.8,0.1,2.7,0.1c4.4,0,11-0.9,18.1-5.3c5.6-3.5,10.6-8.7,14.7-15.5
				c5.1-8.3,9-19,11.5-31.8c3.5-17.6,11.5-31.9,23.1-41.6c9.3-7.7,20.4-11.8,32-11.8c2.3,0,4.6,0.2,6.9,0.5
				c9.4,1.3,18.6,5.3,27.1,11.7c8.6,6.4,16.3,15.2,23,26.1c0.4,0.7,0.5,1.5,0.2,2.2s-0.9,1.3-1.6,1.5c-7.6,2.3-14.1,6.8-18.7,12.9
				c-5.2,6.8-7.8,15.1-7.6,24.1c0.1,6.1,1.6,12.3,4.3,18.2c3.9,8.7,10.2,16.4,18.3,22.5c7.8,5.8,16.7,9.8,26,11.3
				c1.2,0.2,2.1,1.2,2.1,2.4l0.6,43.4c0,0.7-0.3,1.4-0.8,1.9C186.7,196.7,186.1,196.9,185.5,196.9z"/>
			<path class="st2" d="M107.4,20c2.2,0,4.4,0.2,6.6,0.5c8.7,1.2,17.5,4.9,26,11.2c8,6,15.6,14.4,22.4,25.4c-8.2,2.5-15,7.3-20,13.8
				c-5.3,7-8.3,15.8-8.1,25.7c0.1,6.6,1.7,13.1,4.5,19.2c4.1,9.1,10.8,17.2,19.1,23.5c7.8,5.9,17.1,10.1,27.1,11.8l0.6,43.4
				L5.9,169.2L5,125.8c0.8,0.1,1.8,0.1,3,0.1c4.5,0,11.8-0.9,19.4-5.7c5.3-3.3,10.7-8.4,15.5-16.3c4.8-7.9,9-18.4,11.9-32.6
				C58.3,53.6,66.4,40,77,31.2C85.9,23.9,96.4,20,107.4,20 M107.4,15L107.4,15c-12.2,0-23.8,4.3-33.6,12.3c-12.1,10-20.3,24.8-24,43
				c-2.5,12.5-6.3,22.9-11.2,31c-3.9,6.4-8.6,11.3-13.9,14.7c-6.5,4.1-12.7,4.9-16.7,4.9c-0.9,0-1.7,0-2.5-0.1c-0.2,0-0.3,0-0.5,0
				c-1.3,0-2.5,0.5-3.4,1.3c-1.1,1-1.6,2.3-1.6,3.8l0.9,43.4c0.1,2.5,1.9,4.5,4.3,4.8l179.6,25.2c0.2,0,0.5,0,0.7,0
				c1.2,0,2.4-0.4,3.3-1.3c1.1-1,1.7-2.4,1.7-3.8l-0.6-43.4c0-2.4-1.8-4.5-4.2-4.9c-8.8-1.5-17.5-5.3-24.9-10.9
				c-7.7-5.8-13.8-13.3-17.5-21.5c-2.6-5.7-3.9-11.5-4-17.2c-0.2-8.4,2.3-16.2,7.1-22.5c4.3-5.7,10.4-9.9,17.5-12
				c1.5-0.5,2.7-1.6,3.2-3c0.5-1.4,0.4-3.1-0.4-4.4c-6.9-11.2-14.8-20.2-23.6-26.8c-8.9-6.7-18.4-10.8-28.3-12.2
				C112.3,15.2,109.8,15,107.4,15L107.4,15z"/>
		</g>
	</g>
	<g>
		<polygon class="st3" points="187.2,149.3 217.2,135.3 217.9,182.3 187.9,196.3 		"/>
	</g>
	<path class="st3" d="M190.2,46.7c-5.5,2.6-13.3,8.4-16.9,13c-4.9,6.5-7.7,14.6-7.5,23.5c0.1,6,1.6,11.9,4.1,17.5
		c2.5,5.6,6.1,10.8,10.5,15.4c8.8,9.2,21,15.9,34.3,17.8c0.4,0.1,0.8,0.3,1.2,0.7l-30,14"/>
	<path class="st3" d="M162.8,59.6l30.8-14.5c0.3-0.2,0.6-0.5,0.7-0.9c0.1-0.5,0.1-1.1-0.2-1.6c-7.2-12.2-15.4-21.5-24.1-28.1
		C161.3,8,152.1,4.2,143.1,3c-9.4-1.3-18.7,0.1-27.1,4L84,23.4"/>
	<line class="st3" x1="3" y1="123.4" x2="40.2" y2="101.6"/>
</g>
</svg>
