<?xml version="1.0" encoding="utf-8"?>
<!-- Generator: Adobe Illustrator 19.1.0, SVG Export Plug-In . SVG Version: 6.00 Build 0)  -->
<svg version="1.1" id="Layer_1" xmlns="http://www.w3.org/2000/svg" xmlns:xlink="http://www.w3.org/1999/xlink" x="0px" y="0px"
	 viewBox="0 0 47.1 45.8" style="enable-background:new 0 0 47.1 45.8;" xml:space="preserve">
<style type="text/css">
	.st0{fill:#C88896;}
	.st1{fill:#DEC535;}
	.st2{fill:#DFC634;}
	.st3{fill:#251549;}
	.st4{fill:none;stroke:#251549;stroke-width:3;stroke-linecap:round;stroke-linejoin:round;stroke-miterlimit:10;}
</style>
<g>
	<g>
		<path class="st0" d="M1.9,7.7l15.6-6.2c0.1,0,0.2-0.1,0.3,0L2.3,7.6C2.2,7.6,2,7.6,1.9,7.7z"/>
	</g>
	<g>
		<polygon class="st0" points="3,9.4 18.6,3.1 18.7,32.9 3.1,39.1 		"/>
	</g>
	<g>
		<polygon class="st1" points="29.3,13.1 44.8,6.8 44.9,36.6 29.4,42.8 		"/>
	</g>
	<g>
		<polygon class="st0" points="3.1,39.1 18.7,32.9 44.9,36.6 29.4,42.8 		"/>
	</g>
	<g>
		<path class="st0" d="M46,38.3l-15.6,6.2c0.1,0,0.1-0.1,0.2-0.1c0.1-0.1,0.2-0.3,0.2-0.6l15.6-6.2c0,0.2-0.1,0.4-0.2,0.6
			C46.1,38.2,46.1,38.3,46,38.3z"/>
	</g>
	<g>
		<polygon class="st1" points="3,9.4 18.6,3.1 44.8,6.8 29.3,13.1 		"/>
	</g>
	<g>
		<polygon class="st0" points="2.3,7.6 18.4,2 45.6,5.3 30,11.5 		"/>
	</g>
	<g>
		<polygon class="st0" points="30.7,12.4 46.3,6.2 46.4,37.6 30.8,43.9 		"/>
	</g>
	<g>
		<path class="st0" d="M30,11.5l15.6-6.2c0.2,0,0.4,0.1,0.5,0.3l-15.6,6.2C30.4,11.7,30.2,11.5,30,11.5z"/>
	</g>
	<g>
		<path class="st0" d="M30.5,11.8l15.6-6.2c0.1,0.2,0.2,0.4,0.2,0.6l-15.6,6.2C30.7,12.2,30.7,12,30.5,11.8z"/>
	</g>
	<g>
		<path class="st0" d="M30.5,11.8c0.1,0.2,0.2,0.4,0.2,0.6l0.1,31.4c0,0.2-0.1,0.4-0.2,0.6c-0.1,0.1-0.3,0.2-0.5,0.2L2.4,40.7
			c-0.2,0-0.4-0.1-0.5-0.3c-0.1-0.2-0.2-0.4-0.2-0.6L1.5,8.3c0-0.2,0.1-0.4,0.2-0.6c0.1-0.1,0.3-0.2,0.5-0.2L30,11.5
			C30.2,11.5,30.4,11.7,30.5,11.8z M29.4,42.8l-0.1-29.8L3,9.4l0.1,29.8L29.4,42.8"/>
	</g>
	<g>
		<g>
			<path class="st2" d="M29.4,44.3c-0.1,0-0.1,0-0.2,0L2.9,40.6c-0.7-0.1-1.3-0.7-1.3-1.5L1.5,9.4c0-0.4,0.2-0.8,0.5-1.1
				C2.3,8,2.6,7.9,3,7.9c0.1,0,0.1,0,0.2,0l26.3,3.7c0.7,0.1,1.3,0.7,1.3,1.5l0.1,29.8c0,0.4-0.2,0.8-0.5,1.1
				C30.1,44.2,29.7,44.3,29.4,44.3z"/>
			<path class="st3" d="M3,9.4l26.3,3.7l0.1,29.8L3.1,39.1L3,9.4 M3,6.4c-0.7,0-1.4,0.3-2,0.7C0.4,7.7,0,8.5,0,9.4l0.1,29.8
				c0,1.5,1.1,2.8,2.6,3l26.3,3.7c0.1,0,0.3,0,0.4,0c0.7,0,1.4-0.3,2-0.7c0.7-0.6,1-1.4,1-2.3l-0.1-29.8c0-1.5-1.1-2.8-2.6-3
				L3.4,6.4C3.3,6.4,3.1,6.4,3,6.4L3,6.4z"/>
		</g>
	</g>
	<polyline class="st4" points="2.4,8.1 19.2,1.5 45.6,5.3 45.3,37.8 30,44 	"/>
	<line class="st4" x1="30.1" y1="12.2" x2="44.2" y2="6.6"/>
</g>
</svg>
