<?xml version="1.0" encoding="utf-8"?>
<!-- Generator: Adobe Illustrator 19.1.0, SVG Export Plug-In . SVG Version: 6.00 Build 0)  -->
<svg version="1.1" id="Layer_1" xmlns="http://www.w3.org/2000/svg" xmlns:xlink="http://www.w3.org/1999/xlink" x="0px" y="0px"
	 viewBox="-411.8 183 273.7 430.1" style="enable-background:new -411.8 183 273.7 430.1;" xml:space="preserve">
<style type="text/css">
	.st0{fill:#C88896;}
	.st1{fill:#DEC535;}
	.st2{fill:#EED039;}
	.st3{fill:#251549;}
	.st4{fill:none;stroke:#251549;stroke-width:4.75;stroke-linecap:round;stroke-linejoin:round;stroke-miterlimit:10;}
	.st5{fill:none;stroke:#211648;stroke-width:4.75;stroke-miterlimit:10;}
	.st6{fill:#FFFFFF;stroke:#251549;stroke-width:5;stroke-linecap:round;stroke-linejoin:round;stroke-miterlimit:10;}
</style>
<g>
	<g>
		<path class="st0" d="M-376.1,537.1l25.2-10.1c-1.8,0.7-3.6,1.6-5.3,2.5c-7.6,4.1-14.4,10.2-19.2,19.2c-2.9,5.4-5.1,12-6.4,19.8
			l-25.2,10.1c1.3-7.8,3.5-14.3,6.4-19.8c4.8-9,11.5-15.1,19.2-19.2C-379.7,538.6-377.9,537.8-376.1,537.1z"/>
	</g>
	<g>
		<path class="st1" d="M-376.1,537.1l25.2-10.1c6.2-2.5,12.7-3.9,19.1-4.5c6.9-0.7,13.3-1.2,18-1.5c2.3-0.1,4.3-0.2,5.6-0.3
			c0.7,0,1.2-0.1,1.5-0.1l-25.2,10.1c-0.3,0-0.9,0-1.5,0.1c-1.3,0.1-3.2,0.2-5.6,0.3c-4.7,0.3-11.1,0.7-18,1.5
			C-363.4,533.2-369.9,534.6-376.1,537.1z"/>
	</g>
	<g>
		<path class="st0" d="M-377.7,533l25.2-10.1c6.5-2.6,13.3-4,19.9-4.7c10.9-1.1,20.6-1.6,24.3-1.8l-25.2,10.1
			c-3.7,0.2-13.4,0.7-24.3,1.8C-364.4,528.9-371.2,530.4-377.7,533z"/>
	</g>
	<g>
		<path class="st1" d="M-305.6,520.5l-25.2,10.1c-0.2,0.1-0.3,0.1-0.5,0.1c0,0-0.2,0-0.5,0l25.2-10.1c0.4,0,0.5,0,0.5,0
			C-305.9,520.6-305.7,520.6-305.6,520.5z"/>
	</g>
	<g>
		<path class="st0" d="M-305.6,520.5l-25.2,10.1c0.6-0.3,1.1-0.9,1.1-1.8l25.2-10.1C-304.5,519.6-304.9,520.2-305.6,520.5z"/>
	</g>
	<g>
		<path class="st0" d="M-308.3,503.4c1.2,1.3,2.5,2.5,3.8,3.7l-25.2,10.1c-1.3-1.2-2.6-2.4-3.8-3.7
			C-325.9,510.5-315.9,506.5-308.3,503.4z"/>
	</g>
	<g>
		<polygon class="st0" points="-329.7,517.2 -304.5,507.1 -304.5,518.7 -329.7,528.8 		"/>
	</g>
	<g>
		<polygon class="st0" points="-343.5,432.6 -318.3,422.5 -318.2,470.8 -343.4,480.9 		"/>
	</g>
	<g>
		<path class="st1" d="M-304.5,507.1c7.6,6.8,17.1,11.5,27.5,13c-8.4,3.4-16.8,6.7-25.2,10.1c-10.3-1.4-19.8-6.2-27.5-13
			C-322.1,514.2-312.1,510.2-304.5,507.1z"/>
	</g>
	<g>
		<path class="st1" d="M-277.1,520.1c7.9,1.1,15.3,0.2,21.7-2.4l-25.2,10.1c-6.4,2.6-13.8,3.5-21.7,2.4c0.9-0.4,2.1-0.8,2.9-1.2
			c0.9-0.4,2.2-0.9,3.1-1.2c1-0.4,2.3-0.9,3.2-1.3c1-0.4,2.3-0.9,3.3-1.3c1-0.4,2.3-0.9,3.3-1.3c0.5-0.2,1.1-0.5,1.6-0.7
			c1-0.4,2.2-0.9,3.2-1.3c0.9-0.4,2.1-0.9,3-1.2C-278.1,520.5-277.5,520.2-277.1,520.1z"/>
	</g>
	<g>
		<path class="st0" d="M-257,513.6l-25.2,10.1c-5.9,2.4-12.8,3.2-20.1,2.2c-11.4-1.6-21.7-7.5-29.1-15.7c-7.4-8.2-11.9-18.6-12-29.4
			l25.2-10.1c0,10.8,4.5,21.2,12,29.4c7.4,8.2,17.7,14.1,29.1,15.7C-269.8,516.9-262.9,516-257,513.6z"/>
	</g>
	<g>
		<polygon class="st1" points="-261.5,444.1 -236.3,434 -236.2,482.3 -261.4,492.4 		"/>
	</g>
	<g>
		<path class="st0" d="M-257,513.6l-25.2,10.1c3.3-1.3,6.3-3.1,9-5.3c7.4-6.1,11.8-15.3,11.8-26l25.2-10.1c0,10.8-4.4,19.9-11.8,26
			C-250.7,510.5-253.7,512.3-257,513.6z"/>
	</g>
	<g>
		<polygon class="st1" points="-274.8,524.9 -249.7,514.9 -249.6,526.4 -274.8,536.5 		"/>
	</g>
	<g>
		<path class="st0" d="M-322.7,401.2l25.2-10.1c-3.3,1.3-6.3,3.1-9,5.3c-7.4,6.1-11.8,15.3-11.8,26l-25.2,10.1
			c0-10.8,4.4-19.9,11.8-26C-329,404.4-326,402.6-322.7,401.2z"/>
	</g>
	<g>
		<path class="st1" d="M-297.5,391.2c5.9-2.4,12.8-3.2,20.1-2.2l-25.2,10.1c-7.3-1-14.2-0.2-20.1,2.2
			C-315.1,398.2-305.1,394.2-297.5,391.2z"/>
	</g>
	<g>
		<path class="st1" d="M-277.4,388.9c11.4,1.6,21.7,7.5,29.1,15.7c-8.4,3.4-16.8,6.7-25.2,10.1c-7.4-8.2-17.7-14.1-29.1-15.7
			C-295.1,396-285.5,389.9-277.4,388.9z"/>
	</g>
	<g>
		<path class="st1" d="M-274.8,536.5l25.2-10.1c0,1.1,0.7,2,1.6,2.3c0,0,0.2,0.1,0.5,0.2c2.5,0.8,13.1,4.3,25.2,8.9
			c11.1,4.3,22.6,10.8,31.9,20.7c4.6,5,8.7,10.8,12,17.7c2.9,6.3,5.2,13.4,6.5,21.6l-25.2,10.1c-1.3-8.2-3.6-15.3-6.5-21.6
			c-3.2-6.9-7.3-12.7-12-17.7c-9.3-10-20.8-16.5-31.9-20.7c-12.1-4.6-22.7-8.1-25.2-8.9c-0.3-0.1-0.5-0.2-0.5-0.2
			C-274.1,538.6-274.8,537.6-274.8,536.5z"/>
	</g>
	<g>
		<polygon class="st1" points="-261.5,444.1 -236.3,434 -234.4,434.3 -259.6,444.4 		"/>
	</g>
	<g>
		<polygon class="st0" points="-261.5,444.1 -236.3,434 -234.4,434.3 -259.6,444.4 		"/>
	</g>
	<g>
		<polygon class="st0" points="-259.6,444.4 -234.4,434.3 -232.5,434.5 -257.7,444.6 		"/>
	</g>
	<g>
		<path class="st1" d="M-248.3,404.6c7.4,8.2,11.9,18.6,12,29.4l-25.2,10.1c0-10.8-4.5-21.2-12-29.4c0.9-0.4,2.1-0.8,2.9-1.2
			c0.9-0.4,2.2-0.9,3.1-1.2c2.2-0.9,4.4-1.7,6.5-2.6c1-0.4,2.3-0.9,3.3-1.3c1-0.4,2.3-0.9,3.2-1.3c0.9-0.4,2.2-0.9,3.1-1.2
			C-250.4,405.5-249.2,405-248.3,404.6z"/>
	</g>
	<g>
		<path class="st0" d="M-271.1,522.3l0,12.9c3.7,1.2,13.4,4.5,24.3,8.6c8.6,3.3,17.6,8,25.7,14.6c8.1,6.6,15.4,15.2,20.7,26.3
			c3.5,7.4,6,15.9,7.3,25.6c0.1,0.6-0.1,1.2-0.4,1.7c-0.4,0.4-0.9,0.6-1.4,0.5l-107.2-15.1l-107.2-15.1c-0.5-0.1-1.1-0.4-1.4-0.9
			c-0.4-0.5-0.5-1.2-0.4-1.8c1.2-9.4,3.8-17.2,7.2-23.6c3.4-6.4,7.8-11.5,12.8-15.4c9.9-7.9,21.9-11.3,33.4-12.4
			c10.9-1.1,20.6-1.6,24.3-1.8l0-12.9c1.2,1.3,2.5,2.5,3.8,3.7l0,11.6c0,1.1-0.7,1.9-1.6,1.9c0,0-0.2,0-0.5,0c-0.3,0-0.9,0-1.5,0.1
			c-1.3,0.1-3.2,0.2-5.6,0.3c-4.7,0.3-11.1,0.7-18,1.5c-8.3,0.9-16.9,2.9-24.5,7c-7.6,4.1-14.4,10.2-19.2,19.2
			c-2.9,5.4-5.1,12-6.4,19.8l104.9,14.7l104.9,14.7c-1.3-8.2-3.6-15.3-6.5-21.6c-3.2-6.9-7.3-12.7-12-17.7
			c-9.3-10-20.8-16.5-31.9-20.7c-12.1-4.6-22.7-8.1-25.2-8.9c-0.3-0.1-0.5-0.2-0.5-0.2c-0.9-0.3-1.6-1.3-1.6-2.3l0-11.6
			C-273.5,524.1-272.3,523.2-271.1,522.3z"/>
	</g>
	<g>
		<path class="st0" d="M-302.6,394.7c12.3,1.7,23.4,8.1,31.6,17.1c8.1,9,13.3,20.7,13.3,32.8l-1.9-0.3l-1.9-0.3
			c0-10.8-4.5-21.2-12-29.4c-7.4-8.2-17.7-14.1-29.1-15.7c-11.4-1.6-21.7,1.4-29.1,7.5c-7.4,6.1-11.8,15.3-11.8,26l0.1,48.3
			c0,10.8,4.5,21.2,12,29.4c7.4,8.2,17.7,14.1,29.1,15.7c11.4,1.6,21.7-1.4,29.1-7.5c7.4-6.1,11.8-15.3,11.8-26l-0.1-48.3l1.9,0.3
			l1.9,0.3l0.1,48.3c0,12.1-5,22.4-13.1,29.1c-0.1,0.1-0.2,0.2-0.3,0.3c-1.2,1-2.4,1.9-3.8,2.7c-7.6,4.7-17.1,6.7-27.4,5.3
			c-10.3-1.4-19.8-6.2-27.5-13c-1.3-1.2-2.6-2.4-3.8-3.7c-0.1-0.1-0.2-0.3-0.3-0.4c-8.1-9-13.3-20.7-13.3-32.8l-0.1-48.3
			c0-12.1,5-22.4,13.1-29.1C-326,396.3-314.9,393-302.6,394.7z"/>
	</g>
	<g>
		<g>
			<polygon class="st0" points="-257.7,444.6 -232.5,434.5 -232.4,482.8 -257.6,492.9 			"/>
		</g>
		<g>
			<path class="st0" d="M-255.4,517.7l-25.2,10.1c2-0.8,3.9-1.8,5.7-2.9c1.3-0.8,2.6-1.7,3.8-2.7c0.1-0.1,0.2-0.2,0.3-0.3
				c8.1-6.7,13.2-16.9,13.1-29.1l25.2-10.1c0,12.1-5,22.4-13.1,29.1c-0.1,0.1-0.2,0.2-0.3,0.3c-1.2,1-2.4,1.9-3.8,2.7
				C-251.5,516-253.4,516.9-255.4,517.7z"/>
		</g>
		<g>
			<polygon class="st0" points="-271.1,522.3 -245.9,512.2 -245.9,525.1 -271,535.2 			"/>
		</g>
		<g>
			<path class="st0" d="M-324.3,397.1l25.2-10.1c6.4-2.6,13.8-3.5,21.7-2.4l-25.2,10.1C-310.5,393.6-317.9,394.6-324.3,397.1z"/>
		</g>
		<g>
			<path class="st0" d="M-168.9,602.4l-25.2,10.1c0.2-0.1,0.4-0.2,0.6-0.5c0.4-0.4,0.5-1,0.4-1.7c-1.3-9.7-3.9-18.2-7.3-25.6
				c-5.2-11.1-12.5-19.7-20.7-26.3c-8.1-6.6-17.1-11.3-25.7-14.6c-10.9-4.2-20.6-7.4-24.3-8.6l25.2-10.1c3.7,1.2,13.4,4.5,24.3,8.6
				c8.6,3.3,17.6,8,25.7,14.6c8.1,6.6,15.4,15.2,20.7,26.3c3.5,7.4,6,15.9,7.3,25.6c0.1,0.6-0.1,1.2-0.4,1.7
				C-168.4,602.1-168.6,602.3-168.9,602.4z"/>
		</g>
		<g>
			<path class="st0" d="M-302.6,394.7l25.2-10.1c12.3,1.7,23.4,8.1,31.6,17.1c8.1,9,13.3,20.7,13.3,32.8l-25.2,10.1
				c0-12.1-5.2-23.8-13.3-32.8C-279.2,402.8-290.3,396.5-302.6,394.7z"/>
		</g>
	</g>
	<g>
		<g>
			<path class="st2" d="M-197.1,610.3c-0.1,0-0.2,0-0.3,0l-209.9-29.5c-0.6-0.1-1.2-0.4-1.6-0.9c-0.4-0.5-0.5-1.2-0.4-1.8
				c1.2-7.7,3.5-14.6,6.7-20.5c4.7-8.7,11.4-15.4,20.2-20.1c7.2-3.8,15.7-6.3,25.4-7.3c5.6-0.6,11.5-1.1,18.1-1.5
				c2.4-0.1,4.3-0.2,5.6-0.3c0.6,0,1-0.1,1.4-0.1l0-13.6c0-0.9,0.5-1.8,1.4-2.2c0.3-0.1,0.6-0.2,1-0.2c0.6,0,1.1,0.2,1.6,0.6
				c6.4,5.7,16,13.4,26.2,14.9c1.2,0.2,2.5,0.3,3.7,0.3c8.8,0,16.8-4.3,22.1-7.5c0.4-0.2,0.8-0.4,1.2-0.4c0.4,0,0.8,0.1,1.2,0.3
				c0.8,0.4,1.2,1.2,1.2,2.1l0,13.9c0,0,0,0.1,0,0.1l0.5,0.2c2,0.7,13,4.2,25.3,8.9c13.3,5.1,24.3,12.3,32.8,21.3
				c5,5.4,9.2,11.6,12.4,18.3c3.2,6.7,5.4,14.2,6.7,22.2c0.1,0.7-0.1,1.5-0.6,2C-195.9,610.1-196.5,610.3-197.1,610.3z"/>
			<path class="st3" d="M-329.7,514.8c7.6,6.8,17.1,14,27.5,15.5c1.4,0.2,2.7,0.3,4.1,0.3c8.7,0,16.8-3.8,23.4-7.9l0,13.9
				c0,1.1,0.7,2,1.6,2.3c0,0,0.2,0.1,0.5,0.2c2.5,0.8,13.1,4.3,25.2,8.9c11.1,4.3,22.6,10.8,31.9,20.7c4.6,5,8.7,10.8,12,17.7
				c2.9,6.3,5.2,13.4,6.5,21.6l-104.9-14.7L-407,578.5c1.3-7.8,3.5-14.3,6.4-19.8c4.8-9,11.5-15.1,19.2-19.2
				c7.6-4.1,16.2-6.1,24.5-7c6.9-0.7,13.3-1.2,18-1.5c2.3-0.1,4.3-0.2,5.6-0.3c0.7,0,1.2-0.1,1.5-0.1c0.4,0,0.5,0,0.5,0
				c0.9,0,1.6-0.8,1.6-1.9L-329.7,514.8 M-329.7,510c-0.7,0-1.3,0.1-1.9,0.4c-1.7,0.8-2.8,2.5-2.8,4.3l0,11.3
				c-1.2,0.1-2.8,0.1-4.8,0.3c-6.5,0.4-12.6,0.9-18.2,1.5c-10,1-18.8,3.6-26.2,7.5c-9.1,4.9-16.3,12-21.1,21.1
				c-3.3,6.1-5.6,13.3-6.9,21.3c-0.2,1.3,0.1,2.6,0.9,3.6c0.8,1,1.9,1.7,3.2,1.9l104.9,14.7l104.9,14.7c0.2,0,0.4,0,0.7,0
				c1.3,0,2.5-0.5,3.4-1.4c1.1-1.1,1.5-2.6,1.3-4.1c-1.3-8.2-3.6-15.9-6.9-22.9c-3.3-7-7.6-13.3-12.8-18.9
				c-8.7-9.3-20-16.7-33.7-21.9c-10.9-4.2-20.6-7.4-24.3-8.6l0-12.3c0-1.7-0.9-3.3-2.4-4.1c-0.7-0.4-1.5-0.6-2.3-0.6
				c-0.9,0-1.7,0.2-2.5,0.7c-5,3.1-12.6,7.2-20.9,7.2c-1.1,0-2.3-0.1-3.4-0.2c-9.5-1.3-18.8-8.8-24.9-14.3
				C-327.4,510.4-328.6,510-329.7,510L-329.7,510z"/>
		</g>
	</g>
	<g>
		<g>
			<path class="st2" d="M-296.3,528.7c-2.1,0-4.2-0.2-6.3-0.4c-11.5-1.6-22.4-7.5-30.6-16.5c-8.1-8.9-12.6-19.9-12.6-30.9l-0.1-48.3
				c0-11.2,4.5-21,12.7-27.8c6.6-5.5,15.4-8.5,24.6-8.5c2.1,0,4.2,0.2,6.3,0.4c11.5,1.6,22.4,7.5,30.6,16.5
				c8.1,8.9,12.6,19.9,12.6,30.9l0.1,48.3c0,11.2-4.5,21-12.7,27.8C-278.3,525.7-287,528.7-296.3,528.7z"/>
			<path class="st3" d="M-308.6,398.6c2,0,3.9,0.1,6,0.4c11.4,1.6,21.7,7.5,29.1,15.7c7.4,8.2,11.9,18.6,12,29.4l0.1,48.3
				c0,10.8-4.4,19.9-11.8,26c-6.1,5-14.1,8-23.1,8c-2,0-3.9-0.1-6-0.4c-11.4-1.6-21.7-7.5-29.1-15.7c-7.4-8.2-11.9-18.6-12-29.4
				l-0.1-48.3c0-10.8,4.4-19.9,11.8-26C-325.6,401.5-317.6,398.6-308.6,398.6 M-308.6,393.9C-308.6,393.9-308.6,393.9-308.6,393.9
				c-9.8,0-19.1,3.2-26.1,9.1c-8.8,7.3-13.6,17.8-13.5,29.7l0.1,48.3c0,11.6,4.7,23.2,13.2,32.5c8.5,9.4,19.9,15.5,32,17.2
				c2.2,0.3,4.5,0.5,6.6,0.5c9.8,0,19.1-3.2,26.1-9.1c8.8-7.3,13.6-17.8,13.5-29.7l-0.1-48.3c0-11.6-4.7-23.2-13.2-32.5
				c-8.5-9.4-19.9-15.5-32-17.2C-304.2,394-306.4,393.9-308.6,393.9L-308.6,393.9z"/>
		</g>
	</g>
	<polyline class="st4" points="-270.1,522.4 -244.9,512.4 -244.9,525.3 	"/>
	<path class="st4" d="M-268.3,535.2l24.6-9.9c3.6,1.2,13.1,4.4,23.8,8.4c8.4,3.2,17.2,7.8,25.1,14.2c7.9,6.5,15.1,14.9,20.2,25.7
		c3.4,7.2,5.9,15.6,7.2,25.1c0.1,0.6-0.1,1.2-0.4,1.6c-0.2,0.2-0.4,0.3-0.6,0.4l-24.6,9.9"/>
	<path class="st5" d="M-258,517.7c2-0.8,7.3-2.6,9.1-3.7c1.3-0.8,2.6-1.7,3.7-2.6c0.1-0.1,0.2-0.2,0.3-0.3c8-6.7,13.1-16.8,13-28.9
		v-0.2l-0.1-48v-0.2c0-12.1-5.1-23.7-13.2-32.6c-8.1-8.9-19.2-15.3-31.4-17l0.3,0.1c-7.8-1.1-15.2-0.2-21.6,2.4l-28.7,13.6"/>
	<path class="st5" d="M-333.5,518.3c0,0-11.5,1.2-17.6,3.7c-1.6,0.6-3.9,1.5-6.4,2.5c-10.7,4.3-20.9,9.9-30.3,16.6l-3.7,2.7"/>
</g>
<polygon class="st6" points="-336.2,343.3 -140.6,343.3 -140.6,185.5 -408.9,185.5 -408.9,343.3 -408.9,384.6 "/>
</svg>
