<?xml version="1.0" encoding="utf-8"?>
<!-- Generator: Adobe Illustrator 19.1.0, SVG Export Plug-In . SVG Version: 6.00 Build 0)  -->
<svg version="1.1" id="Layer_1" xmlns="http://www.w3.org/2000/svg" xmlns:xlink="http://www.w3.org/1999/xlink" x="0px" y="0px"
	 viewBox="0 0 362.4 521.1" style="enable-background:new 0 0 362.4 521.1;" xml:space="preserve">
<style type="text/css">
	.st0{fill:#C88896;}
	.st1{fill:#DEC535;}
	.st2{fill:#DFC634;}
	.st3{fill:#251549;}
	.st4{fill:none;stroke:#251549;stroke-width:3;stroke-linecap:round;stroke-linejoin:round;stroke-miterlimit:10;}
	.st5{fill:none;stroke:#FFFFFF;stroke-miterlimit:10;}
	.st6{fill:#FFFFFF;}
	.st7{fill:#EED039;}
	.st8{fill:none;stroke:#251549;stroke-width:2;stroke-linecap:round;stroke-linejoin:round;stroke-miterlimit:10;}
	.st9{fill:none;stroke:#211648;stroke-width:2;stroke-miterlimit:10;}
	.st10{fill:none;stroke:#211648;stroke-width:2;stroke-linecap:round;stroke-linejoin:round;stroke-miterlimit:10;}
</style>
<g>
	<g>
		<g>
			<path class="st0" d="M139.7,228.1l29.5-11.8c0.2-0.1,0.4-0.1,0.6-0.1l-29.5,11.8C140,228,139.8,228.1,139.7,228.1z"/>
		</g>
		<g>
			<polygon class="st0" points="141.6,231.4 171.2,219.6 171.3,276 141.8,287.8 			"/>
		</g>
		<g>
			<polygon class="st1" points="191.5,238.4 221,226.6 221.1,283 191.6,294.8 			"/>
		</g>
		<g>
			<polygon class="st0" points="141.8,287.8 171.3,276 221.1,283 191.6,294.8 			"/>
		</g>
		<g>
			<path class="st0" d="M223.1,286.3l-29.5,11.8c0.1-0.1,0.3-0.1,0.4-0.3c0.3-0.3,0.4-0.6,0.4-1.1l29.5-11.8c0,0.4-0.1,0.8-0.4,1.1
				C223.4,286.1,223.3,286.2,223.1,286.3z"/>
		</g>
		<g>
			<polygon class="st1" points="141.6,231.4 171.2,219.6 221,226.6 191.5,238.4 			"/>
		</g>
		<g>
			<polygon class="st0" points="140.3,228.1 170.8,217.4 222.4,223.7 192.8,235.5 			"/>
		</g>
		<g>
			<polygon class="st0" points="194.2,237.2 223.8,225.4 223.9,285 194.4,296.8 			"/>
		</g>
		<g>
			<path class="st0" d="M192.8,235.5l29.5-11.8c0.4,0.1,0.7,0.3,1,0.6l-29.5,11.8C193.6,235.7,193.2,235.5,192.8,235.5z"/>
		</g>
		<g>
			<path class="st0" d="M193.8,236.1l29.5-11.8c0.3,0.3,0.4,0.7,0.4,1.2l-29.5,11.8C194.2,236.8,194.1,236.4,193.8,236.1z"/>
		</g>
		<g>
			<path class="st0" d="M193.8,236.1c0.3,0.3,0.4,0.7,0.4,1.2l0.2,59.6c0,0.4-0.1,0.8-0.4,1.1c-0.3,0.3-0.6,0.4-1,0.3l-52.6-7.4
				c-0.4-0.1-0.7-0.3-1-0.6c-0.3-0.3-0.4-0.8-0.4-1.2l-0.2-59.6c0-0.4,0.1-0.8,0.4-1.1c0.3-0.3,0.6-0.4,1-0.3l52.6,7.4
				C193.2,235.5,193.6,235.7,193.8,236.1z M191.6,294.8l-0.2-56.4l-49.8-7l0.2,56.4L191.6,294.8"/>
		</g>
		<g>
			<g>
				<path class="st2" d="M191.6,296.3c-0.1,0-0.1,0-0.2,0l-49.8-7c-0.7-0.1-1.3-0.7-1.3-1.5l-0.2-56.4c0-0.4,0.2-0.8,0.5-1.1
					c0.3-0.2,0.6-0.4,1-0.4c0.1,0,0.1,0,0.2,0l49.8,7c0.7,0.1,1.3,0.7,1.3,1.5l0.2,56.4c0,0.4-0.2,0.8-0.5,1.1
					C192.3,296.2,192,296.3,191.6,296.3z"/>
				<path class="st3" d="M141.6,231.4l49.8,7l0.2,56.4l-49.8-7L141.6,231.4 M141.6,228.4c-0.7,0-1.4,0.3-2,0.7c-0.7,0.6-1,1.4-1,2.3
					l0.2,56.4c0,1.5,1.1,2.8,2.6,3l49.8,7c0.1,0,0.3,0,0.4,0c0.7,0,1.4-0.3,2-0.7c0.7-0.6,1-1.4,1-2.3l-0.2-56.4
					c0-1.5-1.1-2.8-2.6-3l-49.8-7C141.9,228.4,141.8,228.4,141.6,228.4L141.6,228.4z"/>
			</g>
		</g>
		<polyline class="st4" points="140.5,229 172.3,216.5 222.4,223.7 221.9,285.2 192.8,297 		"/>
		<line class="st4" x1="192.9" y1="236.7" x2="219.7" y2="226.1"/>
	</g>
	<g>
		<g>
			<polyline class="st5" points="52.7,87 52.7,245.5 123.2,245.5 			"/>
			<g>
				<polygon class="st6" points="121.1,248.8 120.7,248.3 123.2,246 120.7,243.6 121.1,243.1 124.2,246 				"/>
			</g>
		</g>
	</g>
	<g>
		<g>
			<polyline class="st5" points="312.7,85 312.7,245.5 242.2,245.5 			"/>
			<g>
				<polygon class="st6" points="244.9,243.1 245.4,243.6 242.9,246 245.4,248.3 244.9,248.8 241.9,246 				"/>
			</g>
		</g>
	</g>
	<g>
		<g>
			<polyline class="st5" points="52.7,430 52.7,273.5 123.2,273.5 			"/>
			<g>
				<polygon class="st6" points="121.1,276 120.7,275.5 123.2,273.2 120.7,270.8 121.1,270.3 124.2,273.2 				"/>
			</g>
		</g>
	</g>
	<g>
		<g>
			<polyline class="st5" points="312.7,428 312.7,273.5 242.2,273.5 			"/>
			<g>
				<polygon class="st6" points="244.9,270.3 245.4,270.8 242.9,273.2 245.4,275.5 244.9,276 241.9,273.2 				"/>
			</g>
		</g>
	</g>
	<g>
		<g>
			<path class="st0" d="M83,63.5l-9.9-4c0.7,0.3,1.4,0.6,2.1,1c3,1.6,5.6,4,7.5,7.5c1.1,2.1,2,4.7,2.5,7.8l9.9,4
				c-0.5-3.1-1.4-5.6-2.5-7.8c-1.9-3.5-4.5-5.9-7.5-7.5C84.4,64.1,83.7,63.8,83,63.5z"/>
		</g>
		<g>
			<path class="st1" d="M83,63.5l-9.9-4c-2.4-1-5-1.5-7.5-1.8c-2.7-0.3-5.2-0.5-7.1-0.6c-0.9-0.1-1.7-0.1-2.2-0.1
				c-0.3,0-0.5,0-0.6,0l9.9,4c0.1,0,0.3,0,0.6,0c0.5,0,1.3,0.1,2.2,0.1c1.8,0.1,4.4,0.3,7.1,0.6C78,62,80.6,62.5,83,63.5z"/>
		</g>
		<g>
			<path class="st0" d="M83.6,61.9l-9.9-4c-2.5-1-5.2-1.6-7.8-1.9c-4.3-0.4-8.1-0.6-9.6-0.7l9.9,4c1.5,0.1,5.3,0.3,9.6,0.7
				C78.4,60.3,81.1,60.9,83.6,61.9z"/>
		</g>
		<g>
			<path class="st1" d="M55.3,57l9.9,4c0.1,0,0.1,0,0.2,0c0,0,0.1,0,0.2,0l-9.9-4c-0.1,0-0.2,0-0.2,0C55.4,57,55.4,57,55.3,57z"/>
		</g>
		<g>
			<path class="st0" d="M55.3,57l9.9,4c-0.3-0.1-0.4-0.4-0.4-0.7l-9.9-4C54.9,56.6,55,56.9,55.3,57z"/>
		</g>
		<g>
			<path class="st0" d="M56.4,50.3c-0.5,0.5-1,1-1.5,1.5l9.9,4c0.5-0.5,1-1,1.5-1.5C63.3,53.1,59.3,51.5,56.4,50.3z"/>
		</g>
		<g>
			<polygon class="st0" points="64.8,55.7 54.9,51.8 54.9,56.3 64.8,60.3 			"/>
		</g>
		<g>
			<polygon class="st0" points="70.2,22.5 60.3,18.5 60.3,37.5 70.2,41.4 			"/>
		</g>
		<g>
			<path class="st1" d="M54.9,51.8c-3,2.7-6.7,4.5-10.8,5.1c3.3,1.3,6.6,2.6,9.9,4c4.1-0.6,7.8-2.4,10.8-5.1
				C61.8,54.5,57.9,52.9,54.9,51.8z"/>
		</g>
		<g>
			<path class="st1" d="M44.1,56.9c-3.1,0.4-6,0.1-8.5-0.9l9.9,4c2.5,1,5.4,1.4,8.5,0.9c-0.3-0.1-0.8-0.3-1.2-0.5
				c-0.4-0.1-0.9-0.3-1.2-0.5c-0.4-0.2-0.9-0.4-1.3-0.5c-0.4-0.2-0.9-0.4-1.3-0.5c-0.4-0.2-0.9-0.4-1.3-0.5
				c-0.2-0.1-0.4-0.2-0.6-0.3c-0.4-0.2-0.9-0.4-1.3-0.5c-0.4-0.1-0.8-0.3-1.2-0.5C44.5,57,44.3,56.9,44.1,56.9z"/>
		</g>
		<g>
			<path class="st0" d="M36.2,54.3l9.9,4c2.3,0.9,5,1.3,7.9,0.9c4.5-0.6,8.5-3,11.4-6.2c2.9-3.2,4.7-7.3,4.7-11.5l-9.9-4
				c0,4.2-1.8,8.3-4.7,11.5c-2.9,3.2-7,5.5-11.4,6.2C41.2,55.6,38.5,55.2,36.2,54.3z"/>
		</g>
		<g>
			<polygon class="st1" points="38,27 28.1,23 28,42 37.9,46 			"/>
		</g>
		<g>
			<path class="st0" d="M36.2,54.3l9.9,4c-1.3-0.5-2.5-1.2-3.5-2.1c-2.9-2.4-4.7-6-4.6-10.2L28,42c0,4.2,1.7,7.8,4.6,10.2
				C33.7,53.1,34.9,53.8,36.2,54.3z"/>
		</g>
		<g>
			<polygon class="st1" points="43.2,58.7 33.3,54.8 33.3,59.3 43.2,63.3 			"/>
		</g>
		<g>
			<path class="st0" d="M62,10.1l-9.9-4c1.3,0.5,2.5,1.2,3.5,2.1c2.9,2.4,4.7,6,4.6,10.2l9.9,4c0-4.2-1.7-7.8-4.6-10.2
				C64.5,11.4,63.3,10.7,62,10.1z"/>
		</g>
		<g>
			<path class="st1" d="M52.1,6.2c-2.3-0.9-5-1.3-7.9-0.9l9.9,4c2.9-0.4,5.6-0.1,7.9,0.9C59.1,9,55.1,7.4,52.1,6.2z"/>
		</g>
		<g>
			<path class="st1" d="M44.2,5.3c-4.5,0.6-8.5,3-11.4,6.2c3.3,1.3,6.6,2.6,9.9,4c2.9-3.2,7-5.5,11.4-6.2
				C51.2,8.1,47.4,5.7,44.2,5.3z"/>
		</g>
		<g>
			<path class="st1" d="M43.2,63.3l-9.9-4c0,0.4-0.3,0.8-0.6,0.9c0,0-0.1,0-0.2,0.1c-1,0.3-5.2,1.7-9.9,3.5
				c-4.4,1.7-8.9,4.2-12.5,8.1c-1.8,2-3.4,4.3-4.7,7c-1.2,2.5-2,5.3-2.6,8.5l9.9,4c0.5-3.2,1.4-6,2.6-8.5c1.3-2.7,2.9-5,4.7-7
				c3.6-3.9,8.2-6.5,12.5-8.1c4.7-1.8,8.9-3.2,9.9-3.5c0.1,0,0.2-0.1,0.2-0.1C43,64.1,43.2,63.7,43.2,63.3z"/>
		</g>
		<g>
			<polygon class="st1" points="38,27 28.1,23 27.4,23.1 37.3,27.1 			"/>
		</g>
		<g>
			<polygon class="st0" points="38,27 28.1,23 27.4,23.1 37.3,27.1 			"/>
		</g>
		<g>
			<polygon class="st0" points="37.3,27.1 27.4,23.1 26.6,23.2 36.5,27.2 			"/>
		</g>
		<g>
			<path class="st1" d="M32.8,11.5c-2.9,3.2-4.7,7.3-4.7,11.5l9.9,4c0-4.2,1.8-8.3,4.7-11.5c-0.3-0.1-0.8-0.3-1.2-0.5
				c-0.4-0.1-0.9-0.3-1.2-0.5c-0.9-0.3-1.7-0.7-2.6-1c-0.4-0.2-0.9-0.4-1.3-0.5c-0.4-0.2-0.9-0.4-1.3-0.5c-0.4-0.1-0.9-0.3-1.2-0.5
				C33.6,11.8,33.1,11.6,32.8,11.5z"/>
		</g>
		<g>
			<path class="st0" d="M41.8,57.7l0,5.1c-1.5,0.5-5.3,1.7-9.6,3.4c-3.4,1.3-6.9,3.1-10.1,5.7c-3.2,2.6-6.1,6-8.1,10.3
				c-1.4,2.9-2.4,6.3-2.9,10.1c0,0.2,0,0.5,0.2,0.6c0.1,0.2,0.3,0.2,0.6,0.2l42.1-5.9L96,81.3c0.2,0,0.4-0.2,0.6-0.4
				c0.1-0.2,0.2-0.5,0.2-0.7c-0.5-3.7-1.5-6.7-2.8-9.3c-1.4-2.5-3.1-4.5-5-6.1c-3.9-3.1-8.6-4.4-13.1-4.9c-4.3-0.4-8.1-0.6-9.6-0.7
				l0-5.1c-0.5,0.5-1,1-1.5,1.5l0,4.5c0,0.4,0.3,0.7,0.6,0.7c0,0,0.1,0,0.2,0c0.1,0,0.3,0,0.6,0c0.5,0,1.3,0.1,2.2,0.1
				c1.8,0.1,4.4,0.3,7.1,0.6c3.3,0.3,6.6,1.1,9.6,2.8c3,1.6,5.6,4,7.5,7.5c1.1,2.1,2,4.7,2.5,7.8l-41.2,5.8l-41.2,5.8
				c0.5-3.2,1.4-6,2.6-8.5c1.3-2.7,2.9-5,4.7-7c3.6-3.9,8.2-6.5,12.5-8.1c4.7-1.8,8.9-3.2,9.9-3.5c0.1,0,0.2-0.1,0.2-0.1
				c0.4-0.1,0.6-0.5,0.6-0.9l0-4.5C42.7,58.4,42.2,58.1,41.8,57.7z"/>
		</g>
		<g>
			<path class="st0" d="M54.1,7.6c-4.8,0.7-9.2,3.2-12.4,6.7c-3.2,3.5-5.2,8.1-5.2,12.9l0.7-0.1L38,27c0-4.2,1.8-8.3,4.7-11.5
				c2.9-3.2,7-5.5,11.4-6.2c4.5-0.6,8.5,0.6,11.4,3c2.9,2.4,4.7,6,4.6,10.2l-0.1,19c0,4.2-1.8,8.3-4.7,11.5c-2.9,3.2-7,5.5-11.4,6.2
				c-4.5,0.6-8.5-0.6-11.4-3c-2.9-2.4-4.7-6-4.6-10.2L38,27l-0.7,0.1l-0.7,0.1l-0.1,19c0,4.8,2,8.8,5.2,11.4c0,0,0.1,0.1,0.1,0.1
				c0.5,0.4,1,0.7,1.5,1c3,1.8,6.7,2.6,10.8,2.1c4.1-0.6,7.8-2.4,10.8-5.1c0.5-0.5,1-1,1.5-1.5c0,0,0.1-0.1,0.1-0.1
				c3.2-3.5,5.2-8.1,5.2-12.9l0.1-19c0-4.8-2-8.8-5.2-11.4C63.3,8.2,59,6.9,54.1,7.6z"/>
		</g>
		<g>
			<g>
				<polygon class="st0" points="36.5,27.2 26.6,23.2 26.6,42.2 36.5,46.2 				"/>
			</g>
			<g>
				<path class="st0" d="M35.6,55.9l9.9,4c-0.8-0.3-1.5-0.7-2.2-1.1c-0.5-0.3-1-0.7-1.5-1c0,0-0.1-0.1-0.1-0.1
					c-3.2-2.6-5.2-6.7-5.2-11.4l-9.9-4c0,4.8,2,8.8,5.2,11.4c0,0,0.1,0.1,0.1,0.1c0.5,0.4,1,0.7,1.5,1C34,55.2,34.8,55.6,35.6,55.9z
					"/>
			</g>
			<g>
				<polygon class="st0" points="41.8,57.7 31.9,53.7 31.8,58.8 41.7,62.8 				"/>
			</g>
			<g>
				<path class="st0" d="M62.7,8.5l-9.9-4c-2.5-1-5.4-1.4-8.5-0.9l9.9,4C57.2,7.2,60.1,7.5,62.7,8.5z"/>
			</g>
			<g>
				<path class="st0" d="M1.6,89.2l9.9,4c-0.1,0-0.2-0.1-0.2-0.2c-0.1-0.2-0.2-0.4-0.2-0.6c0.5-3.8,1.5-7.2,2.9-10.1
					c2.1-4.4,4.9-7.7,8.1-10.3c3.2-2.6,6.7-4.4,10.1-5.7c4.3-1.6,8.1-2.9,9.6-3.4l-9.9-4c-1.5,0.5-5.3,1.7-9.6,3.4
					c-3.4,1.3-6.9,3.1-10.1,5.7c-3.2,2.6-6.1,6-8.1,10.3c-1.4,2.9-2.4,6.3-2.9,10.1c0,0.2,0,0.5,0.2,0.6C1.4,89.1,1.5,89.1,1.6,89.2
					z"/>
			</g>
			<g>
				<path class="st0" d="M54.1,7.6l-9.9-4c-4.8,0.7-9.2,3.2-12.4,6.7c-3.2,3.5-5.2,8.1-5.2,12.9l9.9,4c0-4.8,2-9.4,5.2-12.9
					C44.9,10.8,49.3,8.3,54.1,7.6z"/>
			</g>
		</g>
		<g>
			<g>
				<path class="st7" d="M12.7,92.4c-0.3,0-0.5-0.1-0.7-0.3c-0.2-0.2-0.3-0.5-0.3-0.9c0.5-3.2,1.4-6.1,2.6-8.7
					c1.2-2.7,2.9-5.1,4.9-7.2c3.3-3.6,7.7-6.4,12.9-8.4c4.9-1.9,9.1-3.3,10-3.5l0.2-0.1l0-5.5c0-0.4,0.2-0.7,0.5-0.9
					c0.2-0.1,0.3-0.1,0.5-0.1c0.2,0,0.4,0,0.5,0.1c2.1,1.3,5.2,3,8.7,3c0.5,0,1,0,1.5-0.1c4-0.6,7.8-3.6,10.3-5.8
					c0.2-0.2,0.4-0.3,0.7-0.3c0.1,0,0.3,0,0.4,0.1c0.4,0.2,0.6,0.5,0.6,0.9l0,5.3c0.1,0,0.3,0,0.5,0c0.5,0,1.3,0.1,2.2,0.1
					c2.5,0.2,4.9,0.4,7.1,0.6c3.8,0.4,7.2,1.4,10,2.9c3.4,1.8,6.1,4.5,7.9,7.9c1.2,2.3,2.1,5,2.6,8.1c0,0.3,0,0.5-0.2,0.8
					c-0.2,0.2-0.4,0.4-0.7,0.4L12.8,92.4C12.8,92.4,12.7,92.4,12.7,92.4z"/>
				<path class="st3" d="M64.8,54.7L64.8,54.7 M64.8,54.7l0,5.5c0,0.4,0.3,0.7,0.6,0.7c0,0,0.1,0,0.2,0c0.1,0,0.3,0,0.6,0
					c0.5,0,1.3,0.1,2.2,0.1c1.8,0.1,4.4,0.3,7.1,0.6c3.3,0.3,6.6,1.1,9.6,2.7c3,1.6,5.6,4,7.5,7.5c1.1,2.1,2,4.7,2.5,7.8l-41.2,5.8
					l-41.2,5.8c0.5-3.2,1.4-6,2.6-8.5c1.3-2.7,2.9-5,4.7-7c3.6-3.9,8.2-6.5,12.5-8.1c4.7-1.8,8.9-3.2,9.9-3.5c0.1,0,0.2-0.1,0.2-0.1
					c0.4-0.1,0.6-0.5,0.6-0.9l0-5.5c2.6,1.6,5.7,3.1,9.2,3.1c0.5,0,1.1,0,1.6-0.1C58.1,60.2,61.8,57.4,64.8,54.7 M64.8,52.7
					C64.8,52.7,64.7,52.7,64.8,52.7c-0.6,0-1,0.2-1.3,0.5c-2.4,2.1-6,5.1-9.7,5.6c-0.4,0.1-0.9,0.1-1.3,0.1c-3.2,0-6.2-1.6-8.1-2.8
					c-0.3-0.2-0.7-0.3-1-0.3c-0.3,0-0.7,0.1-1,0.3c-0.6,0.4-1,1-1,1.7l0,4.7c-1.5,0.5-5.2,1.7-9.5,3.4c-5.4,2.1-9.8,5-13.3,8.7
					c-2.1,2.2-3.8,4.7-5.1,7.5c-1.3,2.7-2.2,5.8-2.7,9c-0.1,0.6,0.1,1.3,0.5,1.7c0.4,0.4,0.9,0.6,1.4,0.6c0.1,0,0.2,0,0.3,0
					l41.2-5.8l41.2-5.8c0.5-0.1,1-0.4,1.3-0.8c0.3-0.4,0.5-1,0.4-1.5c-0.5-3.1-1.4-6-2.7-8.4c-1.9-3.6-4.7-6.4-8.4-8.3
					c-2.9-1.6-6.4-2.6-10.4-3c-2.2-0.2-4.6-0.4-7.2-0.6c-0.7,0-1.3-0.1-1.8-0.1l0-4.2c0,0,0-0.1,0-0.1
					C66.8,53.6,65.9,52.8,64.8,52.7C64.8,52.7,64.8,52.7,64.8,52.7L64.8,52.7z"/>
			</g>
		</g>
		<g>
			<g>
				<path class="st7" d="M51.7,60.3c-3.6,0-7.1-1.2-9.7-3.4c-3.2-2.7-5-6.6-5-11L37,27c0-4.3,1.8-8.7,5-12.2c3.2-3.5,7.5-5.9,12-6.5
					c0.8-0.1,1.7-0.2,2.5-0.2c3.6,0,7.1,1.2,9.7,3.4c3.2,2.7,5,6.6,5,11l-0.1,19c0,4.3-1.8,8.7-5,12.2c-3.2,3.5-7.5,5.9-12,6.5
					C53.3,60.2,52.5,60.3,51.7,60.3C51.7,60.3,51.7,60.3,51.7,60.3z"/>
				<path class="st3" d="M56.5,9.1c3.5,0,6.7,1.2,9.1,3.1c2.9,2.4,4.7,6,4.6,10.2l-0.1,19c0,4.2-1.8,8.3-4.7,11.5
					c-2.9,3.2-7,5.5-11.4,6.2c-0.8,0.1-1.6,0.2-2.3,0.2c-3.5,0-6.7-1.2-9.1-3.1c-2.9-2.4-4.7-6-4.6-10.2L38,27
					c0-4.2,1.8-8.3,4.7-11.5c2.9-3.2,7-5.5,11.4-6.2C54.9,9.2,55.7,9.1,56.5,9.1 M56.5,7.1c-0.9,0-1.7,0.1-2.6,0.2
					c-4.8,0.7-9.3,3.1-12.6,6.8C37.9,17.8,36,22.4,36,27l-0.1,19c0,4.7,1.9,8.9,5.4,11.8c2.8,2.3,6.5,3.6,10.3,3.6
					c0.9,0,1.7-0.1,2.6-0.2c4.8-0.7,9.3-3.1,12.6-6.8c3.4-3.7,5.2-8.3,5.2-12.9l0.1-19c0-4.7-1.9-8.9-5.4-11.8
					C64,8.4,60.4,7.1,56.5,7.1L56.5,7.1z"/>
			</g>
		</g>
		<polyline class="st8" points="41.4,57.8 31.5,53.8 31.5,58.9 		"/>
		<path class="st8" d="M40.7,62.8L31,58.9c-1.4,0.5-5.2,1.7-9.4,3.3c-3.3,1.3-6.7,3.1-9.9,5.6c-3.1,2.5-5.9,5.8-7.9,10.1
			C2.5,80.8,1.5,84,1,87.8c0,0.2,0,0.5,0.2,0.6c0.1,0.1,0.1,0.1,0.2,0.2l9.7,3.9"/>
		<path class="st9" d="M36.6,55.9c-0.8-0.3-2.9-1-3.6-1.4c-0.5-0.3-1-0.7-1.5-1c0,0-0.1-0.1-0.1-0.1c-3.2-2.6-5.1-6.6-5.1-11.4
			l0-0.1L26.4,23V23c0-4.7,2-9.3,5.2-12.8c3.2-3.5,7.5-6,12.3-6.7l-0.1,0c3.1-0.4,6-0.1,8.5,0.9l11.6,4.8"/>
		<path class="st10" d="M67.1,54.8c0,0,4.5,0.5,6.9,1.4c0.6,0.2,1.5,0.6,2.5,1c4.2,1.7,9.1,4.1,12.2,6.9l2.1,2.4"/>
	</g>
	<g>
		<g>
			<path class="st0" d="M279.4,61.2l9.9-4c-0.7,0.3-1.4,0.6-2.1,1c-3,1.6-5.6,4-7.5,7.5c-1.1,2.1-2,4.7-2.5,7.8l-9.9,4
				c0.5-3.1,1.4-5.6,2.5-7.8c1.9-3.5,4.5-5.9,7.5-7.5C278,61.8,278.7,61.5,279.4,61.2z"/>
		</g>
		<g>
			<path class="st1" d="M279.4,61.2l9.9-4c2.4-1,5-1.5,7.5-1.8c2.7-0.3,5.2-0.5,7.1-0.6c0.9-0.1,1.7-0.1,2.2-0.1c0.3,0,0.5,0,0.6,0
				l-9.9,4c-0.1,0-0.3,0-0.6,0c-0.5,0-1.3,0.1-2.2,0.1c-1.8,0.1-4.4,0.3-7.1,0.6C284.4,59.7,281.8,60.2,279.4,61.2z"/>
		</g>
		<g>
			<path class="st0" d="M278.7,59.6l9.9-4c2.5-1,5.2-1.6,7.8-1.9c4.3-0.4,8.1-0.6,9.6-0.7l-9.9,4c-1.5,0.1-5.3,0.3-9.6,0.7
				C284,58,281.3,58.5,278.7,59.6z"/>
		</g>
		<g>
			<path class="st1" d="M307.1,54.7l-9.9,4c-0.1,0-0.1,0-0.2,0c0,0-0.1,0-0.2,0l9.9-4c0.1,0,0.2,0,0.2,0
				C307,54.7,307,54.7,307.1,54.7z"/>
		</g>
		<g>
			<path class="st0" d="M307.1,54.7l-9.9,4c0.3-0.1,0.4-0.4,0.4-0.7l9.9-4C307.5,54.3,307.3,54.6,307.1,54.7z"/>
		</g>
		<g>
			<path class="st0" d="M306,47.9c0.5,0.5,1,1,1.5,1.5l-9.9,4c-0.5-0.5-1-1-1.5-1.5C299.1,50.7,303,49.1,306,47.9z"/>
		</g>
		<g>
			<polygon class="st0" points="297.6,53.4 307.5,49.4 307.5,54 297.6,57.9 			"/>
		</g>
		<g>
			<polygon class="st0" points="292.2,20.1 302.1,16.1 302.1,35.1 292.2,39.1 			"/>
		</g>
		<g>
			<path class="st1" d="M307.5,49.4c3,2.7,6.7,4.5,10.8,5.1c-3.3,1.3-6.6,2.6-9.9,4c-4.1-0.6-7.8-2.4-10.8-5.1
				C300.6,52.2,304.5,50.6,307.5,49.4z"/>
		</g>
		<g>
			<path class="st1" d="M318.3,54.5c3.1,0.4,6,0.1,8.5-0.9l-9.9,4c-2.5,1-5.4,1.4-8.5,0.9c0.3-0.1,0.8-0.3,1.2-0.5
				c0.4-0.1,0.9-0.3,1.2-0.5c0.4-0.2,0.9-0.4,1.3-0.5c0.4-0.2,0.9-0.4,1.3-0.5c0.4-0.2,0.9-0.4,1.3-0.5c0.2-0.1,0.4-0.2,0.6-0.3
				c0.4-0.2,0.9-0.4,1.3-0.5c0.4-0.1,0.8-0.3,1.2-0.5C317.9,54.7,318.1,54.5,318.3,54.5z"/>
		</g>
		<g>
			<path class="st0" d="M326.2,52l-9.9,4c-2.3,0.9-5,1.3-7.9,0.9c-4.5-0.6-8.5-3-11.4-6.2c-2.9-3.2-4.7-7.3-4.7-11.5l9.9-4
				c0,4.2,1.8,8.3,4.7,11.5c2.9,3.2,7,5.5,11.4,6.2C321.2,53.2,323.8,52.9,326.2,52z"/>
		</g>
		<g>
			<polygon class="st1" points="324.4,24.6 334.3,20.7 334.3,39.6 324.5,43.6 			"/>
		</g>
		<g>
			<path class="st0" d="M326.2,52l-9.9,4c1.3-0.5,2.5-1.2,3.5-2.1c2.9-2.4,4.7-6,4.6-10.2l9.9-4c0,4.2-1.7,7.8-4.6,10.2
				C328.7,50.7,327.5,51.4,326.2,52z"/>
		</g>
		<g>
			<polygon class="st1" points="319.2,56.4 329.1,52.4 329.1,57 319.2,60.9 			"/>
		</g>
		<g>
			<path class="st0" d="M300.4,7.8l9.9-4c-1.3,0.5-2.5,1.2-3.5,2.1c-2.9,2.4-4.7,6-4.6,10.2l-9.9,4c0-4.2,1.7-7.8,4.6-10.2
				C297.9,9,299.1,8.3,300.4,7.8z"/>
		</g>
		<g>
			<path class="st1" d="M310.3,3.8c2.3-0.9,5-1.3,7.9-0.9l-9.9,4c-2.9-0.4-5.6-0.1-7.9,0.9C303.3,6.6,307.3,5,310.3,3.8z"/>
		</g>
		<g>
			<path class="st1" d="M318.1,3c4.5,0.6,8.5,3,11.4,6.2c-3.3,1.3-6.6,2.6-9.9,4c-2.9-3.2-7-5.5-11.4-6.2C311.2,5.7,315,3.3,318.1,3
				z"/>
		</g>
		<g>
			<path class="st1" d="M319.2,60.9l9.9-4c0,0.4,0.3,0.8,0.6,0.9c0,0,0.1,0,0.2,0.1c1,0.3,5.2,1.7,9.9,3.5c4.4,1.7,8.9,4.2,12.5,8.1
				c1.8,2,3.4,4.3,4.7,7c1.2,2.5,2,5.3,2.6,8.5l-9.9,4c-0.5-3.2-1.4-6-2.6-8.5c-1.3-2.7-2.9-5-4.7-7c-3.6-3.9-8.2-6.5-12.5-8.1
				c-4.7-1.8-8.9-3.2-9.9-3.5c-0.1,0-0.2-0.1-0.2-0.1C319.4,61.8,319.2,61.4,319.2,60.9z"/>
		</g>
		<g>
			<polygon class="st1" points="324.4,24.6 334.3,20.7 335,20.8 325.1,24.7 			"/>
		</g>
		<g>
			<polygon class="st0" points="324.4,24.6 334.3,20.7 335,20.8 325.1,24.7 			"/>
		</g>
		<g>
			<polygon class="st0" points="325.1,24.7 335,20.8 335.8,20.9 325.9,24.8 			"/>
		</g>
		<g>
			<path class="st1" d="M329.6,9.1c2.9,3.2,4.7,7.3,4.7,11.5l-9.9,4c0-4.2-1.8-8.3-4.7-11.5c0.3-0.1,0.8-0.3,1.2-0.5
				c0.4-0.1,0.9-0.3,1.2-0.5c0.9-0.3,1.7-0.7,2.6-1c0.4-0.2,0.9-0.4,1.3-0.5c0.4-0.2,0.9-0.4,1.3-0.5c0.4-0.1,0.9-0.3,1.2-0.5
				C328.8,9.5,329.2,9.3,329.6,9.1z"/>
		</g>
		<g>
			<path class="st0" d="M320.6,55.4l0,5.1c1.5,0.5,5.3,1.7,9.6,3.4c3.4,1.3,6.9,3.1,10.1,5.7c3.2,2.6,6.1,6,8.1,10.3
				c1.4,2.9,2.4,6.3,2.9,10.1c0,0.2,0,0.5-0.2,0.6c-0.1,0.2-0.3,0.2-0.6,0.2l-42.1-5.9L266.4,79c-0.2,0-0.4-0.2-0.6-0.4
				c-0.1-0.2-0.2-0.5-0.2-0.7c0.5-3.7,1.5-6.7,2.8-9.3c1.4-2.5,3.1-4.5,5-6.1c3.9-3.1,8.6-4.4,13.1-4.9c4.3-0.4,8.1-0.6,9.6-0.7
				l0-5.1c0.5,0.5,1,1,1.5,1.5l0,4.5c0,0.4-0.3,0.7-0.6,0.7c0,0-0.1,0-0.2,0c-0.1,0-0.3,0-0.6,0c-0.5,0-1.3,0.1-2.2,0.1
				c-1.8,0.1-4.4,0.3-7.1,0.6c-3.3,0.3-6.6,1.1-9.6,2.8c-3,1.6-5.6,4-7.5,7.5c-1.1,2.1-2,4.7-2.5,7.8l41.2,5.8l41.2,5.8
				c-0.5-3.2-1.4-6-2.6-8.5c-1.3-2.7-2.9-5-4.7-7c-3.6-3.9-8.2-6.5-12.5-8.1c-4.7-1.8-8.9-3.2-9.9-3.5c-0.1,0-0.2-0.1-0.2-0.1
				c-0.4-0.1-0.6-0.5-0.6-0.9l0-4.5C319.7,56.1,320.2,55.7,320.6,55.4z"/>
		</g>
		<g>
			<path class="st0" d="M308.2,5.2c4.8,0.7,9.2,3.2,12.4,6.7c3.2,3.5,5.2,8.1,5.2,12.9l-0.7-0.1l-0.7-0.1c0-4.2-1.8-8.3-4.7-11.5
				c-2.9-3.2-7-5.5-11.4-6.2c-4.5-0.6-8.5,0.6-11.4,3c-2.9,2.4-4.7,6-4.6,10.2l0.1,19c0,4.2,1.8,8.3,4.7,11.5
				c2.9,3.2,7,5.5,11.4,6.2c4.5,0.6,8.5-0.6,11.4-3c2.9-2.4,4.7-6,4.6-10.2l-0.1-19l0.7,0.1l0.7,0.1l0.1,19c0,4.8-2,8.8-5.2,11.4
				c0,0-0.1,0.1-0.1,0.1c-0.5,0.4-1,0.7-1.5,1c-3,1.8-6.7,2.6-10.8,2.1c-4.1-0.6-7.8-2.4-10.8-5.1c-0.5-0.5-1-1-1.5-1.5
				c0,0-0.1-0.1-0.1-0.1c-3.2-3.5-5.2-8.1-5.2-12.9l-0.1-19c0-4.8,2-8.8,5.2-11.4C299,5.8,303.4,4.6,308.2,5.2z"/>
		</g>
		<g>
			<g>
				<polygon class="st0" points="325.9,24.8 335.8,20.9 335.8,39.9 325.9,43.8 				"/>
			</g>
			<g>
				<path class="st0" d="M326.8,53.6l-9.9,4c0.8-0.3,1.5-0.7,2.2-1.1c0.5-0.3,1-0.7,1.5-1c0,0,0.1-0.1,0.1-0.1
					c3.2-2.6,5.2-6.7,5.2-11.4l9.9-4c0,4.8-2,8.8-5.2,11.4c0,0-0.1,0.1-0.1,0.1c-0.5,0.4-1,0.7-1.5,1
					C328.4,52.9,327.6,53.3,326.8,53.6z"/>
			</g>
			<g>
				<polygon class="st0" points="320.6,55.4 330.5,51.4 330.6,56.5 320.7,60.4 				"/>
			</g>
			<g>
				<path class="st0" d="M299.7,6.2l9.9-4c2.5-1,5.4-1.4,8.5-0.9l-9.9,4C305.2,4.8,302.2,5.2,299.7,6.2z"/>
			</g>
			<g>
				<path class="st0" d="M360.8,86.8l-9.9,4c0.1,0,0.2-0.1,0.2-0.2c0.1-0.2,0.2-0.4,0.2-0.6c-0.5-3.8-1.5-7.2-2.9-10.1
					c-2.1-4.4-4.9-7.7-8.1-10.3c-3.2-2.6-6.7-4.4-10.1-5.7c-4.3-1.6-8.1-2.9-9.6-3.4l9.9-4c1.5,0.5,5.3,1.7,9.6,3.4
					c3.4,1.3,6.9,3.1,10.1,5.7c3.2,2.6,6.1,6,8.1,10.3c1.4,2.9,2.4,6.3,2.9,10.1c0,0.2,0,0.5-0.2,0.6
					C361,86.7,360.9,86.8,360.8,86.8z"/>
			</g>
			<g>
				<path class="st0" d="M308.2,5.2l9.9-4C323,2,327.4,4.5,330.6,8c3.2,3.5,5.2,8.1,5.2,12.9l-9.9,4c0-4.8-2-9.4-5.2-12.9
					C317.5,8.4,313.1,5.9,308.2,5.2z"/>
			</g>
		</g>
		<g>
			<g>
				<path class="st7" d="M349.7,90c0,0-0.1,0-0.1,0l-82.5-11.6c-0.3,0-0.5-0.2-0.7-0.4c-0.2-0.2-0.2-0.5-0.2-0.8
					c0.5-3,1.4-5.8,2.6-8.1c1.8-3.4,4.5-6.1,7.9-7.9c2.8-1.5,6.2-2.5,10-2.9c2.2-0.2,4.6-0.4,7.1-0.6c0.9-0.1,1.7-0.1,2.2-0.1
					c0.2,0,0.4,0,0.5,0l0-5.3c0-0.4,0.2-0.8,0.6-0.9c0.1-0.1,0.3-0.1,0.4-0.1c0.2,0,0.5,0.1,0.7,0.3c2.5,2.2,6.3,5.3,10.3,5.8
					c0.5,0.1,1,0.1,1.5,0.1c3.5,0,6.6-1.7,8.7-3c0.2-0.1,0.3-0.1,0.5-0.1c0.2,0,0.3,0,0.5,0.1c0.3,0.2,0.5,0.5,0.5,0.9l0,5.5l0.2,0
					c0.8,0.3,5.1,1.6,9.9,3.5c5.2,2,9.6,4.8,12.9,8.4c2,2.1,3.6,4.6,4.9,7.2c1.2,2.7,2.1,5.6,2.6,8.7c0,0.3-0.1,0.6-0.3,0.9
					C350.2,89.9,350,90,349.7,90z"/>
				<path class="st3" d="M297.6,52.4c3,2.7,6.7,5.5,10.8,6.1c0.5,0.1,1.1,0.1,1.6,0.1c3.4,0,6.6-1.5,9.2-3.1l0,5.5
					c0,0.4,0.3,0.8,0.6,0.9c0,0,0.1,0,0.2,0.1c1,0.3,5.2,1.7,9.9,3.5c4.4,1.7,8.9,4.2,12.5,8.1c1.8,2,3.4,4.3,4.7,7
					c1.2,2.5,2,5.3,2.6,8.5l-41.2-5.8l-41.2-5.8c0.5-3.1,1.4-5.6,2.5-7.8c1.9-3.5,4.5-5.9,7.5-7.5c3-1.6,6.4-2.4,9.6-2.8
					c2.7-0.3,5.2-0.5,7.1-0.6c0.9-0.1,1.7-0.1,2.2-0.1c0.3,0,0.5,0,0.6,0c0.1,0,0.2,0,0.2,0c0.4,0,0.6-0.3,0.6-0.7L297.6,52.4
					 M297.6,50.4c-0.3,0-0.6,0.1-0.8,0.2c-0.7,0.3-1.2,1-1.2,1.8l0,4.3c-0.5,0-1.1,0.1-1.8,0.1c-2.6,0.2-5,0.4-7.2,0.6
					c-3.9,0.4-7.4,1.4-10.4,3c-3.6,1.9-6.4,4.7-8.4,8.3c-1.3,2.4-2.2,5.2-2.7,8.4c-0.1,0.5,0,1.1,0.4,1.5c0.3,0.4,0.8,0.7,1.3,0.8
					l41.2,5.8l41.2,5.8c0.1,0,0.2,0,0.3,0c0.5,0,1-0.2,1.4-0.6c0.4-0.5,0.6-1.1,0.5-1.7c-0.5-3.2-1.4-6.3-2.7-9
					c-1.3-2.7-3-5.3-5.1-7.5c-3.4-3.7-7.9-6.6-13.3-8.7c-4.2-1.6-8-2.9-9.5-3.4l0-4.7c0-0.7-0.4-1.4-1-1.7c-0.3-0.2-0.6-0.3-1-0.3
					c-0.4,0-0.7,0.1-1,0.3c-2,1.2-4.9,2.8-8.1,2.8c-0.4,0-0.9,0-1.3-0.1c-3.7-0.5-7.3-3.4-9.7-5.6C298.6,50.6,298.1,50.4,297.6,50.4
					L297.6,50.4z"/>
			</g>
		</g>
		<g>
			<g>
				<path class="st7" d="M310.7,58c-0.8,0-1.7-0.1-2.5-0.2c-4.6-0.6-8.8-2.9-12-6.5c-3.2-3.5-5-7.9-5-12.2l-0.1-19
					c0-4.4,1.8-8.3,5-11c2.6-2.2,6.1-3.4,9.7-3.4c0.8,0,1.7,0.1,2.5,0.2c4.6,0.6,8.8,2.9,12,6.5c3.2,3.5,5,7.9,5,12.2l0.1,19
					c0,4.4-1.8,8.3-5,11C317.8,56.8,314.4,58,310.7,58z"/>
				<path class="st3" d="M305.9,6.8c0.8,0,1.6,0.1,2.3,0.2c4.5,0.6,8.5,3,11.4,6.2c2.9,3.2,4.7,7.3,4.7,11.5l0.1,19
					c0,4.2-1.7,7.8-4.6,10.2c-2.4,2-5.5,3.1-9.1,3.1c-0.8,0-1.6-0.1-2.3-0.2c-4.5-0.6-8.5-3-11.4-6.2c-2.9-3.2-4.7-7.3-4.7-11.5
					l-0.1-19c0-4.2,1.7-7.8,4.6-10.2C299.2,7.9,302.4,6.8,305.9,6.8 M305.9,4.8C305.9,4.8,305.9,4.8,305.9,4.8
					c-3.9,0-7.5,1.3-10.3,3.6c-3.5,2.9-5.4,7.1-5.4,11.8l0.1,19c0,4.6,1.9,9.2,5.2,12.9c3.4,3.7,7.9,6.1,12.6,6.8
					c0.9,0.1,1.8,0.2,2.6,0.2c3.9,0,7.5-1.3,10.3-3.6c3.5-2.9,5.4-7.1,5.4-11.8l-0.1-19c0-4.6-1.9-9.2-5.2-12.9
					c-3.4-3.7-7.9-6.1-12.6-6.8C307.7,4.8,306.8,4.8,305.9,4.8L305.9,4.8z"/>
			</g>
		</g>
		<polyline class="st8" points="321,55.4 330.9,51.5 330.9,56.5 		"/>
		<path class="st8" d="M321.7,60.4l9.7-3.9c1.4,0.5,5.2,1.7,9.4,3.3c3.3,1.3,6.7,3.1,9.9,5.6c3.1,2.5,5.9,5.8,7.9,10.1
			c1.3,2.8,2.3,6.1,2.8,9.8c0,0.2,0,0.5-0.2,0.6c-0.1,0.1-0.1,0.1-0.2,0.2l-9.7,3.9"/>
		<path class="st9" d="M325.8,53.6c0.8-0.3,2.9-1,3.6-1.4c0.5-0.3,1-0.7,1.5-1c0,0,0.1-0.1,0.1-0.1c3.2-2.6,5.1-6.6,5.1-11.4v-0.1
			L336,20.7v-0.1c0-4.7-2-9.3-5.2-12.8c-3.2-3.5-7.5-6-12.3-6.7l0.1,0c-3.1-0.4-6-0.1-8.5,0.9L298.5,7"/>
		<path class="st10" d="M295.3,52.5c0,0-4.5,0.5-6.9,1.4c-0.6,0.2-1.5,0.6-2.5,1c-4.2,1.7-9.1,4.1-12.2,6.9l-2.1,2.4"/>
	</g>
	<g>
		<g>
			<path class="st0" d="M87.2,490.3l-9.9-4c0.7,0.3,1.4,0.6,2.1,1c3,1.6,5.6,4,7.5,7.5c1.1,2.1,2,4.7,2.5,7.8l9.9,4
				c-0.5-3.1-1.4-5.6-2.5-7.8c-1.9-3.5-4.5-5.9-7.5-7.5C88.7,491,88,490.6,87.2,490.3z"/>
		</g>
		<g>
			<path class="st1" d="M87.2,490.3l-9.9-4c-2.4-1-5-1.5-7.5-1.8c-2.7-0.3-5.2-0.5-7.1-0.6c-0.9-0.1-1.7-0.1-2.2-0.1
				c-0.3,0-0.5,0-0.6,0l9.9,4c0.1,0,0.3,0,0.6,0c0.5,0,1.3,0.1,2.2,0.1c1.8,0.1,4.4,0.3,7.1,0.6C82.2,488.8,84.8,489.4,87.2,490.3z"
				/>
		</g>
		<g>
			<path class="st0" d="M87.9,488.7l-9.9-4c-2.5-1-5.2-1.6-7.8-1.9c-4.3-0.4-8.1-0.6-9.6-0.7l9.9,4c1.5,0.1,5.3,0.3,9.6,0.7
				C82.6,487.2,85.3,487.7,87.9,488.7z"/>
		</g>
		<g>
			<path class="st1" d="M59.5,483.8l9.9,4c0.1,0,0.1,0,0.2,0c0,0,0.1,0,0.2,0l-9.9-4c-0.1,0-0.2,0-0.2,0
				C59.7,483.9,59.6,483.9,59.5,483.8z"/>
		</g>
		<g>
			<path class="st0" d="M59.5,483.8l9.9,4c-0.3-0.1-0.4-0.4-0.4-0.7l-9.9-4C59.1,483.5,59.3,483.7,59.5,483.8z"/>
		</g>
		<g>
			<path class="st0" d="M60.6,477.1c-0.5,0.5-1,1-1.5,1.5l9.9,4c0.5-0.5,1-1,1.5-1.5C67.5,479.9,63.6,478.3,60.6,477.1z"/>
		</g>
		<g>
			<polygon class="st0" points="69,482.6 59.1,478.6 59.1,483.1 69,487.1 			"/>
		</g>
		<g>
			<polygon class="st0" points="74.4,449.3 64.5,445.3 64.5,464.3 74.4,468.3 			"/>
		</g>
		<g>
			<path class="st1" d="M59.1,478.6c-3,2.7-6.7,4.5-10.8,5.1c3.3,1.3,6.6,2.6,9.9,4c4.1-0.6,7.8-2.4,10.8-5.1
				C66,481.4,62.1,479.8,59.1,478.6z"/>
		</g>
		<g>
			<path class="st1" d="M48.3,483.7c-3.1,0.4-6,0.1-8.5-0.9l9.9,4c2.5,1,5.4,1.4,8.5,0.9c-0.3-0.1-0.8-0.3-1.2-0.5
				c-0.4-0.1-0.9-0.3-1.2-0.5c-0.4-0.2-0.9-0.4-1.3-0.5c-0.4-0.2-0.9-0.4-1.3-0.5c-0.4-0.2-0.9-0.4-1.3-0.5
				c-0.2-0.1-0.4-0.2-0.6-0.3c-0.4-0.2-0.9-0.4-1.3-0.5c-0.4-0.1-0.8-0.3-1.2-0.5C48.7,483.8,48.5,483.7,48.3,483.7z"/>
		</g>
		<g>
			<path class="st0" d="M40.4,481.1l9.9,4c2.3,0.9,5,1.3,7.9,0.9c4.5-0.6,8.5-3,11.4-6.2c2.9-3.2,4.7-7.3,4.7-11.5l-9.9-4
				c0,4.2-1.8,8.3-4.7,11.5c-2.9,3.2-7,5.5-11.4,6.2C45.5,482.4,42.8,482.1,40.4,481.1z"/>
		</g>
		<g>
			<polygon class="st1" points="42.2,453.8 32.3,449.8 32.3,468.8 42.2,472.8 			"/>
		</g>
		<g>
			<path class="st0" d="M40.4,481.1l9.9,4c-1.3-0.5-2.5-1.2-3.5-2.1c-2.9-2.4-4.7-6-4.6-10.2l-9.9-4c0,4.2,1.7,7.8,4.6,10.2
				C38,479.9,39.1,480.6,40.4,481.1z"/>
		</g>
		<g>
			<polygon class="st1" points="47.5,485.6 37.6,481.6 37.5,486.2 47.4,490.1 			"/>
		</g>
		<g>
			<path class="st0" d="M66.3,437l-9.9-4c1.3,0.5,2.5,1.2,3.5,2.1c2.9,2.4,4.7,6,4.6,10.2l9.9,4c0-4.2-1.7-7.8-4.6-10.2
				C68.7,438.2,67.6,437.5,66.3,437z"/>
		</g>
		<g>
			<path class="st1" d="M56.4,433c-2.3-0.9-5-1.3-7.9-0.9l9.9,4c2.9-0.4,5.6-0.1,7.9,0.9C63.3,435.8,59.3,434.2,56.4,433z"/>
		</g>
		<g>
			<path class="st1" d="M48.5,432.1c-4.5,0.6-8.5,3-11.4,6.2c3.3,1.3,6.6,2.6,9.9,4c2.9-3.2,7-5.5,11.4-6.2
				C55.4,434.9,51.6,432.5,48.5,432.1z"/>
		</g>
		<g>
			<path class="st1" d="M47.4,490.1l-9.9-4c0,0.4-0.3,0.8-0.6,0.9c0,0-0.1,0-0.2,0.1c-1,0.3-5.2,1.7-9.9,3.5
				c-4.4,1.7-8.9,4.2-12.5,8.1c-1.8,2-3.4,4.3-4.7,7c-1.2,2.5-2,5.3-2.6,8.5l9.9,4c0.5-3.2,1.4-6,2.6-8.5c1.3-2.7,2.9-5,4.7-7
				c3.6-3.9,8.2-6.5,12.5-8.1c4.7-1.8,8.9-3.2,9.9-3.5c0.1,0,0.2-0.1,0.2-0.1C47.2,490.9,47.4,490.5,47.4,490.1z"/>
		</g>
		<g>
			<polygon class="st1" points="42.2,453.8 32.3,449.8 31.6,450 41.5,453.9 			"/>
		</g>
		<g>
			<polygon class="st0" points="42.2,453.8 32.3,449.8 31.6,450 41.5,453.9 			"/>
		</g>
		<g>
			<polygon class="st0" points="41.5,453.9 31.6,450 30.8,450.1 40.7,454 			"/>
		</g>
		<g>
			<path class="st1" d="M37,438.3c-2.9,3.2-4.7,7.3-4.7,11.5l9.9,4c0-4.2,1.8-8.3,4.7-11.5c-0.3-0.1-0.8-0.3-1.2-0.5
				c-0.4-0.1-0.9-0.3-1.2-0.5c-0.9-0.3-1.7-0.7-2.6-1c-0.4-0.2-0.9-0.4-1.3-0.5c-0.4-0.2-0.9-0.4-1.3-0.5c-0.4-0.1-0.9-0.3-1.2-0.5
				C37.8,438.6,37.4,438.5,37,438.3z"/>
		</g>
		<g>
			<path class="st0" d="M46,484.5l0,5.1c-1.5,0.5-5.3,1.7-9.6,3.4c-3.4,1.3-6.9,3.1-10.1,5.7c-3.2,2.6-6.1,6-8.1,10.3
				c-1.4,2.9-2.4,6.3-2.9,10.1c0,0.2,0,0.5,0.2,0.6c0.1,0.2,0.3,0.2,0.6,0.2l42.1-5.9l42.1-5.9c0.2,0,0.4-0.2,0.6-0.4
				c0.1-0.2,0.2-0.5,0.2-0.7c-0.5-3.7-1.5-6.7-2.8-9.3c-1.4-2.5-3.1-4.5-5-6.1c-3.9-3.1-8.6-4.4-13.1-4.9c-4.3-0.4-8.1-0.6-9.6-0.7
				l0-5.1c-0.5,0.5-1,1-1.5,1.5l0,4.5c0,0.4,0.3,0.7,0.6,0.7c0,0,0.1,0,0.2,0c0.1,0,0.3,0,0.6,0c0.5,0,1.3,0.1,2.2,0.1
				c1.8,0.1,4.4,0.3,7.1,0.6c3.3,0.3,6.6,1.1,9.6,2.8c3,1.6,5.6,4,7.5,7.5c1.1,2.1,2,4.7,2.5,7.8l-41.2,5.8l-41.2,5.8
				c0.5-3.2,1.4-6,2.6-8.5c1.3-2.7,2.9-5,4.7-7c3.6-3.9,8.2-6.5,12.5-8.1c4.7-1.8,8.9-3.2,9.9-3.5c0.1,0,0.2-0.1,0.2-0.1
				c0.4-0.1,0.6-0.5,0.6-0.9l0-4.5C46.9,485.3,46.4,484.9,46,484.5z"/>
		</g>
		<g>
			<path class="st0" d="M58.4,434.4c-4.8,0.7-9.2,3.2-12.4,6.7c-3.2,3.5-5.2,8.1-5.2,12.9l0.7-0.1l0.7-0.1c0-4.2,1.8-8.3,4.7-11.5
				c2.9-3.2,7-5.5,11.4-6.2c4.5-0.6,8.5,0.6,11.4,3c2.9,2.4,4.7,6,4.6,10.2l-0.1,19c0,4.2-1.8,8.3-4.7,11.5c-2.9,3.2-7,5.5-11.4,6.2
				c-4.5,0.6-8.5-0.6-11.4-3c-2.9-2.4-4.7-6-4.6-10.2l0.1-19l-0.7,0.1l-0.7,0.1l-0.1,19c0,4.8,2,8.8,5.2,11.4c0,0,0.1,0.1,0.1,0.1
				c0.5,0.4,1,0.7,1.5,1c3,1.8,6.7,2.6,10.8,2.1c4.1-0.6,7.8-2.4,10.8-5.1c0.5-0.5,1-1,1.5-1.5c0,0,0.1-0.1,0.1-0.1
				c3.2-3.5,5.2-8.1,5.2-12.9l0.1-19c0-4.8-2-8.8-5.2-11.4C67.6,435,63.2,433.7,58.4,434.4z"/>
		</g>
		<g>
			<g>
				<polygon class="st0" points="40.7,454 30.8,450.1 30.8,469 40.7,473 				"/>
			</g>
			<g>
				<path class="st0" d="M39.8,482.7l9.9,4c-0.8-0.3-1.5-0.7-2.2-1.1c-0.5-0.3-1-0.7-1.5-1c0,0-0.1-0.1-0.1-0.1
					c-3.2-2.6-5.2-6.7-5.2-11.4l-9.9-4c0,4.8,2,8.8,5.2,11.4c0,0,0.1,0.1,0.1,0.1c0.5,0.4,1,0.7,1.5,1
					C38.3,482.1,39,482.4,39.8,482.7z"/>
			</g>
			<g>
				<polygon class="st0" points="46,484.5 36.1,480.6 36.1,485.7 46,489.6 				"/>
			</g>
			<g>
				<path class="st0" d="M66.9,435.4l-9.9-4c-2.5-1-5.4-1.4-8.5-0.9l9.9,4C61.5,434,64.4,434.4,66.9,435.4z"/>
			</g>
			<g>
				<path class="st0" d="M5.8,516l9.9,4c-0.1,0-0.2-0.1-0.2-0.2c-0.1-0.2-0.2-0.4-0.2-0.6c0.5-3.8,1.5-7.2,2.9-10.1
					c2.1-4.4,4.9-7.7,8.1-10.3c3.2-2.6,6.7-4.4,10.1-5.7c4.3-1.6,8.1-2.9,9.6-3.4l-9.9-4c-1.5,0.5-5.3,1.7-9.6,3.4
					c-3.4,1.3-6.9,3.1-10.1,5.7c-3.2,2.6-6.1,6-8.1,10.3c-1.4,2.9-2.4,6.3-2.9,10.1c0,0.2,0,0.5,0.2,0.6C5.6,515.9,5.7,516,5.8,516z
					"/>
			</g>
			<g>
				<path class="st0" d="M58.4,434.4l-9.9-4c-4.8,0.7-9.2,3.2-12.4,6.7c-3.2,3.5-5.2,8.1-5.2,12.9l9.9,4c0-4.8,2-9.4,5.2-12.9
					C49.2,437.6,53.5,435.1,58.4,434.4z"/>
			</g>
		</g>
		<g>
			<g>
				<path class="st7" d="M16.9,519.2c-0.3,0-0.5-0.1-0.7-0.3c-0.2-0.2-0.3-0.5-0.3-0.9c0.5-3.2,1.4-6.1,2.6-8.7
					c1.2-2.7,2.9-5.1,4.9-7.2c3.3-3.6,7.7-6.4,12.9-8.4c4.9-1.9,9.1-3.3,10-3.5c0.1,0,0.1,0,0.1,0l0-5.5c0-0.4,0.2-0.7,0.5-0.9
					c0.2-0.1,0.3-0.1,0.5-0.1c0.2,0,0.4,0,0.5,0.1c2.1,1.3,5.2,3,8.7,3c0.5,0,1,0,1.5-0.1c4-0.6,7.8-3.6,10.3-5.8
					c0.2-0.2,0.4-0.3,0.7-0.3c0.1,0,0.3,0,0.4,0.1c0.4,0.2,0.6,0.5,0.6,0.9l0,5.3c0.1,0,0.3,0,0.5,0c0.5,0,1.3,0.1,2.2,0.1
					c2.5,0.2,4.9,0.4,7.1,0.6c3.8,0.4,7.2,1.4,10,2.9c3.4,1.8,6.1,4.5,7.9,7.9c1.2,2.3,2.1,5,2.6,8.1c0,0.3,0,0.5-0.2,0.8
					c-0.2,0.2-0.4,0.4-0.7,0.4l-82.5,11.6C17,519.2,17,519.2,16.9,519.2z"/>
				<path class="st3" d="M69,481.6L69,481.6 M69,481.6l0,5.5c0,0.4,0.3,0.7,0.6,0.7c0,0,0.1,0,0.2,0c0.1,0,0.3,0,0.6,0
					c0.5,0,1.3,0.1,2.2,0.1c1.8,0.1,4.4,0.3,7.1,0.6c3.3,0.3,6.6,1.1,9.6,2.8c3,1.6,5.6,4,7.5,7.5c1.1,2.1,2,4.7,2.5,7.8l-41.2,5.8
					l-41.2,5.8c0.5-3.2,1.4-6,2.6-8.5c1.3-2.7,2.9-5,4.7-7c3.6-3.9,8.2-6.5,12.5-8.1c4.7-1.8,8.9-3.2,9.9-3.5c0.1,0,0.2-0.1,0.2-0.1
					c0.4-0.1,0.6-0.5,0.6-0.9l0-5.5c2.6,1.6,5.7,3.1,9.2,3.1c0.5,0,1.1,0,1.6-0.1C62.3,487.1,66,484.3,69,481.6 M69,479.6
					C69,479.6,69,479.6,69,479.6c-0.6,0-1,0.2-1.3,0.5c-2.4,2.1-6,5.1-9.7,5.6c-0.4,0.1-0.9,0.1-1.3,0.1c-3.2,0-6.2-1.6-8.1-2.8
					c-0.3-0.2-0.7-0.3-1-0.3c-0.3,0-0.7,0.1-1,0.3c-0.6,0.4-1,1-1,1.7l0,4.7c-1.5,0.5-5.2,1.7-9.5,3.4c-5.4,2.1-9.8,5-13.3,8.7
					c-2.1,2.2-3.8,4.7-5.1,7.5c-1.3,2.7-2.2,5.8-2.7,9c-0.1,0.6,0.1,1.3,0.5,1.7c0.4,0.4,0.9,0.6,1.4,0.6c0.1,0,0.2,0,0.3,0
					l41.2-5.8l41.2-5.8c0.5-0.1,1-0.4,1.3-0.8s0.5-1,0.4-1.5c-0.5-3.1-1.4-6-2.7-8.4c-1.9-3.6-4.7-6.4-8.4-8.3
					c-2.9-1.6-6.4-2.6-10.4-3c-2.2-0.2-4.6-0.4-7.2-0.6c-0.7,0-1.3-0.1-1.8-0.1l0-4.2c0,0,0-0.1,0-0.1C71,480.5,70.1,479.6,69,479.6
					C69,479.6,69,479.6,69,479.6L69,479.6z"/>
			</g>
		</g>
		<g>
			<g>
				<path class="st7" d="M55.9,487.1c-3.6,0-7.1-1.2-9.7-3.4c-3.2-2.7-5-6.6-5-11l0.1-19c0-4.3,1.8-8.7,5-12.2
					c3.2-3.5,7.5-5.9,12-6.5c0.8-0.1,1.7-0.2,2.5-0.2c3.6,0,7.1,1.2,9.7,3.4c3.2,2.7,5,6.6,5,11l-0.1,19c0,4.3-1.8,8.7-5,12.2
					c-3.2,3.5-7.5,5.9-12,6.5C57.5,487.1,56.7,487.1,55.9,487.1C55.9,487.1,55.9,487.1,55.9,487.1z"/>
				<path class="st3" d="M60.7,435.9c3.5,0,6.7,1.2,9.1,3.1c2.9,2.4,4.7,6,4.6,10.2l-0.1,19c0,4.2-1.8,8.3-4.7,11.5
					c-2.9,3.2-7,5.5-11.4,6.2c-0.8,0.1-1.6,0.2-2.3,0.2c-3.5,0-6.7-1.2-9.1-3.1c-2.9-2.4-4.7-6-4.6-10.2l0.1-19
					c0-4.2,1.8-8.3,4.7-11.5c2.9-3.2,7-5.5,11.4-6.2C59.2,436,59.9,435.9,60.7,435.9 M60.7,433.9c-0.9,0-1.7,0.1-2.6,0.2
					c-4.8,0.7-9.3,3.1-12.6,6.8c-3.4,3.7-5.2,8.3-5.2,12.9l-0.1,19c0,4.7,1.9,8.9,5.4,11.8c2.8,2.3,6.5,3.6,10.3,3.6
					c0.9,0,1.7-0.1,2.6-0.2c4.8-0.7,9.3-3.1,12.6-6.8c3.4-3.7,5.2-8.3,5.2-12.9l0.1-19c0-4.7-1.9-8.9-5.4-11.8
					C68.3,435.2,64.6,433.9,60.7,433.9L60.7,433.9z"/>
			</g>
		</g>
		<polyline class="st8" points="45.6,484.6 35.7,480.6 35.7,485.7 		"/>
		<path class="st8" d="M44.9,489.6l-9.7-3.9c-1.4,0.5-5.2,1.7-9.4,3.3c-3.3,1.3-6.7,3.1-9.9,5.6c-3.1,2.5-5.9,5.8-7.9,10.1
			c-1.3,2.8-2.3,6.1-2.8,9.8c0,0.2,0,0.5,0.2,0.6c0.1,0.1,0.1,0.1,0.2,0.2l9.7,3.9"/>
		<path class="st9" d="M40.8,482.7c-0.8-0.3-2.9-1-3.6-1.4c-0.5-0.3-1-0.7-1.5-1c0,0-0.1-0.1-0.1-0.1c-3.2-2.6-5.1-6.6-5.1-11.4
			v-0.1l0.1-18.9v-0.1c0-4.7,2-9.3,5.2-12.8c3.2-3.5,7.5-6,12.3-6.7l-0.1,0c3.1-0.4,6-0.1,8.5,0.9l11.6,4.8"/>
		<path class="st10" d="M71.3,481.7c0,0,4.5,0.5,6.9,1.4c0.6,0.2,1.5,0.6,2.5,1c4.2,1.7,9.1,4.1,12.2,6.9l2.1,2.4"/>
	</g>
	<g>
		<g>
			<path class="st0" d="M279,489.6l10-3.7c-0.7,0.3-1.4,0.6-2.1,0.9c-3,1.5-5.7,3.9-7.7,7.4c-1.2,2.1-2.1,4.6-2.7,7.7l-10,3.7
				c0.6-3.1,1.5-5.6,2.7-7.7c2-3.5,4.7-5.8,7.7-7.4C277.6,490.2,278.3,489.9,279,489.6z"/>
		</g>
		<g>
			<path class="st1" d="M279,489.6l10-3.7c2.4-0.9,5-1.4,7.6-1.6c2.7-0.2,5.2-0.3,7.1-0.4c0.9,0,1.7-0.1,2.2-0.1c0.3,0,0.5,0,0.6,0
				l-10,3.7c-0.1,0-0.3,0-0.6,0c-0.5,0-1.3,0-2.2,0.1c-1.8,0.1-4.4,0.2-7.1,0.4C284.1,488.2,281.5,488.7,279,489.6z"/>
		</g>
		<g>
			<path class="st0" d="M278.5,488l10-3.7c2.6-1,5.3-1.5,7.9-1.7c4.3-0.3,8.1-0.5,9.6-0.5l-10,3.7c-1.5,0-5.3,0.1-9.6,0.5
				C283.7,486.5,281,487,278.5,488z"/>
		</g>
		<g>
			<path class="st1" d="M306.9,483.7l-10,3.7c-0.1,0-0.1,0-0.2,0c0,0-0.1,0-0.2,0l10-3.7c0.1,0,0.2,0,0.2,0
				C306.8,483.8,306.8,483.7,306.9,483.7z"/>
		</g>
		<g>
			<path class="st0" d="M306.9,483.7l-10,3.7c0.3-0.1,0.4-0.4,0.4-0.7l10-3.7C307.3,483.4,307.2,483.6,306.9,483.7z"/>
		</g>
		<g>
			<path class="st0" d="M306,477c0.5,0.5,0.9,1,1.5,1.5l-10,3.7c-0.5-0.5-1-1-1.5-1.5C299,479.6,303,478.1,306,477z"/>
		</g>
		<g>
			<polygon class="st0" points="297.4,482.2 307.4,478.5 307.3,483 297.4,486.8 			"/>
		</g>
		<g>
			<polygon class="st0" points="292.8,448.8 302.8,445.1 302.4,464.1 292.4,467.8 			"/>
		</g>
		<g>
			<path class="st1" d="M307.4,478.5c2.9,2.7,6.6,4.7,10.7,5.3c-3.3,1.2-6.7,2.5-10,3.7c-4-0.7-7.7-2.6-10.7-5.3
				C300.4,481.1,304.4,479.6,307.4,478.5z"/>
		</g>
		<g>
			<path class="st1" d="M318.1,483.8c3.1,0.5,6,0.2,8.5-0.8l-10,3.7c-2.5,1-5.5,1.3-8.5,0.8c0.3-0.1,0.8-0.3,1.2-0.4
				c0.4-0.1,0.9-0.3,1.2-0.5c0.4-0.1,0.9-0.3,1.3-0.5c0.4-0.1,0.9-0.3,1.3-0.5c0.4-0.1,0.9-0.3,1.3-0.5c0.2-0.1,0.5-0.2,0.6-0.2
				c0.4-0.1,0.9-0.3,1.3-0.5c0.4-0.1,0.8-0.3,1.2-0.5C317.7,484,317.9,483.8,318.1,483.8z"/>
		</g>
		<g>
			<path class="st0" d="M326,481.4l-10,3.7c-2.3,0.9-5,1.2-7.9,0.7c-4.5-0.7-8.5-3.1-11.3-6.4c-2.8-3.3-4.5-7.4-4.4-11.6l10-3.7
				c-0.1,4.2,1.6,8.3,4.4,11.6c2.8,3.3,6.8,5.7,11.3,6.4C321,482.6,323.7,482.3,326,481.4z"/>
		</g>
		<g>
			<polygon class="st1" points="324.9,454.1 334.9,450.3 334.5,469.3 324.5,473.1 			"/>
		</g>
		<g>
			<path class="st0" d="M326,481.4l-10,3.7c1.3-0.5,2.5-1.2,3.6-2c3-2.3,4.8-5.9,4.9-10.1l10-3.7c-0.1,4.2-1.9,7.8-4.9,10.1
				C328.6,480.3,327.4,481,326,481.4z"/>
		</g>
		<g>
			<polygon class="st1" points="318.9,485.7 328.9,482 328.8,486.5 318.8,490.3 			"/>
		</g>
		<g>
			<path class="st0" d="M301.2,436.7l10-3.7c-1.3,0.5-2.5,1.2-3.6,2c-3,2.3-4.8,5.9-4.9,10.1l-10,3.7c0.1-4.2,1.9-7.8,4.9-10.1
				C298.7,437.9,299.9,437.2,301.2,436.7z"/>
		</g>
		<g>
			<path class="st1" d="M311.2,433c2.3-0.9,5-1.2,7.9-0.7l-10,3.7c-2.9-0.5-5.6-0.2-7.9,0.7C304.2,435.6,308.2,434.1,311.2,433z"/>
		</g>
		<g>
			<path class="st1" d="M319.1,432.3c4.5,0.7,8.5,3.1,11.3,6.4c-3.3,1.2-6.7,2.5-10,3.7c-2.8-3.3-6.8-5.7-11.3-6.4
				C312.1,434.9,315.9,432.6,319.1,432.3z"/>
		</g>
		<g>
			<path class="st1" d="M318.8,490.3l10-3.7c0,0.4,0.2,0.8,0.6,0.9c0,0,0.1,0,0.2,0.1c1,0.3,5.1,1.8,9.8,3.7
				c4.3,1.8,8.8,4.4,12.3,8.4c1.8,2,3.3,4.3,4.5,7.1c1.1,2.5,1.9,5.3,2.4,8.5l-10,3.7c-0.4-3.2-1.3-6.1-2.4-8.5
				c-1.2-2.7-2.8-5.1-4.5-7.1c-3.6-4-8-6.7-12.3-8.4c-4.7-1.9-8.9-3.4-9.8-3.7c-0.1,0-0.2-0.1-0.2-0.1
				C319.1,491.1,318.8,490.7,318.8,490.3z"/>
		</g>
		<g>
			<polygon class="st1" points="324.9,454.1 334.9,450.3 335.6,450.5 325.6,454.2 			"/>
		</g>
		<g>
			<polygon class="st0" points="324.9,454.1 334.9,450.3 335.6,450.5 325.6,454.2 			"/>
		</g>
		<g>
			<polygon class="st0" points="325.6,454.2 335.6,450.5 336.3,450.6 326.3,454.3 			"/>
		</g>
		<g>
			<path class="st1" d="M330.4,438.7c2.8,3.3,4.5,7.4,4.4,11.6l-10,3.7c0.1-4.2-1.6-8.3-4.4-11.6c0.3-0.1,0.8-0.3,1.2-0.4
				c0.4-0.1,0.9-0.3,1.2-0.5c0.9-0.3,1.7-0.6,2.6-1c0.4-0.1,0.9-0.3,1.3-0.5c0.4-0.1,0.9-0.3,1.3-0.5c0.4-0.1,0.9-0.3,1.2-0.5
				C329.6,439,330.1,438.8,330.4,438.7z"/>
		</g>
		<g>
			<path class="st0" d="M320.4,484.7l-0.1,5.1c1.4,0.5,5.2,1.9,9.5,3.6c3.4,1.4,6.8,3.3,10,5.9c3.1,2.7,5.9,6.1,7.9,10.5
				c1.3,2.9,2.2,6.3,2.7,10.1c0,0.2,0,0.5-0.2,0.6c-0.1,0.2-0.3,0.2-0.6,0.2l-42-6.9l-42-6.9c-0.2,0-0.4-0.2-0.6-0.4
				c-0.1-0.2-0.2-0.5-0.2-0.7c0.6-3.7,1.6-6.7,3-9.2c1.4-2.5,3.2-4.4,5.1-5.9c3.9-3,8.7-4.2,13.2-4.6c4.3-0.3,8.1-0.5,9.6-0.5
				l0.1-5.1c0.5,0.5,0.9,1,1.5,1.5l-0.1,4.5c0,0.4-0.3,0.7-0.6,0.7c0,0-0.1,0-0.2,0c-0.1,0-0.3,0-0.6,0c-0.5,0-1.3,0-2.2,0.1
				c-1.8,0.1-4.4,0.2-7.1,0.4c-3.3,0.3-6.6,1-9.7,2.5c-3,1.5-5.7,3.9-7.7,7.4c-1.2,2.1-2.1,4.6-2.7,7.7l41.1,6.7l41.1,6.7
				c-0.4-3.2-1.3-6.1-2.4-8.5c-1.2-2.7-2.8-5.1-4.5-7.1c-3.6-4-8-6.7-12.3-8.4c-4.7-1.9-8.9-3.4-9.8-3.7c-0.1,0-0.2-0.1-0.2-0.1
				c-0.4-0.1-0.6-0.5-0.6-0.9l0.1-4.5C319.5,485.4,320,485.1,320.4,484.7z"/>
		</g>
		<g>
			<path class="st0" d="M309.2,434.3c4.8,0.8,9.1,3.4,12.3,7c3.1,3.6,5,8.2,4.9,13l-0.7-0.1l-0.7-0.1c0.1-4.2-1.6-8.3-4.4-11.6
				c-2.8-3.3-6.8-5.7-11.3-6.4c-4.5-0.7-8.5,0.4-11.5,2.7c-3,2.3-4.8,5.9-4.9,10.1l-0.4,19c-0.1,4.2,1.6,8.3,4.4,11.6
				c2.8,3.3,6.8,5.7,11.3,6.4c4.5,0.7,8.5-0.4,11.5-2.7c3-2.3,4.8-5.9,4.9-10.1l0.4-19l0.7,0.1l0.7,0.1l-0.4,19
				c-0.1,4.8-2.2,8.8-5.4,11.3c0,0-0.1,0.1-0.1,0.1c-0.5,0.4-1,0.7-1.5,1c-3,1.8-6.8,2.5-10.8,1.8c-4-0.7-7.7-2.6-10.7-5.3
				c-0.5-0.5-1-1-1.5-1.5c0-0.1-0.1-0.1-0.1-0.2c-3.1-3.6-5-8.2-4.9-13l0.4-19c0.1-4.8,2.2-8.8,5.4-11.3
				C299.9,434.7,304.3,433.6,309.2,434.3z"/>
		</g>
		<g>
			<g>
				<polygon class="st0" points="326.3,454.3 336.3,450.6 336,469.6 326,473.3 				"/>
			</g>
			<g>
				<path class="st0" d="M326.6,483.1l-10,3.7c0.8-0.3,1.6-0.7,2.3-1.1c0.5-0.3,1-0.6,1.5-1c0,0,0.1-0.1,0.1-0.1
					c3.2-2.6,5.3-6.5,5.4-11.3l10-3.7c-0.1,4.8-2.2,8.8-5.4,11.3c0,0-0.1,0.1-0.1,0.1c-0.5,0.4-1,0.7-1.5,1
					C328.2,482.4,327.4,482.8,326.6,483.1z"/>
			</g>
			<g>
				<polygon class="st0" points="320.4,484.7 330.4,481 330.3,486.1 320.3,489.8 				"/>
			</g>
			<g>
				<path class="st0" d="M300.6,435.1l10-3.7c2.5-1,5.5-1.3,8.5-0.8l-10,3.7C306.1,433.8,303.2,434.1,300.6,435.1z"/>
			</g>
			<g>
				<path class="st0" d="M359.9,517.1l-10,3.7c0.1,0,0.2-0.1,0.2-0.2c0.1-0.2,0.2-0.4,0.2-0.6c-0.4-3.8-1.4-7.2-2.7-10.1
					c-2-4.4-4.8-7.9-7.9-10.5c-3.1-2.7-6.6-4.6-10-5.9c-4.2-1.7-8-3.1-9.5-3.6l10-3.7c1.4,0.5,5.2,1.9,9.5,3.6
					c3.4,1.4,6.8,3.3,10,5.9c3.1,2.7,5.9,6.1,7.9,10.5c1.3,2.9,2.2,6.3,2.7,10.1c0,0.2,0,0.5-0.2,0.6C360.1,517,360,517,359.9,517.1
					z"/>
			</g>
			<g>
				<path class="st0" d="M309.2,434.3l10-3.7c4.8,0.8,9.1,3.4,12.3,7c3.1,3.6,5,8.2,4.9,13l-10,3.7c0.1-4.8-1.8-9.4-4.9-13
					C318.3,437.7,314,435.1,309.2,434.3z"/>
			</g>
		</g>
		<g>
			<g>
				<path class="st7" d="M348.7,520c-0.1,0-0.1,0-0.2,0l-82.2-13.4c-0.3,0-0.5-0.2-0.7-0.4c-0.2-0.2-0.2-0.5-0.2-0.8
					c0.6-3,1.5-5.7,2.8-8c1.9-3.4,4.6-6,8.1-7.8c2.9-1.4,6.2-2.3,10.1-2.6c2.2-0.2,4.5-0.3,7.1-0.4c0.9,0,1.7-0.1,2.2-0.1
					c0.2,0,0.4,0,0.5,0l0.1-5.3c0-0.4,0.2-0.7,0.6-0.9c0.1-0.1,0.3-0.1,0.4-0.1c0.2,0,0.5,0.1,0.7,0.3c2.4,2.3,6.2,5.4,10.1,6.1
					c0.6,0.1,1.1,0.1,1.7,0.1c3.4,0,6.4-1.6,8.5-2.8c0.2-0.1,0.3-0.1,0.5-0.1s0.3,0,0.5,0.1c0.3,0.2,0.5,0.5,0.5,0.9l-0.1,5.5
					c0,0,0.1,0,0.2,0.1c0.8,0.3,5,1.7,9.9,3.7c5.2,2.1,9.5,5,12.7,8.7c1.9,2.2,3.5,4.6,4.7,7.3c1.2,2.7,2,5.6,2.4,8.8
					c0,0.3-0.1,0.6-0.3,0.9C349.2,519.9,349,520,348.7,520z"/>
				<path class="st3" d="M297.5,481.3c2.9,2.7,6.6,5.7,10.6,6.3c0.6,0.1,1.2,0.1,1.9,0.1c3.3,0,6.4-1.4,9-2.9l-0.1,5.5
					c0,0.4,0.2,0.8,0.6,0.9c0,0,0.1,0,0.2,0.1c1,0.3,5.1,1.8,9.8,3.7c4.3,1.8,8.8,4.4,12.3,8.4c1.8,2,3.3,4.3,4.5,7.1
					c1.1,2.5,1.9,5.3,2.4,8.5l-41.1-6.7l-41.1-6.7c0.6-3.1,1.5-5.6,2.7-7.7c2-3.5,4.7-5.8,7.7-7.4c3-1.5,6.4-2.3,9.7-2.5
					c2.7-0.2,5.2-0.3,7.1-0.4c0.9,0,1.7-0.1,2.2-0.1c0.3,0,0.5,0,0.6,0c0.1,0,0.2,0,0.2,0c0.4,0,0.6-0.3,0.6-0.7L297.5,481.3
					 M318.9,484.8L318.9,484.8 M297.5,479.3c-0.3,0-0.5,0.1-0.8,0.2c-0.7,0.3-1.2,1-1.2,1.8l-0.1,4.3c-0.5,0-1.1,0-1.8,0.1
					c-2.6,0.1-5,0.2-7.2,0.4c-3.9,0.3-7.5,1.2-10.4,2.7c-3.7,1.9-6.5,4.6-8.5,8.2c-1.4,2.4-2.3,5.2-2.9,8.3c-0.1,0.5,0,1.1,0.3,1.5
					c0.3,0.4,0.8,0.7,1.3,0.8l41.1,6.7l41.1,6.7c0.1,0,0.2,0,0.3,0c0.5,0,1-0.2,1.4-0.6c0.5-0.4,0.7-1.1,0.6-1.7
					c-0.4-3.3-1.3-6.3-2.5-9.1c-1.2-2.8-2.9-5.3-4.9-7.6c-3.3-3.8-7.7-6.8-13.1-8.9c-4.2-1.7-7.9-3-9.4-3.6l0.1-4.6c0,0,0-0.1,0-0.1
					c0-1.1-0.9-2-2-2h0l0,0h0c0,0,0,0,0,0c0,0,0,0,0,0c0,0,0,0,0,0c0,0,0,0,0,0c-0.4,0-0.7,0.1-1,0.3c-3,1.8-5.6,2.6-7.9,2.6
					c-0.5,0-1,0-1.5-0.1c-3.7-0.6-7.3-3.6-9.6-5.8C298.5,479.4,298,479.3,297.5,479.3L297.5,479.3z"/>
			</g>
		</g>
		<g>
			<g>
				<path class="st7" d="M310.9,487.1c-0.9,0-1.9-0.1-2.9-0.2c-4.5-0.7-8.8-3.1-11.9-6.8c-3.1-3.6-4.8-8-4.7-12.3l0.4-19
					c0.1-4.4,1.9-8.3,5.2-10.9c2.6-2.1,5.9-3.1,9.4-3.1c0.9,0,1.9,0.1,2.9,0.2c4.5,0.7,8.8,3.1,11.9,6.8c3.1,3.6,4.8,8,4.7,12.3
					l-0.4,19c-0.1,4.4-1.9,8.3-5.2,10.9C317.6,486,314.4,487.1,310.9,487.1z"/>
				<path class="st3" d="M306.4,435.8c0.9,0,1.8,0.1,2.7,0.2c4.5,0.7,8.5,3.1,11.3,6.4c2.8,3.3,4.5,7.4,4.4,11.6l-0.4,19
					c-0.1,4.2-1.9,7.8-4.9,10.1c-2.3,1.9-5.4,2.9-8.8,2.9c-0.9,0-1.8-0.1-2.7-0.2c-4.5-0.7-8.5-3.1-11.3-6.4
					c-2.8-3.3-4.5-7.4-4.4-11.6l0.4-19c0.1-4.2,1.9-7.8,4.9-10.1C300,436.9,303,435.8,306.4,435.8 M306.4,433.8L306.4,433.8
					c-3.8,0-7.2,1.2-10,3.4c-3.5,2.8-5.5,6.9-5.6,11.6l-0.4,19c-0.1,4.6,1.7,9.2,4.9,13c3.3,3.8,7.7,6.3,12.5,7.1c1,0.2,2,0.2,3,0.2
					c3.8,0,7.2-1.2,10-3.4c3.5-2.8,5.5-6.9,5.6-11.6l0.4-19c0.1-4.6-1.7-9.2-4.9-13c-3.3-3.8-7.7-6.3-12.5-7.1
					C308.4,433.9,307.4,433.8,306.4,433.8L306.4,433.8z"/>
			</g>
		</g>
		<polyline class="st8" points="320.8,484.8 330.8,481.1 330.7,486.1 		"/>
		<path class="st8" d="M321.4,489.8l9.8-3.7c1.4,0.5,5.1,1.8,9.3,3.5c3.3,1.3,6.7,3.2,9.7,5.8c3.1,2.6,5.8,6,7.7,10.3
			c1.3,2.9,2.2,6.2,2.6,9.9c0,0.2,0,0.5-0.2,0.6c-0.1,0.1-0.2,0.1-0.2,0.2l-9.8,3.7"/>
		<path class="st9" d="M325.6,483c0.8-0.3,2.9-0.9,3.6-1.4c0.5-0.3,1-0.6,1.5-1c0,0,0.1-0.1,0.1-0.1c3.2-2.5,5.3-6.5,5.4-11.2l0-0.1
			l0.4-18.9l0-0.1c0.1-4.7-1.8-9.3-4.9-12.9c-3.1-3.6-7.4-6.2-12.2-6.9l0.1,0c-3.1-0.5-6-0.2-8.5,0.7l-11.7,4.6"/>
		<path class="st10" d="M295.2,481.3c0,0-4.5,0.4-7,1.3c-0.6,0.2-1.5,0.6-2.5,0.9c-4.3,1.6-9.1,3.8-12.4,6.7l-2.2,2.3"/>
	</g>
</g>
</svg>
