<?xml version="1.0" encoding="utf-8"?>
<!-- Generator: Adobe Illustrator 19.1.0, SVG Export Plug-In . SVG Version: 6.00 Build 0)  -->
<svg version="1.1" id="Layer_1" xmlns="http://www.w3.org/2000/svg" xmlns:xlink="http://www.w3.org/1999/xlink" x="0px" y="0px"
	 viewBox="0 0 360.1 521.1" style="enable-background:new 0 0 360.1 521.1;" xml:space="preserve">
<style type="text/css">
	.st0{fill:none;stroke:#FFFFFF;stroke-miterlimit:10;}
	.st1{fill:#FFFFFF;}
	.st2{fill:#C88896;}
	.st3{fill:#DEC535;}
	.st4{fill:#EED039;}
	.st5{fill:#251549;}
	.st6{fill:none;stroke:#251549;stroke-width:2;stroke-linecap:round;stroke-linejoin:round;stroke-miterlimit:10;}
	.st7{fill:none;stroke:#211648;stroke-width:2;stroke-miterlimit:10;}
	.st8{fill:none;stroke:#211648;stroke-width:2;stroke-linecap:round;stroke-linejoin:round;stroke-miterlimit:10;}
	.st9{fill:#DFC634;}
	.st10{fill:none;stroke:#251549;stroke-width:1.75;stroke-linecap:round;stroke-linejoin:round;stroke-miterlimit:10;}
</style>
<g>
	<g>
		<g>
			<line class="st0" x1="49.4" y1="110.7" x2="49.4" y2="393.7"/>
			<g>
				<polygon class="st1" points="46.1,391.5 46.6,391 48.9,393.5 51.3,391 51.8,391.5 48.9,394.5 				"/>
			</g>
		</g>
	</g>
	<g>
		<g>
			<line class="st0" x1="115.6" y1="310" x2="245.1" y2="180.6"/>
			<g>
				<polygon class="st1" points="119.3,310.4 119.3,309.7 115.8,309.8 115.9,306.4 115.2,306.4 115.1,310.6 				"/>
			</g>
			<g>
				<polygon class="st1" points="245.5,184.2 244.8,184.2 244.9,180.8 241.4,180.9 241.4,180.2 245.6,180 				"/>
			</g>
		</g>
	</g>
	<g>
		<g>
			<line class="st0" x1="245.1" y1="310" x2="115.6" y2="180.6"/>
			<g>
				<polygon class="st1" points="245.5,306.4 244.8,306.4 244.9,309.8 241.4,309.7 241.4,310.4 245.6,310.6 				"/>
			</g>
			<g>
				<polygon class="st1" points="119.3,180.2 119.3,180.9 115.8,180.8 115.9,184.2 115.2,184.2 115.1,180 				"/>
			</g>
		</g>
	</g>
	<g>
		<g>
			<g>
				<path class="st2" d="M83,61.7l-9.9-4c0.7,0.3,1.4,0.6,2.1,1c3,1.6,5.6,4,7.5,7.5c1.1,2.1,2,4.7,2.5,7.8l9.9,4
					c-0.5-3.1-1.4-5.6-2.5-7.8c-1.9-3.5-4.5-5.9-7.5-7.5C84.4,62.3,83.7,62,83,61.7z"/>
			</g>
			<g>
				<path class="st3" d="M83,61.7l-9.9-4c-2.4-1-5-1.5-7.5-1.8c-2.7-0.3-5.2-0.5-7.1-0.6c-0.9-0.1-1.7-0.1-2.2-0.1
					c-0.3,0-0.5,0-0.6,0l9.9,4c0.1,0,0.3,0,0.6,0c0.5,0,1.3,0.1,2.2,0.1c1.8,0.1,4.4,0.3,7.1,0.6C78,60.2,80.6,60.7,83,61.7z"/>
			</g>
			<g>
				<path class="st2" d="M83.6,60.1l-9.9-4c-2.5-1-5.2-1.6-7.8-1.9c-4.3-0.4-8.1-0.6-9.6-0.7l9.9,4c1.5,0.1,5.3,0.3,9.6,0.7
					C78.4,58.5,81.1,59,83.6,60.1z"/>
			</g>
			<g>
				<path class="st3" d="M55.3,55.2l9.9,4c0.1,0,0.1,0,0.2,0c0,0,0.1,0,0.2,0l-9.9-4c-0.1,0-0.2,0-0.2,0
					C55.4,55.2,55.4,55.2,55.3,55.2z"/>
			</g>
			<g>
				<path class="st2" d="M55.3,55.2l9.9,4c-0.3-0.1-0.4-0.4-0.4-0.7l-9.9-4C54.9,54.8,55,55.1,55.3,55.2z"/>
			</g>
			<g>
				<path class="st2" d="M56.4,48.5c-0.5,0.5-1,1-1.5,1.5l9.9,4c0.5-0.5,1-1,1.5-1.5C63.3,51.2,59.3,49.7,56.4,48.5z"/>
			</g>
			<g>
				<polygon class="st2" points="64.8,53.9 54.9,49.9 54.9,54.5 64.8,58.4 				"/>
			</g>
			<g>
				<polygon class="st2" points="70.2,20.6 60.3,16.7 60.3,35.6 70.2,39.6 				"/>
			</g>
			<g>
				<path class="st3" d="M54.9,49.9c-3,2.7-6.7,4.5-10.8,5.1c3.3,1.3,6.6,2.6,9.9,4c4.1-0.6,7.8-2.4,10.8-5.1
					C61.8,52.7,57.9,51.1,54.9,49.9z"/>
			</g>
			<g>
				<path class="st3" d="M44.1,55c-3.1,0.4-6,0.1-8.5-0.9l9.9,4c2.5,1,5.4,1.4,8.5,0.9c-0.3-0.1-0.8-0.3-1.2-0.5
					c-0.4-0.1-0.9-0.3-1.2-0.5c-0.4-0.2-0.9-0.4-1.3-0.5c-0.4-0.2-0.9-0.4-1.3-0.5c-0.4-0.2-0.9-0.4-1.3-0.5
					c-0.2-0.1-0.4-0.2-0.6-0.3c-0.4-0.2-0.9-0.4-1.3-0.5c-0.4-0.1-0.8-0.3-1.2-0.5C44.5,55.2,44.3,55,44.1,55z"/>
			</g>
			<g>
				<path class="st2" d="M36.2,52.5l9.9,4c2.3,0.9,5,1.3,7.9,0.9c4.5-0.6,8.5-3,11.4-6.2c2.9-3.2,4.7-7.3,4.7-11.5l-9.9-4
					c0,4.2-1.8,8.3-4.7,11.5c-2.9,3.2-7,5.5-11.4,6.2C41.2,53.7,38.5,53.4,36.2,52.5z"/>
			</g>
			<g>
				<polygon class="st3" points="38,25.2 28.1,21.2 28,40.2 37.9,44.1 				"/>
			</g>
			<g>
				<path class="st2" d="M36.2,52.5l9.9,4c-1.3-0.5-2.5-1.2-3.5-2.1c-2.9-2.4-4.7-6-4.6-10.2l-9.9-4c0,4.2,1.7,7.8,4.6,10.2
					C33.7,51.2,34.9,52,36.2,52.5z"/>
			</g>
			<g>
				<polygon class="st3" points="43.2,56.9 33.3,53 33.3,57.5 43.2,61.5 				"/>
			</g>
			<g>
				<path class="st2" d="M62,8.3l-9.9-4c1.3,0.5,2.5,1.2,3.5,2.1c2.9,2.4,4.7,6,4.6,10.2l9.9,4c0-4.2-1.7-7.8-4.6-10.2
					C64.5,9.5,63.3,8.8,62,8.3z"/>
			</g>
			<g>
				<path class="st3" d="M52.1,4.3c-2.3-0.9-5-1.3-7.9-0.9l9.9,4C57,7,59.7,7.4,62,8.3C59.1,7.1,55.1,5.5,52.1,4.3z"/>
			</g>
			<g>
				<path class="st3" d="M44.2,3.5c-4.5,0.6-8.5,3-11.4,6.2c3.3,1.3,6.6,2.6,9.9,4c2.9-3.2,7-5.5,11.4-6.2
					C51.2,6.3,47.4,3.9,44.2,3.5z"/>
			</g>
			<g>
				<path class="st3" d="M43.2,61.5l-9.9-4c0,0.4-0.3,0.8-0.6,0.9c0,0-0.1,0-0.2,0.1c-1,0.3-5.2,1.7-9.9,3.5
					c-4.4,1.7-8.9,4.2-12.5,8.1c-1.8,2-3.4,4.3-4.7,7c-1.2,2.5-2,5.3-2.6,8.5l9.9,4c0.5-3.2,1.4-6,2.6-8.5c1.3-2.7,2.9-5,4.7-7
					c3.6-3.9,8.2-6.5,12.5-8.1c4.7-1.8,8.9-3.2,9.9-3.5c0.1,0,0.2-0.1,0.2-0.1C43,62.3,43.2,61.9,43.2,61.5z"/>
			</g>
			<g>
				<polygon class="st3" points="38,25.2 28.1,21.2 27.4,21.3 37.3,25.3 				"/>
			</g>
			<g>
				<polygon class="st2" points="38,25.2 28.1,21.2 27.4,21.3 37.3,25.3 				"/>
			</g>
			<g>
				<polygon class="st2" points="37.3,25.3 27.4,21.3 26.6,21.4 36.5,25.4 				"/>
			</g>
			<g>
				<path class="st3" d="M32.8,9.7c-2.9,3.2-4.7,7.3-4.7,11.5l9.9,4c0-4.2,1.8-8.3,4.7-11.5c-0.3-0.1-0.8-0.3-1.2-0.5
					c-0.4-0.1-0.9-0.3-1.2-0.5c-0.9-0.3-1.7-0.7-2.6-1c-0.4-0.2-0.9-0.4-1.3-0.5c-0.4-0.2-0.9-0.4-1.3-0.5c-0.4-0.1-0.9-0.3-1.2-0.5
					C33.6,10,33.1,9.8,32.8,9.7z"/>
			</g>
			<g>
				<path class="st2" d="M41.8,55.9l0,5.1c-1.5,0.5-5.3,1.7-9.6,3.4c-3.4,1.3-6.9,3.1-10.1,5.7c-3.2,2.6-6.1,6-8.1,10.3
					c-1.4,2.9-2.4,6.3-2.9,10.1c0,0.2,0,0.5,0.2,0.6c0.1,0.2,0.3,0.2,0.6,0.2l42.1-5.9L96,79.5c0.2,0,0.4-0.2,0.6-0.4
					c0.1-0.2,0.2-0.5,0.2-0.7c-0.5-3.7-1.5-6.7-2.8-9.3c-1.4-2.5-3.1-4.5-5-6.1c-3.9-3.1-8.6-4.4-13.1-4.9c-4.3-0.4-8.1-0.6-9.6-0.7
					l0-5.1c-0.5,0.5-1,1-1.5,1.5l0,4.5c0,0.4,0.3,0.7,0.6,0.7c0,0,0.1,0,0.2,0c0.1,0,0.3,0,0.6,0c0.5,0,1.3,0.1,2.2,0.1
					c1.8,0.1,4.4,0.3,7.1,0.6c3.3,0.3,6.6,1.1,9.6,2.8c3,1.6,5.6,4,7.5,7.5c1.1,2.1,2,4.7,2.5,7.8l-41.2,5.8l-41.2,5.8
					c0.5-3.2,1.4-6,2.6-8.5c1.3-2.7,2.9-5,4.7-7c3.6-3.9,8.2-6.5,12.5-8.1c4.7-1.8,8.9-3.2,9.9-3.5c0.1,0,0.2-0.1,0.2-0.1
					c0.4-0.1,0.6-0.5,0.6-0.9l0-4.5C42.7,56.6,42.2,56.3,41.8,55.9z"/>
			</g>
			<g>
				<path class="st2" d="M54.1,5.8c-4.8,0.7-9.2,3.2-12.4,6.7c-3.2,3.5-5.2,8.1-5.2,12.9l0.7-0.1l0.7-0.1c0-4.2,1.8-8.3,4.7-11.5
					c2.9-3.2,7-5.5,11.4-6.2c4.5-0.6,8.5,0.6,11.4,3c2.9,2.4,4.7,6,4.6,10.2l-0.1,19c0,4.2-1.8,8.3-4.7,11.5
					c-2.9,3.2-7,5.5-11.4,6.2c-4.5,0.6-8.5-0.6-11.4-3c-2.9-2.4-4.7-6-4.6-10.2l0.1-19l-0.7,0.1l-0.7,0.1l-0.1,19
					c0,4.8,2,8.8,5.2,11.4c0,0,0.1,0.1,0.1,0.1c0.5,0.4,1,0.7,1.5,1c3,1.8,6.7,2.6,10.8,2.1c4.1-0.6,7.8-2.4,10.8-5.1
					c0.5-0.5,1-1,1.5-1.5c0,0,0.1-0.1,0.1-0.1c3.2-3.5,5.2-8.1,5.2-12.9l0.1-19c0-4.8-2-8.8-5.2-11.4C63.3,6.4,59,5.1,54.1,5.8z"/>
			</g>
			<g>
				<g>
					<polygon class="st2" points="36.5,25.4 26.6,21.4 26.6,40.4 36.5,44.3 					"/>
				</g>
				<g>
					<path class="st2" d="M35.6,54.1l9.9,4c-0.8-0.3-1.5-0.7-2.2-1.1c-0.5-0.3-1-0.7-1.5-1c0,0-0.1-0.1-0.1-0.1
						c-3.2-2.6-5.2-6.7-5.2-11.4l-9.9-4c0,4.8,2,8.8,5.2,11.4c0,0,0.1,0.1,0.1,0.1c0.5,0.4,1,0.7,1.5,1C34,53.4,34.8,53.8,35.6,54.1
						z"/>
				</g>
				<g>
					<polygon class="st2" points="41.8,55.9 31.9,51.9 31.8,57 41.7,61 					"/>
				</g>
				<g>
					<path class="st2" d="M62.7,6.7l-9.9-4c-2.5-1-5.4-1.4-8.5-0.9l9.9,4C57.2,5.3,60.1,5.7,62.7,6.7z"/>
				</g>
				<g>
					<path class="st2" d="M1.6,87.3l9.9,4c-0.1,0-0.2-0.1-0.2-0.2c-0.1-0.2-0.2-0.4-0.2-0.6c0.5-3.8,1.5-7.2,2.9-10.1
						c2.1-4.4,4.9-7.7,8.1-10.3c3.2-2.6,6.7-4.4,10.1-5.7c4.3-1.6,8.1-2.9,9.6-3.4l-9.9-4c-1.5,0.5-5.3,1.7-9.6,3.4
						c-3.4,1.3-6.9,3.1-10.1,5.7c-3.2,2.6-6.1,6-8.1,10.3c-1.4,2.9-2.4,6.3-2.9,10.1c0,0.2,0,0.5,0.2,0.6
						C1.4,87.2,1.5,87.3,1.6,87.3z"/>
				</g>
				<g>
					<path class="st2" d="M54.1,5.8l-9.9-4C39.4,2.5,35,5,31.8,8.5c-3.2,3.5-5.2,8.1-5.2,12.9l9.9,4c0-4.8,2-9.4,5.2-12.9
						C44.9,8.9,49.3,6.4,54.1,5.8z"/>
				</g>
			</g>
			<g>
				<g>
					<path class="st4" d="M12.7,90.5c-0.3,0-0.5-0.1-0.7-0.3c-0.2-0.2-0.3-0.5-0.3-0.9c0.5-3.2,1.4-6.1,2.6-8.7
						c1.3-2.7,2.9-5.1,4.9-7.2c3.3-3.6,7.7-6.4,12.9-8.4c4.9-1.9,9.1-3.3,10-3.5c0.1,0,0.1,0,0.1,0l0-5.5c0-0.4,0.2-0.7,0.5-0.9
						c0.2-0.1,0.3-0.1,0.5-0.1c0.2,0,0.4,0,0.5,0.1c2.1,1.3,5.2,3,8.7,3c0.5,0,1,0,1.5-0.1c4-0.6,7.8-3.6,10.3-5.8
						c0.2-0.2,0.4-0.3,0.7-0.3c0.1,0,0.3,0,0.4,0.1c0.4,0.2,0.6,0.5,0.6,0.9l0,5.3c0.1,0,0.3,0,0.5,0c0.5,0,1.3,0.1,2.2,0.1
						c2.5,0.2,4.9,0.3,7.1,0.6c3.8,0.4,7.2,1.4,10,2.9c3.4,1.8,6.1,4.5,7.9,7.9c1.2,2.3,2.1,5,2.6,8.1c0,0.3,0,0.5-0.2,0.8
						c-0.2,0.2-0.4,0.4-0.7,0.4L12.8,90.5C12.8,90.5,12.7,90.5,12.7,90.5z"/>
					<path class="st5" d="M64.8,52.9L64.8,52.9 M64.8,52.9l0,5.5c0,0.4,0.3,0.7,0.6,0.7c0,0,0.1,0,0.2,0c0.1,0,0.3,0,0.6,0
						c0.5,0,1.3,0.1,2.2,0.1c1.8,0.1,4.4,0.3,7.1,0.6c3.3,0.3,6.6,1.1,9.6,2.8c3,1.6,5.6,4,7.5,7.5c1.1,2.1,2,4.7,2.5,7.8l-41.2,5.8
						l-41.2,5.8c0.5-3.2,1.4-6,2.6-8.5c1.3-2.7,2.9-5,4.7-7c3.6-3.9,8.2-6.5,12.5-8.1c4.7-1.8,8.9-3.2,9.9-3.5
						c0.1,0,0.2-0.1,0.2-0.1c0.4-0.1,0.6-0.5,0.6-0.9l0-5.5c2.6,1.6,5.7,3.1,9.2,3.1c0.5,0,1.1,0,1.6-0.1
						C58.1,58.4,61.8,55.6,64.8,52.9 M64.8,50.9C64.8,50.9,64.7,50.9,64.8,50.9c-0.6,0-1,0.2-1.3,0.5c-2.4,2.1-6,5.1-9.7,5.6
						c-0.4,0.1-0.9,0.1-1.3,0.1c-3.2,0-6.2-1.6-8.1-2.8c-0.3-0.2-0.7-0.3-1-0.3c-0.3,0-0.7,0.1-1,0.3c-0.6,0.4-1,1-1,1.7l0,4.7
						c-1.5,0.5-5.2,1.7-9.5,3.4c-5.4,2.1-9.8,5-13.3,8.7c-2.1,2.2-3.8,4.7-5.1,7.5c-1.3,2.7-2.2,5.8-2.7,9c-0.1,0.6,0.1,1.3,0.5,1.7
						c0.4,0.4,0.9,0.6,1.4,0.6c0.1,0,0.2,0,0.3,0l41.2-5.8l41.2-5.8c0.5-0.1,1-0.4,1.3-0.8c0.3-0.4,0.5-1,0.4-1.5
						c-0.5-3.1-1.4-6-2.7-8.4c-1.9-3.6-4.7-6.4-8.4-8.3c-2.9-1.6-6.4-2.6-10.4-3c-2.2-0.2-4.6-0.4-7.2-0.6c-0.7,0-1.3-0.1-1.8-0.1
						l0-4.2c0,0,0-0.1,0-0.1C66.8,51.8,65.9,50.9,64.8,50.9C64.8,50.9,64.8,50.9,64.8,50.9L64.8,50.9z"/>
				</g>
			</g>
			<g>
				<g>
					<path class="st4" d="M51.7,58.5c-3.6,0-7.1-1.2-9.7-3.4c-3.2-2.7-5-6.6-5-11l0.1-19c0-4.3,1.8-8.7,5-12.2
						c3.2-3.5,7.5-5.9,12-6.5c0.8-0.1,1.7-0.2,2.5-0.2c3.6,0,7.1,1.2,9.7,3.4c3.2,2.7,5,6.6,5,11l-0.1,19c0,4.3-1.8,8.7-5,12.2
						c-3.2,3.5-7.5,5.9-12,6.5C53.3,58.4,52.5,58.5,51.7,58.5z"/>
					<path class="st5" d="M56.5,7.3c3.5,0,6.7,1.2,9.1,3.1c2.9,2.4,4.7,6,4.6,10.2l-0.1,19c0,4.2-1.8,8.3-4.7,11.5
						c-2.9,3.2-7,5.5-11.4,6.2c-0.8,0.1-1.6,0.2-2.3,0.2c-3.5,0-6.7-1.2-9.1-3.1c-2.9-2.4-4.7-6-4.6-10.2l0.1-19
						c0-4.2,1.8-8.3,4.7-11.5c2.9-3.2,7-5.5,11.4-6.2C54.9,7.3,55.7,7.3,56.5,7.3 M56.5,5.3c-0.9,0-1.7,0.1-2.6,0.2
						c-4.8,0.7-9.3,3.1-12.6,6.8C37.9,16,36,20.6,36,25.1l-0.1,19c0,4.7,1.9,8.9,5.4,11.8c2.8,2.3,6.5,3.6,10.3,3.6
						c0.9,0,1.7-0.1,2.6-0.2c4.8-0.7,9.3-3.1,12.6-6.8c3.4-3.7,5.2-8.3,5.2-12.9l0.1-19c0-4.7-1.9-8.9-5.4-11.8
						C64,6.5,60.4,5.3,56.5,5.3L56.5,5.3z"/>
				</g>
			</g>
			<polyline class="st6" points="41.4,55.9 31.5,52 31.5,57.1 			"/>
			<path class="st6" d="M40.7,60.9L31,57.1c-1.4,0.5-5.2,1.7-9.4,3.3c-3.3,1.3-6.7,3.1-9.9,5.6c-3.1,2.5-5.9,5.8-7.9,10.1
				c-1.3,2.8-2.3,6.1-2.8,9.8c0,0.2,0,0.5,0.2,0.6c0.1,0.1,0.1,0.1,0.2,0.2l9.7,3.9"/>
			<path class="st7" d="M36.6,54.1c-0.8-0.3-2.9-1-3.6-1.4c-0.5-0.3-1-0.7-1.5-1c0,0-0.1-0.1-0.1-0.1c-3.2-2.6-5.1-6.6-5.1-11.4
				v-0.1l0.1-18.9v-0.1c0-4.7,2-9.3,5.2-12.8c3.2-3.5,7.5-6,12.3-6.7l-0.1,0c3.1-0.4,6-0.1,8.5,0.9l11.6,4.8"/>
			<path class="st8" d="M67.1,53c0,0,4.5,0.5,6.9,1.4c0.6,0.2,1.5,0.6,2.5,1c4.2,1.7,9.1,4.1,12.2,6.9l2.1,2.4"/>
		</g>
		<g>
			<g>
				<path class="st2" d="M124.3,6.9l-15.3-6.1c-0.1,0-0.2-0.1-0.3,0L124,6.9C124.1,6.9,124.2,6.9,124.3,6.9z"/>
			</g>
			<g>
				<polygon class="st2" points="123.2,8.6 107.9,2.5 107.8,31.8 123.1,38 				"/>
			</g>
			<g>
				<polygon class="st3" points="97.3,12.3 82,6.1 81.9,35.5 97.2,41.6 				"/>
			</g>
			<g>
				<polygon class="st2" points="123.1,38 107.8,31.8 81.9,35.5 97.2,41.6 				"/>
			</g>
			<g>
				<path class="st2" d="M80.9,37.2l15.3,6.1c-0.1,0-0.1-0.1-0.2-0.1c-0.1-0.1-0.2-0.3-0.2-0.5l-15.3-6.1c0,0.2,0.1,0.4,0.2,0.5
					C80.7,37.1,80.8,37.1,80.9,37.2z"/>
			</g>
			<g>
				<polygon class="st3" points="123.2,8.6 107.9,2.5 82,6.1 97.3,12.3 				"/>
			</g>
			<g>
				<polygon class="st2" points="124,6.9 108.1,1.4 81.3,4.6 96.6,10.7 				"/>
			</g>
			<g>
				<polygon class="st2" points="95.9,11.7 80.5,5.5 80.4,36.5 95.8,42.6 				"/>
			</g>
			<g>
				<path class="st2" d="M96.6,10.7L81.3,4.6c-0.2,0-0.4,0.1-0.5,0.3l15.3,6.1C96.2,10.9,96.4,10.8,96.6,10.7z"/>
			</g>
			<g>
				<path class="st2" d="M96.1,11.1L80.7,4.9c-0.1,0.2-0.2,0.4-0.2,0.6l15.3,6.1C95.9,11.4,96,11.2,96.1,11.1z"/>
			</g>
			<g>
				<path class="st2" d="M96.6,10.7L124,6.9c0.2,0,0.4,0,0.5,0.2c0.1,0.1,0.2,0.3,0.2,0.5l-0.1,31c0,0.2-0.1,0.4-0.2,0.6
					c-0.1,0.2-0.3,0.3-0.5,0.3l-27.3,3.8c-0.2,0-0.4,0-0.5-0.2s-0.2-0.3-0.2-0.5l0.1-31c0-0.2,0.1-0.4,0.2-0.6
					C96.2,10.9,96.4,10.8,96.6,10.7z M97.2,41.6l25.9-3.6l0.1-29.3l-25.9,3.6L97.2,41.6"/>
			</g>
			<g>
				<g>
					<path class="st9" d="M97.2,42.5c-0.2,0-0.4-0.1-0.6-0.2c-0.2-0.2-0.3-0.4-0.3-0.7l0.1-29.3c0-0.4,0.3-0.8,0.8-0.9l25.9-3.6
						c0,0,0.1,0,0.1,0c0.2,0,0.4,0.1,0.6,0.2c0.2,0.2,0.3,0.4,0.3,0.7L124,38c0,0.4-0.3,0.8-0.8,0.9l-25.9,3.6
						C97.3,42.5,97.3,42.5,97.2,42.5z"/>
					<path class="st5" d="M123.2,8.6L123.2,8.6 M123.2,8.6L123.1,38l-25.9,3.6l0.1-29.3L123.2,8.6 M123.2,6.9
						C123.2,6.9,123.2,6.9,123.2,6.9c-0.1,0-0.2,0-0.3,0l-25.9,3.6c-0.9,0.1-1.5,0.9-1.5,1.7l-0.1,29.3c0,0.5,0.2,1,0.6,1.3
						c0.3,0.3,0.7,0.4,1.1,0.4c0.1,0,0.2,0,0.2,0l25.9-3.6c0.9-0.1,1.5-0.9,1.5-1.7L125,8.7c0,0,0-0.1,0-0.1
						C125,7.7,124.2,6.9,123.2,6.9C123.2,6.9,123.2,6.9,123.2,6.9L123.2,6.9z"/>
				</g>
			</g>
			<polyline class="st10" points="123.8,7.4 107.3,0.9 81.3,4.6 81.5,36.6 96.6,42.7 			"/>
			<line class="st10" x1="96.6" y1="11.4" x2="82.6" y2="5.9"/>
		</g>
	</g>
	<g>
		<g>
			<g>
				<path class="st2" d="M277.1,61.7l9.9-4c-0.7,0.3-1.4,0.6-2.1,1c-3,1.6-5.6,4-7.5,7.5c-1.1,2.1-2,4.7-2.5,7.8l-9.9,4
					c0.5-3.1,1.4-5.6,2.5-7.8c1.9-3.5,4.5-5.9,7.5-7.5C275.7,62.3,276.4,62,277.1,61.7z"/>
			</g>
			<g>
				<path class="st3" d="M277.1,61.7l9.9-4c2.4-1,5-1.5,7.5-1.8c2.7-0.3,5.2-0.5,7.1-0.6c0.9-0.1,1.7-0.1,2.2-0.1c0.3,0,0.5,0,0.6,0
					l-9.9,4c-0.1,0-0.3,0-0.6,0c-0.5,0-1.3,0.1-2.2,0.1c-1.8,0.1-4.4,0.3-7.1,0.6C282.1,60.2,279.5,60.7,277.1,61.7z"/>
			</g>
			<g>
				<path class="st2" d="M276.5,60.1l9.9-4c2.5-1,5.2-1.6,7.8-1.9c4.3-0.4,8.1-0.6,9.6-0.7l-9.9,4c-1.5,0.1-5.3,0.3-9.6,0.7
					C281.7,58.5,279,59,276.5,60.1z"/>
			</g>
			<g>
				<path class="st3" d="M304.8,55.2l-9.9,4c-0.1,0-0.1,0-0.2,0c0,0-0.1,0-0.2,0l9.9-4c0.1,0,0.2,0,0.2,0
					C304.7,55.2,304.8,55.2,304.8,55.2z"/>
			</g>
			<g>
				<path class="st2" d="M304.8,55.2l-9.9,4c0.3-0.1,0.4-0.4,0.4-0.7l9.9-4C305.2,54.8,305.1,55.1,304.8,55.2z"/>
			</g>
			<g>
				<path class="st2" d="M303.7,48.5c0.5,0.5,1,1,1.5,1.5l-9.9,4c-0.5-0.5-1-1-1.5-1.5C296.8,51.2,300.8,49.7,303.7,48.5z"/>
			</g>
			<g>
				<polygon class="st2" points="295.3,53.9 305.2,49.9 305.2,54.5 295.3,58.4 				"/>
			</g>
			<g>
				<polygon class="st2" points="289.9,20.6 299.8,16.7 299.9,35.6 290,39.6 				"/>
			</g>
			<g>
				<path class="st3" d="M305.2,49.9c3,2.7,6.7,4.5,10.8,5.1c-3.3,1.3-6.6,2.6-9.9,4c-4.1-0.6-7.8-2.4-10.8-5.1
					C298.3,52.7,302.3,51.1,305.2,49.9z"/>
			</g>
			<g>
				<path class="st3" d="M316,55c3.1,0.4,6,0.1,8.5-0.9l-9.9,4c-2.5,1-5.4,1.4-8.5,0.9c0.3-0.1,0.8-0.3,1.2-0.5
					c0.4-0.1,0.9-0.3,1.2-0.5c0.4-0.2,0.9-0.4,1.3-0.5c0.4-0.2,0.9-0.4,1.3-0.5c0.4-0.2,0.9-0.4,1.3-0.5c0.2-0.1,0.4-0.2,0.6-0.3
					c0.4-0.2,0.9-0.4,1.3-0.5c0.4-0.1,0.8-0.3,1.2-0.5C315.6,55.2,315.8,55,316,55z"/>
			</g>
			<g>
				<path class="st2" d="M323.9,52.5l-9.9,4c-2.3,0.9-5,1.3-7.9,0.9c-4.5-0.6-8.5-3-11.4-6.2c-2.9-3.2-4.7-7.3-4.7-11.5l9.9-4
					c0,4.2,1.8,8.3,4.7,11.5c2.9,3.2,7,5.5,11.4,6.2C318.9,53.7,321.6,53.4,323.9,52.5z"/>
			</g>
			<g>
				<polygon class="st3" points="322.1,25.2 332,21.2 332.1,40.2 322.2,44.1 				"/>
			</g>
			<g>
				<path class="st2" d="M323.9,52.5l-9.9,4c1.3-0.5,2.5-1.2,3.5-2.1c2.9-2.4,4.7-6,4.6-10.2l9.9-4c0,4.2-1.7,7.8-4.6,10.2
					C326.4,51.2,325.2,52,323.9,52.5z"/>
			</g>
			<g>
				<polygon class="st3" points="316.9,56.9 326.8,53 326.8,57.5 316.9,61.5 				"/>
			</g>
			<g>
				<path class="st2" d="M298.1,8.3l9.9-4c-1.3,0.5-2.5,1.2-3.5,2.1c-2.9,2.4-4.7,6-4.6,10.2l-9.9,4c0-4.2,1.7-7.8,4.6-10.2
					C295.6,9.5,296.8,8.8,298.1,8.3z"/>
			</g>
			<g>
				<path class="st3" d="M308,4.3c2.3-0.9,5-1.3,7.9-0.9l-9.9,4c-2.9-0.4-5.6-0.1-7.9,0.9C301.1,7.1,305,5.5,308,4.3z"/>
			</g>
			<g>
				<path class="st3" d="M315.9,3.5c4.5,0.6,8.5,3,11.4,6.2c-3.3,1.3-6.6,2.6-9.9,4c-2.9-3.2-7-5.5-11.4-6.2
					C308.9,6.3,312.7,3.9,315.9,3.5z"/>
			</g>
			<g>
				<path class="st3" d="M316.9,61.5l9.9-4c0,0.4,0.3,0.8,0.6,0.9c0,0,0.1,0,0.2,0.1c1,0.3,5.2,1.7,9.9,3.5
					c4.4,1.7,8.9,4.2,12.5,8.1c1.8,2,3.4,4.3,4.7,7c1.2,2.5,2,5.3,2.6,8.5l-9.9,4c-0.5-3.2-1.4-6-2.6-8.5c-1.3-2.7-2.9-5-4.7-7
					c-3.6-3.9-8.2-6.5-12.5-8.1c-4.7-1.8-8.9-3.2-9.9-3.5c-0.1,0-0.2-0.1-0.2-0.1C317.2,62.3,316.9,61.9,316.9,61.5z"/>
			</g>
			<g>
				<polygon class="st3" points="322.1,25.2 332,21.2 332.8,21.3 322.9,25.3 				"/>
			</g>
			<g>
				<polygon class="st2" points="322.1,25.2 332,21.2 332.8,21.3 322.9,25.3 				"/>
			</g>
			<g>
				<polygon class="st2" points="322.9,25.3 332.8,21.3 333.5,21.4 323.6,25.4 				"/>
			</g>
			<g>
				<path class="st3" d="M327.3,9.7c2.9,3.2,4.7,7.3,4.7,11.5l-9.9,4c0-4.2-1.8-8.3-4.7-11.5c0.3-0.1,0.8-0.3,1.2-0.5
					c0.4-0.1,0.9-0.3,1.2-0.5c0.9-0.3,1.7-0.7,2.6-1c0.4-0.2,0.9-0.4,1.3-0.5c0.4-0.2,0.9-0.4,1.3-0.5c0.4-0.1,0.9-0.3,1.2-0.5
					C326.5,10,327,9.8,327.3,9.7z"/>
			</g>
			<g>
				<path class="st2" d="M318.4,55.9l0,5.1c1.5,0.5,5.3,1.7,9.6,3.4c3.4,1.3,6.9,3.1,10.1,5.7c3.2,2.6,6.1,6,8.1,10.3
					c1.4,2.9,2.4,6.3,2.9,10.1c0,0.2,0,0.5-0.2,0.6c-0.1,0.2-0.3,0.2-0.6,0.2l-42.1-5.9l-42.1-5.9c-0.2,0-0.4-0.2-0.6-0.4
					c-0.1-0.2-0.2-0.5-0.2-0.7c0.5-3.7,1.5-6.7,2.8-9.3c1.4-2.5,3.1-4.5,5-6.1c3.9-3.1,8.6-4.4,13.1-4.9c4.3-0.4,8.1-0.6,9.6-0.7
					l0-5.1c0.5,0.5,1,1,1.5,1.5l0,4.5c0,0.4-0.3,0.7-0.6,0.7c0,0-0.1,0-0.2,0c-0.1,0-0.3,0-0.6,0c-0.5,0-1.3,0.1-2.2,0.1
					c-1.8,0.1-4.4,0.3-7.1,0.6c-3.3,0.3-6.6,1.1-9.6,2.8c-3,1.6-5.6,4-7.5,7.5c-1.1,2.1-2,4.7-2.5,7.8l41.2,5.8l41.2,5.8
					c-0.5-3.2-1.4-6-2.6-8.5c-1.3-2.7-2.9-5-4.7-7c-3.6-3.9-8.2-6.5-12.5-8.1c-4.7-1.8-8.9-3.2-9.9-3.5c-0.1,0-0.2-0.1-0.2-0.1
					c-0.4-0.1-0.6-0.5-0.6-0.9l0-4.5C317.4,56.6,317.9,56.3,318.4,55.9z"/>
			</g>
			<g>
				<path class="st2" d="M306,5.8c4.8,0.7,9.2,3.2,12.4,6.7c3.2,3.5,5.2,8.1,5.2,12.9l-0.7-0.1l-0.7-0.1c0-4.2-1.8-8.3-4.7-11.5
					c-2.9-3.2-7-5.5-11.4-6.2c-4.5-0.6-8.5,0.6-11.4,3c-2.9,2.4-4.7,6-4.6,10.2l0.1,19c0,4.2,1.8,8.3,4.7,11.5
					c2.9,3.2,7,5.5,11.4,6.2c4.5,0.6,8.5-0.6,11.4-3c2.9-2.4,4.7-6,4.6-10.2l-0.1-19l0.7,0.1l0.7,0.1l0.1,19c0,4.8-2,8.8-5.2,11.4
					c0,0-0.1,0.1-0.1,0.1c-0.5,0.4-1,0.7-1.5,1c-3,1.8-6.7,2.6-10.8,2.1c-4.1-0.6-7.8-2.4-10.8-5.1c-0.5-0.5-1-1-1.5-1.5
					c0,0-0.1-0.1-0.1-0.1c-3.2-3.5-5.2-8.1-5.2-12.9l-0.1-19c0-4.8,2-8.8,5.2-11.4C296.8,6.4,301.1,5.1,306,5.8z"/>
			</g>
			<g>
				<g>
					<polygon class="st2" points="323.6,25.4 333.5,21.4 333.6,40.4 323.7,44.3 					"/>
				</g>
				<g>
					<path class="st2" d="M324.5,54.1l-9.9,4c0.8-0.3,1.5-0.7,2.2-1.1c0.5-0.3,1-0.7,1.5-1c0,0,0.1-0.1,0.1-0.1
						c3.2-2.6,5.2-6.7,5.2-11.4l9.9-4c0,4.8-2,8.8-5.2,11.4c0,0-0.1,0.1-0.1,0.1c-0.5,0.4-1,0.7-1.5,1
						C326.1,53.4,325.3,53.8,324.5,54.1z"/>
				</g>
				<g>
					<polygon class="st2" points="318.4,55.9 328.3,51.9 328.3,57 318.4,61 					"/>
				</g>
				<g>
					<path class="st2" d="M297.4,6.7l9.9-4c2.5-1,5.4-1.4,8.5-0.9l-9.9,4C302.9,5.3,300,5.7,297.4,6.7z"/>
				</g>
				<g>
					<path class="st2" d="M358.5,87.3l-9.9,4c0.1,0,0.2-0.1,0.2-0.2c0.1-0.2,0.2-0.4,0.2-0.6c-0.5-3.8-1.5-7.2-2.9-10.1
						c-2.1-4.4-4.9-7.7-8.1-10.3c-3.2-2.6-6.7-4.4-10.1-5.7c-4.3-1.6-8.1-2.9-9.6-3.4l9.9-4c1.5,0.5,5.3,1.7,9.6,3.4
						c3.4,1.3,6.9,3.1,10.1,5.7c3.2,2.6,6.1,6,8.1,10.3c1.4,2.9,2.4,6.3,2.9,10.1c0,0.2,0,0.5-0.2,0.6
						C358.7,87.2,358.6,87.3,358.5,87.3z"/>
				</g>
				<g>
					<path class="st2" d="M306,5.8l9.9-4c4.8,0.7,9.2,3.2,12.4,6.7c3.2,3.5,5.2,8.1,5.2,12.9l-9.9,4c0-4.8-2-9.4-5.2-12.9
						C315.2,8.9,310.8,6.4,306,5.8z"/>
				</g>
			</g>
			<g>
				<g>
					<path class="st4" d="M347.4,90.5c0,0-0.1,0-0.1,0l-82.5-11.6c-0.3,0-0.5-0.2-0.7-0.4c-0.2-0.2-0.2-0.5-0.2-0.8
						c0.5-3,1.4-5.8,2.6-8.1c1.8-3.4,4.5-6.1,7.9-7.9c2.8-1.5,6.2-2.5,10-2.9c2.2-0.2,4.6-0.4,7.1-0.6c0.9-0.1,1.7-0.1,2.2-0.1
						c0.2,0,0.4,0,0.5,0l0-5.3c0-0.4,0.2-0.8,0.6-0.9c0.1-0.1,0.3-0.1,0.4-0.1c0.2,0,0.5,0.1,0.7,0.3c2.5,2.2,6.3,5.3,10.3,5.8
						c0.5,0.1,1,0.1,1.5,0.1c3.5,0,6.6-1.7,8.7-3c0.2-0.1,0.3-0.1,0.5-0.1c0.2,0,0.3,0,0.5,0.1c0.3,0.2,0.5,0.5,0.5,0.9l0,5.5
						c0,0,0.1,0,0.2,0.1c0.8,0.3,5.1,1.6,9.9,3.5c5.2,2,9.6,4.8,12.9,8.4c2,2.1,3.6,4.6,4.9,7.2c1.2,2.6,2.1,5.6,2.6,8.7
						c0,0.3-0.1,0.6-0.3,0.9C347.9,90.4,347.7,90.5,347.4,90.5z"/>
					<path class="st5" d="M295.3,52.9c3,2.7,6.7,5.5,10.8,6.1c0.5,0.1,1.1,0.1,1.6,0.1c3.4,0,6.6-1.5,9.2-3.1l0,5.5
						c0,0.4,0.3,0.8,0.6,0.9c0,0,0.1,0,0.2,0.1c1,0.3,5.2,1.7,9.9,3.5c4.4,1.7,8.9,4.2,12.5,8.1c1.8,2,3.4,4.3,4.7,7
						c1.2,2.5,2,5.3,2.6,8.5l-41.2-5.8L265,78c0.5-3.1,1.4-5.6,2.5-7.8c1.9-3.5,4.5-5.9,7.5-7.5c3-1.6,6.4-2.4,9.6-2.8
						c2.7-0.3,5.2-0.5,7.1-0.6c0.9-0.1,1.7-0.1,2.2-0.1c0.3,0,0.5,0,0.6,0c0.1,0,0.2,0,0.2,0c0.4,0,0.6-0.3,0.6-0.7L295.3,52.9
						 M295.3,50.9c-0.3,0-0.6,0.1-0.8,0.2c-0.7,0.3-1.2,1-1.2,1.8l0,4.3c-0.5,0-1.1,0.1-1.8,0.1c-2.6,0.2-5,0.4-7.2,0.6
						c-3.9,0.4-7.4,1.4-10.4,3c-3.6,1.9-6.4,4.7-8.4,8.3c-1.3,2.4-2.2,5.2-2.7,8.4c-0.1,0.5,0,1.1,0.4,1.5c0.3,0.4,0.8,0.7,1.3,0.8
						l41.2,5.8l41.2,5.8c0.1,0,0.2,0,0.3,0c0.5,0,1-0.2,1.4-0.6c0.4-0.5,0.6-1.1,0.5-1.7c-0.5-3.2-1.4-6.3-2.7-9
						c-1.3-2.7-3-5.3-5.1-7.5c-3.4-3.7-7.9-6.6-13.3-8.7c-4.2-1.6-8-2.9-9.5-3.4l0-4.7c0-0.7-0.4-1.4-1-1.7c-0.3-0.2-0.6-0.3-1-0.3
						c-0.4,0-0.7,0.1-1,0.3c-2,1.2-4.9,2.8-8.1,2.8c-0.4,0-0.9,0-1.3-0.1c-3.7-0.5-7.3-3.4-9.7-5.6
						C296.3,51.1,295.8,50.9,295.3,50.9L295.3,50.9z"/>
				</g>
			</g>
			<g>
				<g>
					<path class="st4" d="M308.5,58.5c-0.8,0-1.7-0.1-2.5-0.2c-4.6-0.6-8.8-2.9-12-6.5c-3.2-3.5-5-7.9-5-12.2l-0.1-19
						c0-4.4,1.8-8.3,5-11c2.6-2.2,6.1-3.4,9.7-3.4c0.8,0,1.7,0.1,2.5,0.2c4.6,0.6,8.8,2.9,12,6.5c3.2,3.5,5,7.9,5,12.2l0.1,19
						c0,4.4-1.8,8.3-5,11C315.6,57.3,312.1,58.5,308.5,58.5z"/>
					<path class="st5" d="M303.6,7.3c0.8,0,1.6,0.1,2.3,0.2c4.5,0.6,8.5,3,11.4,6.2c2.9,3.2,4.7,7.3,4.7,11.5l0.1,19
						c0,4.2-1.7,7.8-4.6,10.2c-2.4,2-5.5,3.1-9.1,3.1c-0.8,0-1.6-0.1-2.3-0.2c-4.5-0.6-8.5-3-11.4-6.2c-2.9-3.2-4.7-7.3-4.7-11.5
						l-0.1-19c0-4.2,1.7-7.8,4.6-10.2C296.9,8.4,300.1,7.3,303.6,7.3 M303.6,5.3C303.6,5.3,303.6,5.3,303.6,5.3
						c-3.9,0-7.5,1.3-10.3,3.6c-3.5,2.9-5.4,7.1-5.4,11.8l0.1,19c0,4.6,1.9,9.2,5.2,12.9c3.4,3.7,7.9,6.1,12.6,6.8
						c0.9,0.1,1.8,0.2,2.6,0.2c3.9,0,7.5-1.3,10.3-3.6c3.5-2.9,5.4-7.1,5.4-11.8l-0.1-19c0-4.6-1.9-9.2-5.2-12.9
						c-3.4-3.7-7.9-6.1-12.6-6.8C305.4,5.3,304.5,5.3,303.6,5.3L303.6,5.3z"/>
				</g>
			</g>
			<polyline class="st6" points="318.8,55.9 328.6,52 328.7,57.1 			"/>
			<path class="st6" d="M319.5,60.9l9.7-3.9c1.4,0.5,5.2,1.7,9.4,3.3c3.3,1.3,6.7,3.1,9.9,5.6c3.1,2.5,5.9,5.8,7.9,10.1
				c1.3,2.8,2.3,6.1,2.8,9.8c0,0.2,0,0.5-0.2,0.6c-0.1,0.1-0.1,0.1-0.2,0.2l-9.7,3.9"/>
			<path class="st7" d="M323.5,54.1c0.8-0.3,2.9-1,3.6-1.4c0.5-0.3,1-0.7,1.5-1c0,0,0.1-0.1,0.1-0.1c3.2-2.6,5.1-6.6,5.1-11.4v-0.1
				l-0.1-18.9v-0.1c0-4.7-2-9.3-5.2-12.8c-3.2-3.5-7.5-6-12.3-6.7l0.1,0c-3.1-0.4-6-0.1-8.5,0.9l-11.6,4.8"/>
			<path class="st8" d="M293.1,53c0,0-4.5,0.5-6.9,1.4c-0.6,0.2-1.5,0.6-2.5,1c-4.2,1.7-9.1,4.1-12.2,6.9l-2.1,2.4"/>
		</g>
		<g>
			<g>
				<path class="st2" d="M235.9,6.9l15.3-6.1c0.1,0,0.2-0.1,0.3,0l-15.3,6.1C236.1,6.9,236,6.9,235.9,6.9z"/>
			</g>
			<g>
				<polygon class="st2" points="236.9,8.6 252.2,2.5 252.3,31.8 237,38 				"/>
			</g>
			<g>
				<polygon class="st3" points="262.8,12.3 278.1,6.1 278.2,35.5 262.9,41.6 				"/>
			</g>
			<g>
				<polygon class="st2" points="237,38 252.3,31.8 278.2,35.5 262.9,41.6 				"/>
			</g>
			<g>
				<path class="st2" d="M279.3,37.2l-15.3,6.1c0.1,0,0.1-0.1,0.2-0.1c0.1-0.1,0.2-0.3,0.2-0.5l15.3-6.1c0,0.2-0.1,0.4-0.2,0.5
					C279.4,37.1,279.3,37.1,279.3,37.2z"/>
			</g>
			<g>
				<polygon class="st3" points="236.9,8.6 252.2,2.5 278.1,6.1 262.8,12.3 				"/>
			</g>
			<g>
				<polygon class="st2" points="236.2,6.9 252,1.4 278.9,4.6 263.5,10.7 				"/>
			</g>
			<g>
				<polygon class="st2" points="264.2,11.7 279.6,5.5 279.7,36.5 264.3,42.6 				"/>
			</g>
			<g>
				<path class="st2" d="M263.5,10.7l15.3-6.1c0.2,0,0.4,0.1,0.5,0.3L264,11.1C263.9,10.9,263.7,10.8,263.5,10.7z"/>
			</g>
			<g>
				<path class="st2" d="M264,11.1l15.3-6.1c0.1,0.2,0.2,0.4,0.2,0.6l-15.3,6.1C264.2,11.4,264.2,11.2,264,11.1z"/>
			</g>
			<g>
				<path class="st2" d="M264,11.1c0.1,0.2,0.2,0.4,0.2,0.6l0.1,31c0,0.2-0.1,0.4-0.2,0.5c-0.1,0.1-0.3,0.2-0.5,0.2l-27.3-3.8
					c-0.2,0-0.4-0.1-0.5-0.3c-0.1-0.2-0.2-0.4-0.2-0.6l-0.1-31c0-0.2,0.1-0.4,0.2-0.5c0.1-0.1,0.3-0.2,0.5-0.2l27.3,3.8
					C263.7,10.8,263.9,10.9,264,11.1z M262.9,41.6l-0.1-29.3l-25.9-3.6L237,38L262.9,41.6"/>
			</g>
			<g>
				<g>
					<path class="st9" d="M262.8,42.5l-25.9-3.6c-0.4-0.1-0.8-0.4-0.8-0.9L236,8.6c0-0.3,0.1-0.5,0.3-0.7c0.2-0.1,0.4-0.2,0.6-0.2
						c0,0,0.1,0,0.1,0l25.9,3.6c0.4,0.1,0.8,0.4,0.8,0.9l0.1,29.3c0,0.3-0.1,0.5-0.3,0.7c-0.2,0.1-0.4,0.2-0.6,0.2
						C262.8,42.5,262.8,42.5,262.8,42.5z"/>
					<path class="st5" d="M236.9,8.6l25.9,3.6l0.1,29.3L237,38L236.9,8.6 M236.9,6.9c-0.4,0-0.8,0.2-1.1,0.4
						c-0.4,0.3-0.6,0.8-0.6,1.3l0.1,29.3c0,0.9,0.6,1.6,1.5,1.7l25.9,3.6c0.1,0,0.2,0,0.2,0c0.4,0,0.8-0.2,1.1-0.4
						c0.4-0.3,0.6-0.8,0.6-1.3l-0.1-29.3c0-0.9-0.6-1.6-1.5-1.7l-25.9-3.6C237.1,6.9,237,6.9,236.9,6.9L236.9,6.9z"/>
				</g>
			</g>
			<polyline class="st10" points="236.3,7.4 252.8,0.9 278.9,4.6 278.6,36.6 263.5,42.7 			"/>
			<line class="st10" x1="263.6" y1="11.4" x2="277.5" y2="5.9"/>
		</g>
	</g>
	<g>
		<g>
			<g>
				<path class="st2" d="M83,491.2l-9.9-4c0.7,0.3,1.4,0.6,2.1,1c3,1.6,5.6,4,7.5,7.5c1.1,2.1,2,4.7,2.5,7.8l9.9,4
					c-0.5-3.1-1.4-5.6-2.5-7.8c-1.9-3.5-4.5-5.9-7.5-7.5C84.4,491.8,83.7,491.5,83,491.2z"/>
			</g>
			<g>
				<path class="st3" d="M83,491.2l-9.9-4c-2.4-1-5-1.5-7.5-1.8c-2.7-0.3-5.2-0.5-7.1-0.6c-0.9-0.1-1.7-0.1-2.2-0.1
					c-0.3,0-0.5,0-0.6,0l9.9,4c0.1,0,0.3,0,0.6,0c0.5,0,1.3,0.1,2.2,0.1c1.8,0.1,4.4,0.3,7.1,0.6C78,489.7,80.6,490.2,83,491.2z"/>
			</g>
			<g>
				<path class="st2" d="M83.6,489.6l-9.9-4c-2.5-1-5.2-1.6-7.8-1.9c-4.3-0.4-8.1-0.6-9.6-0.7l9.9,4c1.5,0.1,5.3,0.3,9.6,0.7
					C78.4,488,81.1,488.6,83.6,489.6z"/>
			</g>
			<g>
				<path class="st3" d="M55.3,484.7l9.9,4c0.1,0,0.1,0,0.2,0c0,0,0.1,0,0.2,0l-9.9-4c-0.1,0-0.2,0-0.2,0
					C55.4,484.7,55.4,484.7,55.3,484.7z"/>
			</g>
			<g>
				<path class="st2" d="M55.3,484.7l9.9,4c-0.3-0.1-0.4-0.4-0.4-0.7l-9.9-4C54.9,484.3,55,484.6,55.3,484.7z"/>
			</g>
			<g>
				<path class="st2" d="M56.4,478c-0.5,0.5-1,1-1.5,1.5l9.9,4c0.5-0.5,1-1,1.5-1.5C63.3,480.8,59.3,479.2,56.4,478z"/>
			</g>
			<g>
				<polygon class="st2" points="64.8,483.4 54.9,479.5 54.9,484 64.8,488 				"/>
			</g>
			<g>
				<polygon class="st2" points="70.2,450.2 60.3,446.2 60.3,465.2 70.2,469.1 				"/>
			</g>
			<g>
				<path class="st3" d="M54.9,479.5c-3,2.7-6.7,4.5-10.8,5.1c3.3,1.3,6.6,2.6,9.9,4c4.1-0.6,7.8-2.4,10.8-5.1
					C61.8,482.2,57.9,480.6,54.9,479.5z"/>
			</g>
			<g>
				<path class="st3" d="M44.1,484.6c-3.1,0.4-6,0.1-8.5-0.9l9.9,4c2.5,1,5.4,1.4,8.5,0.9c-0.3-0.1-0.8-0.3-1.2-0.5
					c-0.4-0.1-0.9-0.3-1.2-0.5c-0.4-0.2-0.9-0.4-1.3-0.5c-0.4-0.2-0.9-0.4-1.3-0.5c-0.4-0.2-0.9-0.4-1.3-0.5
					c-0.2-0.1-0.4-0.2-0.6-0.3c-0.4-0.2-0.9-0.4-1.3-0.5c-0.4-0.1-0.8-0.3-1.2-0.5C44.5,484.7,44.3,484.6,44.1,484.6z"/>
			</g>
			<g>
				<path class="st2" d="M36.2,482l9.9,4c2.3,0.9,5,1.3,7.9,0.9c4.5-0.6,8.5-3,11.4-6.2c2.9-3.2,4.7-7.3,4.7-11.5l-9.9-4
					c0,4.2-1.8,8.3-4.7,11.5c-2.9,3.2-7,5.5-11.4,6.2C41.2,483.3,38.5,482.9,36.2,482z"/>
			</g>
			<g>
				<polygon class="st3" points="38,454.7 28.1,450.7 28,469.7 37.9,473.7 				"/>
			</g>
			<g>
				<path class="st2" d="M36.2,482l9.9,4c-1.3-0.5-2.5-1.2-3.5-2.1c-2.9-2.4-4.7-6-4.6-10.2l-9.9-4c0,4.2,1.7,7.8,4.6,10.2
					C33.7,480.8,34.9,481.5,36.2,482z"/>
			</g>
			<g>
				<polygon class="st3" points="43.2,486.4 33.3,482.5 33.3,487 43.2,491 				"/>
			</g>
			<g>
				<path class="st2" d="M62,437.8l-9.9-4c1.3,0.5,2.5,1.2,3.5,2.1c2.9,2.4,4.7,6,4.6,10.2l9.9,4c0-4.2-1.7-7.8-4.6-10.2
					C64.5,439.1,63.3,438.4,62,437.8z"/>
			</g>
			<g>
				<path class="st3" d="M52.1,433.9c-2.3-0.9-5-1.3-7.9-0.9l9.9,4c2.9-0.4,5.6-0.1,7.9,0.9C59.1,436.7,55.1,435.1,52.1,433.9z"/>
			</g>
			<g>
				<path class="st3" d="M44.2,433c-4.5,0.6-8.5,3-11.4,6.2c3.3,1.3,6.6,2.6,9.9,4c2.9-3.2,7-5.5,11.4-6.2
					C51.2,435.8,47.4,433.4,44.2,433z"/>
			</g>
			<g>
				<path class="st3" d="M43.2,491l-9.9-4c0,0.4-0.3,0.8-0.6,0.9c0,0-0.1,0-0.2,0.1c-1,0.3-5.2,1.7-9.9,3.5
					c-4.4,1.7-8.9,4.2-12.5,8.1c-1.8,2-3.4,4.3-4.7,7c-1.2,2.5-2,5.3-2.6,8.5l9.9,4c0.5-3.2,1.4-6,2.6-8.5c1.3-2.7,2.9-5,4.7-7
					c3.6-3.9,8.2-6.5,12.5-8.1c4.7-1.8,8.9-3.2,9.9-3.5c0.1,0,0.2-0.1,0.2-0.1C43,491.8,43.2,491.4,43.2,491z"/>
			</g>
			<g>
				<polygon class="st3" points="38,454.7 28.1,450.7 27.4,450.8 37.3,454.8 				"/>
			</g>
			<g>
				<polygon class="st2" points="38,454.7 28.1,450.7 27.4,450.8 37.3,454.8 				"/>
			</g>
			<g>
				<polygon class="st2" points="37.3,454.8 27.4,450.8 26.6,450.9 36.5,454.9 				"/>
			</g>
			<g>
				<path class="st3" d="M32.8,439.2c-2.9,3.2-4.7,7.3-4.7,11.5l9.9,4c0-4.2,1.8-8.3,4.7-11.5c-0.3-0.1-0.8-0.3-1.2-0.5
					c-0.4-0.1-0.9-0.3-1.2-0.5c-0.9-0.3-1.7-0.7-2.6-1c-0.4-0.2-0.9-0.4-1.3-0.5c-0.4-0.2-0.9-0.4-1.3-0.5c-0.4-0.1-0.9-0.3-1.2-0.5
					C33.6,439.5,33.1,439.3,32.8,439.2z"/>
			</g>
			<g>
				<path class="st2" d="M41.8,485.4l0,5.1c-1.5,0.5-5.3,1.7-9.6,3.4c-3.4,1.3-6.9,3.1-10.1,5.7c-3.2,2.6-6.1,6-8.1,10.3
					c-1.4,2.9-2.4,6.3-2.9,10.1c0,0.2,0,0.5,0.2,0.6c0.1,0.2,0.3,0.2,0.6,0.2l42.1-5.9L96,509c0.2,0,0.4-0.2,0.6-0.4
					c0.1-0.2,0.2-0.5,0.2-0.7c-0.5-3.7-1.5-6.7-2.8-9.3c-1.4-2.5-3.1-4.5-5-6.1c-3.9-3.1-8.6-4.4-13.1-4.9c-4.3-0.4-8.1-0.6-9.6-0.7
					l0-5.1c-0.5,0.5-1,1-1.5,1.5l0,4.5c0,0.4,0.3,0.7,0.6,0.7c0,0,0.1,0,0.2,0c0.1,0,0.3,0,0.6,0c0.5,0,1.3,0.1,2.2,0.1
					c1.8,0.1,4.4,0.3,7.1,0.6c3.3,0.3,6.6,1.1,9.6,2.8c3,1.6,5.6,4,7.5,7.5c1.1,2.1,2,4.7,2.5,7.8l-41.2,5.8l-41.2,5.8
					c0.5-3.2,1.4-6,2.6-8.5c1.3-2.7,2.9-5,4.7-7c3.6-3.9,8.2-6.5,12.5-8.1c4.7-1.8,8.9-3.2,9.9-3.5c0.1,0,0.2-0.1,0.2-0.1
					c0.4-0.1,0.6-0.5,0.6-0.9l0-4.5C42.7,486.1,42.2,485.8,41.8,485.4z"/>
			</g>
			<g>
				<path class="st2" d="M54.1,435.3c-4.8,0.7-9.2,3.2-12.4,6.7c-3.2,3.5-5.2,8.1-5.2,12.9l0.7-0.1l0.7-0.1c0-4.2,1.8-8.3,4.7-11.5
					c2.9-3.2,7-5.5,11.4-6.2c4.5-0.6,8.5,0.6,11.4,3c2.9,2.4,4.7,6,4.6,10.2l-0.1,19c0,4.2-1.8,8.3-4.7,11.5
					c-2.9,3.2-7,5.5-11.4,6.2c-4.5,0.6-8.5-0.6-11.4-3c-2.9-2.4-4.7-6-4.6-10.2l0.1-19l-0.7,0.1l-0.7,0.1l-0.1,19
					c0,4.8,2,8.8,5.2,11.4c0,0,0.1,0.1,0.1,0.1c0.5,0.4,1,0.7,1.5,1c3,1.8,6.7,2.6,10.8,2.1c4.1-0.6,7.8-2.4,10.8-5.1
					c0.5-0.5,1-1,1.5-1.5c0,0,0.1-0.1,0.1-0.1c3.2-3.5,5.2-8.1,5.2-12.9l0.1-19c0-4.8-2-8.8-5.2-11.4
					C63.3,435.9,59,434.6,54.1,435.3z"/>
			</g>
			<g>
				<g>
					<polygon class="st2" points="36.5,454.9 26.6,450.9 26.6,469.9 36.5,473.9 					"/>
				</g>
				<g>
					<path class="st2" d="M35.6,483.6l9.9,4c-0.8-0.3-1.5-0.7-2.2-1.1c-0.5-0.3-1-0.7-1.5-1c0,0-0.1-0.1-0.1-0.1
						c-3.2-2.6-5.2-6.7-5.2-11.4l-9.9-4c0,4.8,2,8.8,5.2,11.4c0,0,0.1,0.1,0.1,0.1c0.5,0.4,1,0.7,1.5,1
						C34,482.9,34.8,483.3,35.6,483.6z"/>
				</g>
				<g>
					<polygon class="st2" points="41.8,485.4 31.9,481.4 31.8,486.5 41.7,490.5 					"/>
				</g>
				<g>
					<path class="st2" d="M62.7,436.2l-9.9-4c-2.5-1-5.4-1.4-8.5-0.9l9.9,4C57.2,434.9,60.1,435.2,62.7,436.2z"/>
				</g>
				<g>
					<path class="st2" d="M1.6,516.9l9.9,4c-0.1,0-0.2-0.1-0.2-0.2c-0.1-0.2-0.2-0.4-0.2-0.6c0.5-3.8,1.5-7.2,2.9-10.1
						c2.1-4.4,4.9-7.7,8.1-10.3c3.2-2.6,6.7-4.4,10.1-5.7c4.3-1.6,8.1-2.9,9.6-3.4l-9.9-4c-1.5,0.5-5.3,1.7-9.6,3.4
						c-3.4,1.3-6.9,3.1-10.1,5.7c-3.2,2.6-6.1,6-8.1,10.3c-1.4,2.9-2.4,6.3-2.9,10.1c0,0.2,0,0.5,0.2,0.6
						C1.4,516.8,1.5,516.8,1.6,516.9z"/>
				</g>
				<g>
					<path class="st2" d="M54.1,435.3l-9.9-4c-4.8,0.7-9.2,3.2-12.4,6.7c-3.2,3.5-5.2,8.1-5.2,12.9l9.9,4c0-4.8,2-9.4,5.2-12.9
						C44.9,438.5,49.3,436,54.1,435.3z"/>
				</g>
			</g>
			<g>
				<g>
					<path class="st4" d="M12.7,520.1c-0.3,0-0.5-0.1-0.7-0.3c-0.2-0.2-0.3-0.5-0.3-0.9c0.5-3.2,1.4-6.1,2.6-8.7
						c1.3-2.7,2.9-5.1,4.9-7.2c3.3-3.6,7.7-6.4,12.9-8.4c4.9-1.9,9.1-3.3,10-3.5c0,0,0.2-0.1,0.2-0.1l-0.1-5.4
						c0-0.4,0.2-0.7,0.5-0.9c0.2-0.1,0.3-0.1,0.5-0.1c0.2,0,0.4,0,0.5,0.1c2.1,1.3,5.2,3,8.7,3c0.5,0,1,0,1.5-0.1
						c4-0.6,7.8-3.6,10.3-5.8c0.2-0.2,0.4-0.3,0.7-0.3c0.1,0,0.3,0,0.4,0.1c0.4,0.2,0.6,0.5,0.6,0.9l0,5.3c0.1,0,0.3,0,0.5,0
						c0.5,0,1.3,0.1,2.2,0.1c2.5,0.2,4.9,0.4,7.1,0.6c3.8,0.4,7.2,1.4,10,2.9c3.4,1.8,6.1,4.5,7.9,7.9c1.2,2.3,2.1,5,2.6,8.1
						c0,0.3,0,0.5-0.2,0.8c-0.2,0.2-0.4,0.4-0.7,0.4l-82.5,11.6C12.8,520.1,12.7,520.1,12.7,520.1z"/>
					<path class="st5" d="M64.8,482.4L64.8,482.4 M64.8,482.4l0,5.5c0,0.4,0.3,0.7,0.6,0.7c0,0,0.1,0,0.2,0c0.1,0,0.3,0,0.6,0
						c0.5,0,1.3,0.1,2.2,0.1c1.8,0.1,4.4,0.3,7.1,0.6c3.3,0.3,6.6,1.1,9.6,2.8c3,1.6,5.6,4,7.5,7.5c1.1,2.1,2,4.7,2.5,7.8l-41.2,5.8
						l-41.2,5.8c0.5-3.2,1.4-6,2.6-8.5c1.3-2.7,2.9-5,4.7-7c3.6-3.9,8.2-6.5,12.5-8.1c4.7-1.8,8.9-3.2,9.9-3.5
						c0.1,0,0.2-0.1,0.2-0.1c0.4-0.1,0.6-0.5,0.6-0.9l0-5.5c2.6,1.6,5.7,3.1,9.2,3.1c0.5,0,1.1,0,1.6-0.1
						C58.1,488,61.8,485.1,64.8,482.4 M64.8,480.4C64.8,480.4,64.7,480.5,64.8,480.4c-0.6,0-1,0.2-1.3,0.5c-2.4,2.1-6,5.1-9.7,5.6
						c-0.4,0.1-0.9,0.1-1.3,0.1c-3.2,0-6.2-1.6-8.1-2.8c-0.3-0.2-0.7-0.3-1-0.3c-0.3,0-0.7,0.1-1,0.3c-0.6,0.4-1,1-1,1.7l0,4.7
						c-1.5,0.5-5.2,1.7-9.5,3.4c-5.4,2.1-9.8,5-13.3,8.7c-2.1,2.2-3.8,4.7-5.1,7.5c-1.3,2.7-2.2,5.8-2.7,9c-0.1,0.6,0.1,1.3,0.5,1.7
						c0.4,0.4,0.9,0.6,1.4,0.6c0.1,0,0.2,0,0.3,0l41.2-5.8l41.2-5.8c0.5-0.1,1-0.4,1.3-0.8s0.5-1,0.4-1.5c-0.5-3.1-1.4-6-2.7-8.4
						c-1.9-3.6-4.7-6.4-8.4-8.3c-2.9-1.6-6.4-2.6-10.4-3c-2.2-0.2-4.6-0.4-7.2-0.6c-0.7,0-1.3-0.1-1.8-0.1l0-4.2c0,0,0-0.1,0-0.1
						C66.8,481.3,65.9,480.5,64.8,480.4C64.8,480.4,64.8,480.4,64.8,480.4L64.8,480.4z"/>
				</g>
			</g>
			<g>
				<g>
					<path class="st4" d="M51.7,488c-3.6,0-7.1-1.2-9.7-3.4c-3.2-2.7-5-6.6-5-11l0.1-19c0-4.3,1.8-8.7,5-12.2
						c3.2-3.5,7.5-5.9,12-6.5c0.8-0.1,1.7-0.2,2.5-0.2c3.6,0,7.1,1.2,9.7,3.4c3.2,2.7,5,6.6,5,11l-0.1,19c0,4.3-1.8,8.7-5,12.2
						c-3.2,3.5-7.5,5.9-12,6.5C53.3,487.9,52.5,488,51.7,488L51.7,488z"/>
					<path class="st5" d="M56.5,436.8c3.5,0,6.7,1.2,9.1,3.1c2.9,2.4,4.7,6,4.6,10.2l-0.1,19c0,4.2-1.8,8.3-4.7,11.5
						c-2.9,3.2-7,5.5-11.4,6.2c-0.8,0.1-1.6,0.2-2.3,0.2c-3.5,0-6.7-1.2-9.1-3.1c-2.9-2.4-4.7-6-4.6-10.2l0.1-19
						c0-4.2,1.8-8.3,4.7-11.5c2.9-3.2,7-5.5,11.4-6.2C54.9,436.9,55.7,436.8,56.5,436.8 M56.5,434.8c-0.9,0-1.7,0.1-2.6,0.2
						c-4.8,0.7-9.3,3.1-12.6,6.8c-3.4,3.7-5.2,8.3-5.2,12.9l-0.1,19c0,4.7,1.9,8.9,5.4,11.8c2.8,2.3,6.5,3.6,10.3,3.6
						c0.9,0,1.7-0.1,2.6-0.2c4.8-0.7,9.3-3.1,12.6-6.8c3.4-3.7,5.2-8.3,5.2-12.9l0.1-19c0-4.7-1.9-8.9-5.4-11.8
						C64,436.1,60.4,434.8,56.5,434.8L56.5,434.8z"/>
				</g>
			</g>
			<polyline class="st6" points="41.4,485.5 31.5,481.5 31.5,486.6 			"/>
			<path class="st6" d="M40.7,490.5l-9.7-3.9c-1.4,0.5-5.2,1.7-9.4,3.3c-3.3,1.3-6.7,3.1-9.9,5.6c-3.1,2.5-5.9,5.8-7.9,10.1
				c-1.3,2.8-2.3,6.1-2.8,9.8c0,0.2,0,0.5,0.2,0.6c0.1,0.1,0.1,0.1,0.2,0.2l9.7,3.9"/>
			<path class="st7" d="M36.6,483.6c-0.8-0.3-2.9-1-3.6-1.4c-0.5-0.3-1-0.7-1.5-1c0,0-0.1-0.1-0.1-0.1c-3.2-2.6-5.1-6.6-5.1-11.4
				v-0.1l0.1-18.9v-0.1c0-4.7,2-9.3,5.2-12.8c3.2-3.5,7.5-6,12.3-6.7l-0.1,0c3.1-0.4,6-0.1,8.5,0.9l11.6,4.8"/>
			<path class="st8" d="M67.1,482.5c0,0,4.5,0.5,6.9,1.4c0.6,0.2,1.5,0.6,2.5,1c4.2,1.7,9.1,4.1,12.2,6.9l2.1,2.4"/>
		</g>
		<g>
			<g>
				<path class="st2" d="M124.3,436.5l-15.3-6.1c-0.1,0-0.2-0.1-0.3,0l15.3,6.1C124.1,436.4,124.2,436.4,124.3,436.5z"/>
			</g>
			<g>
				<polygon class="st2" points="123.2,438.2 107.9,432 107.8,461.4 123.1,467.5 				"/>
			</g>
			<g>
				<polygon class="st3" points="97.3,441.8 82,435.7 81.9,465 97.2,471.1 				"/>
			</g>
			<g>
				<polygon class="st2" points="123.1,467.5 107.8,461.4 81.9,465 97.2,471.1 				"/>
			</g>
			<g>
				<path class="st2" d="M80.9,466.7l15.3,6.1c-0.1,0-0.1-0.1-0.2-0.1c-0.1-0.1-0.2-0.3-0.2-0.5L80.4,466c0,0.2,0.1,0.4,0.2,0.5
					C80.7,466.6,80.8,466.7,80.9,466.7z"/>
			</g>
			<g>
				<polygon class="st3" points="123.2,438.2 107.9,432 82,435.7 97.3,441.8 				"/>
			</g>
			<g>
				<polygon class="st2" points="124,436.5 108.1,430.9 81.3,434.2 96.6,440.3 				"/>
			</g>
			<g>
				<polygon class="st2" points="95.9,441.2 80.5,435 80.4,466 95.8,472.2 				"/>
			</g>
			<g>
				<path class="st2" d="M96.6,440.3l-15.3-6.1c-0.2,0-0.4,0.1-0.5,0.3l15.3,6.1C96.2,440.4,96.4,440.3,96.6,440.3z"/>
			</g>
			<g>
				<path class="st2" d="M96.1,440.6l-15.3-6.1c-0.1,0.2-0.2,0.4-0.2,0.6l15.3,6.1C95.9,441,96,440.8,96.1,440.6z"/>
			</g>
			<g>
				<path class="st2" d="M96.6,440.3l27.3-3.8c0.2,0,0.4,0,0.5,0.2c0.1,0.1,0.2,0.3,0.2,0.5l-0.1,31c0,0.2-0.1,0.4-0.2,0.6
					c-0.1,0.2-0.3,0.3-0.5,0.3l-27.3,3.8c-0.2,0-0.4,0-0.5-0.2c-0.1-0.1-0.2-0.3-0.2-0.5l0.1-31c0-0.2,0.1-0.4,0.2-0.6
					C96.2,440.4,96.4,440.3,96.6,440.3z M97.2,471.1l25.9-3.6l0.1-29.3l-25.9,3.6L97.2,471.1"/>
			</g>
			<g>
				<g>
					<path class="st9" d="M97.2,472c-0.2,0-0.4-0.1-0.6-0.2c-0.2-0.2-0.3-0.4-0.3-0.7l0.1-29.3c0-0.4,0.3-0.8,0.8-0.9l25.9-3.6
						c0,0,0.1,0,0.1,0c0.2,0,0.4,0.1,0.6,0.2c0.2,0.2,0.3,0.4,0.3,0.7l-0.1,29.3c0,0.4-0.3,0.8-0.8,0.9L97.4,472
						C97.3,472,97.3,472,97.2,472z"/>
					<path class="st5" d="M123.2,438.2L123.2,438.2 M123.2,438.2l-0.1,29.3l-25.9,3.6l0.1-29.3L123.2,438.2 M123.2,436.4
						C123.2,436.4,123.2,436.4,123.2,436.4c-0.1,0-0.2,0-0.3,0l-25.9,3.6c-0.9,0.1-1.5,0.9-1.5,1.7l-0.1,29.3c0,0.5,0.2,1,0.6,1.3
						c0.3,0.3,0.7,0.4,1.1,0.4c0.1,0,0.2,0,0.2,0l25.9-3.6c0.9-0.1,1.5-0.9,1.5-1.7l0.1-29.2c0,0,0-0.1,0-0.1
						C125,437.2,124.2,436.4,123.2,436.4C123.2,436.4,123.2,436.4,123.2,436.4L123.2,436.4z"/>
				</g>
			</g>
			<polyline class="st10" points="123.8,436.9 107.3,430.4 81.3,434.2 81.5,466.2 96.6,472.3 			"/>
			<line class="st10" x1="96.6" y1="440.9" x2="82.6" y2="435.4"/>
		</g>
	</g>
	<g>
		<g>
			<g>
				<path class="st2" d="M277.1,491.2l9.9-4c-0.7,0.3-1.4,0.6-2.1,1c-3,1.6-5.6,4-7.5,7.5c-1.1,2.1-2,4.7-2.5,7.8l-9.9,4
					c0.5-3.1,1.4-5.6,2.5-7.8c1.9-3.5,4.5-5.9,7.5-7.5C275.7,491.8,276.4,491.5,277.1,491.2z"/>
			</g>
			<g>
				<path class="st3" d="M277.1,491.2l9.9-4c2.4-1,5-1.5,7.5-1.8c2.7-0.3,5.2-0.5,7.1-0.6c0.9-0.1,1.7-0.1,2.2-0.1
					c0.3,0,0.5,0,0.6,0l-9.9,4c-0.1,0-0.3,0-0.6,0c-0.5,0-1.3,0.1-2.2,0.1c-1.8,0.1-4.4,0.3-7.1,0.6
					C282.1,489.7,279.5,490.2,277.1,491.2z"/>
			</g>
			<g>
				<path class="st2" d="M276.5,489.6l9.9-4c2.5-1,5.2-1.6,7.8-1.9c4.3-0.4,8.1-0.6,9.6-0.7l-9.9,4c-1.5,0.1-5.3,0.3-9.6,0.7
					C281.7,488,279,488.6,276.5,489.6z"/>
			</g>
			<g>
				<path class="st3" d="M304.8,484.7l-9.9,4c-0.1,0-0.1,0-0.2,0c0,0-0.1,0-0.2,0l9.9-4c0.1,0,0.2,0,0.2,0
					C304.7,484.7,304.8,484.7,304.8,484.7z"/>
			</g>
			<g>
				<path class="st2" d="M304.8,484.7l-9.9,4c0.3-0.1,0.4-0.4,0.4-0.7l9.9-4C305.2,484.3,305.1,484.6,304.8,484.7z"/>
			</g>
			<g>
				<path class="st2" d="M303.7,478c0.5,0.5,1,1,1.5,1.5l-9.9,4c-0.5-0.5-1-1-1.5-1.5C296.8,480.8,300.8,479.2,303.7,478z"/>
			</g>
			<g>
				<polygon class="st2" points="295.3,483.4 305.2,479.5 305.2,484 295.3,488 				"/>
			</g>
			<g>
				<polygon class="st2" points="289.9,450.2 299.8,446.2 299.9,465.2 290,469.1 				"/>
			</g>
			<g>
				<path class="st3" d="M305.2,479.5c3,2.7,6.7,4.5,10.8,5.1c-3.3,1.3-6.6,2.6-9.9,4c-4.1-0.6-7.8-2.4-10.8-5.1
					C298.3,482.2,302.3,480.6,305.2,479.5z"/>
			</g>
			<g>
				<path class="st3" d="M316,484.6c3.1,0.4,6,0.1,8.5-0.9l-9.9,4c-2.5,1-5.4,1.4-8.5,0.9c0.3-0.1,0.8-0.3,1.2-0.5
					c0.4-0.1,0.9-0.3,1.2-0.5c0.4-0.2,0.9-0.4,1.3-0.5c0.4-0.2,0.9-0.4,1.3-0.5s0.9-0.4,1.3-0.5c0.2-0.1,0.4-0.2,0.6-0.3
					c0.4-0.2,0.9-0.4,1.3-0.5c0.4-0.1,0.8-0.3,1.2-0.5C315.6,484.7,315.8,484.6,316,484.6z"/>
			</g>
			<g>
				<path class="st2" d="M323.9,482l-9.9,4c-2.3,0.9-5,1.3-7.9,0.9c-4.5-0.6-8.5-3-11.4-6.2c-2.9-3.2-4.7-7.3-4.7-11.5l9.9-4
					c0,4.2,1.8,8.3,4.7,11.5c2.9,3.2,7,5.5,11.4,6.2C318.9,483.3,321.6,482.9,323.9,482z"/>
			</g>
			<g>
				<polygon class="st3" points="322.1,454.7 332,450.7 332.1,469.7 322.2,473.7 				"/>
			</g>
			<g>
				<path class="st2" d="M323.9,482l-9.9,4c1.3-0.5,2.5-1.2,3.5-2.1c2.9-2.4,4.7-6,4.6-10.2l9.9-4c0,4.2-1.7,7.8-4.6,10.2
					C326.4,480.8,325.2,481.5,323.9,482z"/>
			</g>
			<g>
				<polygon class="st3" points="316.9,486.4 326.8,482.5 326.8,487 316.9,491 				"/>
			</g>
			<g>
				<path class="st2" d="M298.1,437.8l9.9-4c-1.3,0.5-2.5,1.2-3.5,2.1c-2.9,2.4-4.7,6-4.6,10.2l-9.9,4c0-4.2,1.7-7.8,4.6-10.2
					C295.6,439.1,296.8,438.4,298.1,437.8z"/>
			</g>
			<g>
				<path class="st3" d="M308,433.9c2.3-0.9,5-1.3,7.9-0.9l-9.9,4c-2.9-0.4-5.6-0.1-7.9,0.9C301.1,436.7,305,435.1,308,433.9z"/>
			</g>
			<g>
				<path class="st3" d="M315.9,433c4.5,0.6,8.5,3,11.4,6.2c-3.3,1.3-6.6,2.6-9.9,4c-2.9-3.2-7-5.5-11.4-6.2
					C308.9,435.8,312.7,433.4,315.9,433z"/>
			</g>
			<g>
				<path class="st3" d="M316.9,491l9.9-4c0,0.4,0.3,0.8,0.6,0.9c0,0,0.1,0,0.2,0.1c1,0.3,5.2,1.7,9.9,3.5c4.4,1.7,8.9,4.2,12.5,8.1
					c1.8,2,3.4,4.3,4.7,7c1.2,2.5,2,5.3,2.6,8.5l-9.9,4c-0.5-3.2-1.4-6-2.6-8.5c-1.3-2.7-2.9-5-4.7-7c-3.6-3.9-8.2-6.5-12.5-8.1
					c-4.7-1.8-8.9-3.2-9.9-3.5c-0.1,0-0.2-0.1-0.2-0.1C317.2,491.8,316.9,491.4,316.9,491z"/>
			</g>
			<g>
				<polygon class="st3" points="322.1,454.7 332,450.7 332.8,450.8 322.9,454.8 				"/>
			</g>
			<g>
				<polygon class="st2" points="322.1,454.7 332,450.7 332.8,450.8 322.9,454.8 				"/>
			</g>
			<g>
				<polygon class="st2" points="322.9,454.8 332.8,450.8 333.5,450.9 323.6,454.9 				"/>
			</g>
			<g>
				<path class="st3" d="M327.3,439.2c2.9,3.2,4.7,7.3,4.7,11.5l-9.9,4c0-4.2-1.8-8.3-4.7-11.5c0.3-0.1,0.8-0.3,1.2-0.5
					c0.4-0.1,0.9-0.3,1.2-0.5c0.9-0.3,1.7-0.7,2.6-1c0.4-0.2,0.9-0.4,1.3-0.5c0.4-0.2,0.9-0.4,1.3-0.5c0.4-0.1,0.9-0.3,1.2-0.5
					C326.5,439.5,327,439.3,327.3,439.2z"/>
			</g>
			<g>
				<path class="st2" d="M318.4,485.4l0,5.1c1.5,0.5,5.3,1.7,9.6,3.4c3.4,1.3,6.9,3.1,10.1,5.7c3.2,2.6,6.1,6,8.1,10.3
					c1.4,2.9,2.4,6.3,2.9,10.1c0,0.2,0,0.5-0.2,0.6c-0.1,0.2-0.3,0.2-0.6,0.2l-42.1-5.9l-42.1-5.9c-0.2,0-0.4-0.2-0.6-0.4
					c-0.1-0.2-0.2-0.5-0.2-0.7c0.5-3.7,1.5-6.7,2.8-9.3c1.4-2.5,3.1-4.5,5-6.1c3.9-3.1,8.6-4.4,13.1-4.9c4.3-0.4,8.1-0.6,9.6-0.7
					l0-5.1c0.5,0.5,1,1,1.5,1.5l0,4.5c0,0.4-0.3,0.7-0.6,0.7c0,0-0.1,0-0.2,0c-0.1,0-0.3,0-0.6,0c-0.5,0-1.3,0.1-2.2,0.1
					c-1.8,0.1-4.4,0.3-7.1,0.6c-3.3,0.3-6.6,1.1-9.6,2.8c-3,1.6-5.6,4-7.5,7.5c-1.1,2.1-2,4.7-2.5,7.8l41.2,5.8l41.2,5.8
					c-0.5-3.2-1.4-6-2.6-8.5c-1.3-2.7-2.9-5-4.7-7c-3.6-3.9-8.2-6.5-12.5-8.1c-4.7-1.8-8.9-3.2-9.9-3.5c-0.1,0-0.2-0.1-0.2-0.1
					c-0.4-0.1-0.6-0.5-0.6-0.9l0-4.5C317.4,486.1,317.9,485.8,318.4,485.4z"/>
			</g>
			<g>
				<path class="st2" d="M306,435.3c4.8,0.7,9.2,3.2,12.4,6.7c3.2,3.5,5.2,8.1,5.2,12.9l-0.7-0.1l-0.7-0.1c0-4.2-1.8-8.3-4.7-11.5
					c-2.9-3.2-7-5.5-11.4-6.2c-4.5-0.6-8.5,0.6-11.4,3c-2.9,2.4-4.7,6-4.6,10.2l0.1,19c0,4.2,1.8,8.3,4.7,11.5
					c2.9,3.2,7,5.5,11.4,6.2c4.5,0.6,8.5-0.6,11.4-3c2.9-2.4,4.7-6,4.6-10.2l-0.1-19l0.7,0.1l0.7,0.1l0.1,19c0,4.8-2,8.8-5.2,11.4
					c0,0-0.1,0.1-0.1,0.1c-0.5,0.4-1,0.7-1.5,1c-3,1.8-6.7,2.6-10.8,2.1c-4.1-0.6-7.8-2.4-10.8-5.1c-0.5-0.5-1-1-1.5-1.5
					c0,0-0.1-0.1-0.1-0.1c-3.2-3.5-5.2-8.1-5.2-12.9l-0.1-19c0-4.8,2-8.8,5.2-11.4C296.8,435.9,301.1,434.6,306,435.3z"/>
			</g>
			<g>
				<g>
					<polygon class="st2" points="323.6,454.9 333.5,450.9 333.6,469.9 323.7,473.9 					"/>
				</g>
				<g>
					<path class="st2" d="M324.5,483.6l-9.9,4c0.8-0.3,1.5-0.7,2.2-1.1c0.5-0.3,1-0.7,1.5-1c0,0,0.1-0.1,0.1-0.1
						c3.2-2.6,5.2-6.7,5.2-11.4l9.9-4c0,4.8-2,8.8-5.2,11.4c0,0-0.1,0.1-0.1,0.1c-0.5,0.4-1,0.7-1.5,1
						C326.1,482.9,325.3,483.3,324.5,483.6z"/>
				</g>
				<g>
					<polygon class="st2" points="318.4,485.4 328.3,481.4 328.3,486.5 318.4,490.5 					"/>
				</g>
				<g>
					<path class="st2" d="M297.4,436.2l9.9-4c2.5-1,5.4-1.4,8.5-0.9l-9.9,4C302.9,434.9,300,435.2,297.4,436.2z"/>
				</g>
				<g>
					<path class="st2" d="M358.5,516.9l-9.9,4c0.1,0,0.2-0.1,0.2-0.2c0.1-0.2,0.2-0.4,0.2-0.6c-0.5-3.8-1.5-7.2-2.9-10.1
						c-2.1-4.4-4.9-7.7-8.1-10.3c-3.2-2.6-6.7-4.4-10.1-5.7c-4.3-1.6-8.1-2.9-9.6-3.4l9.9-4c1.5,0.5,5.3,1.7,9.6,3.4
						c3.4,1.3,6.9,3.1,10.1,5.7c3.2,2.6,6.1,6,8.1,10.3c1.4,2.9,2.4,6.3,2.9,10.1c0,0.2,0,0.5-0.2,0.6
						C358.7,516.8,358.6,516.8,358.5,516.9z"/>
				</g>
				<g>
					<path class="st2" d="M306,435.3l9.9-4c4.8,0.7,9.2,3.2,12.4,6.7c3.2,3.5,5.2,8.1,5.2,12.9l-9.9,4c0-4.8-2-9.4-5.2-12.9
						C315.2,438.5,310.8,436,306,435.3z"/>
				</g>
			</g>
			<g>
				<g>
					<path class="st4" d="M347.4,520.1c0,0-0.1,0-0.1,0l-82.5-11.6c-0.3,0-0.5-0.2-0.7-0.4c-0.2-0.2-0.2-0.5-0.2-0.8
						c0.5-3,1.4-5.8,2.6-8.1c1.8-3.4,4.5-6.1,7.9-7.9c2.8-1.5,6.2-2.5,10-2.9c2.2-0.2,4.6-0.4,7.1-0.6c0.9-0.1,1.7-0.1,2.2-0.1
						c0.2,0,0.4,0,0.5,0l0-5.3c0-0.4,0.2-0.8,0.6-0.9c0.1-0.1,0.3-0.1,0.4-0.1c0.2,0,0.5,0.1,0.7,0.3c2.5,2.2,6.3,5.3,10.3,5.8
						c0.5,0.1,1,0.1,1.5,0.1c3.5,0,6.6-1.7,8.7-3c0.2-0.1,0.3-0.1,0.5-0.1c0.2,0,0.3,0,0.5,0.1c0.3,0.2,0.5,0.5,0.5,0.9l0,5.5l0.1,0
						c0.9,0.3,5.1,1.7,10,3.5c5.2,2,9.6,4.8,12.9,8.4c2,2.1,3.6,4.6,4.9,7.2c1.2,2.6,2.1,5.6,2.6,8.7c0,0.3-0.1,0.6-0.3,0.9
						C347.9,520,347.7,520.1,347.4,520.1z"/>
					<path class="st5" d="M295.3,482.4c3,2.7,6.7,5.5,10.8,6.1c0.5,0.1,1.1,0.1,1.6,0.1c3.4,0,6.6-1.5,9.2-3.1l0,5.5
						c0,0.4,0.3,0.8,0.6,0.9c0,0,0.1,0,0.2,0.1c1,0.3,5.2,1.7,9.9,3.5c4.4,1.7,8.9,4.2,12.5,8.1c1.8,2,3.4,4.3,4.7,7
						c1.2,2.5,2,5.3,2.6,8.5l-41.2-5.8l-41.2-5.8c0.5-3.1,1.4-5.6,2.5-7.8c1.9-3.5,4.5-5.9,7.5-7.5c3-1.6,6.4-2.4,9.6-2.8
						c2.7-0.3,5.2-0.5,7.1-0.6c0.9-0.1,1.7-0.1,2.2-0.1c0.3,0,0.5,0,0.6,0c0.1,0,0.2,0,0.2,0c0.4,0,0.6-0.3,0.6-0.7L295.3,482.4
						 M295.3,480.4c-0.3,0-0.6,0.1-0.8,0.2c-0.7,0.3-1.2,1-1.2,1.8l0,4.3c-0.5,0-1.1,0.1-1.8,0.1c-2.6,0.2-5,0.4-7.2,0.6
						c-3.9,0.4-7.4,1.4-10.4,3c-3.6,1.9-6.4,4.7-8.4,8.3c-1.3,2.4-2.2,5.2-2.7,8.4c-0.1,0.5,0,1.1,0.4,1.5c0.3,0.4,0.8,0.7,1.3,0.8
						l41.2,5.8l41.2,5.8c0.1,0,0.2,0,0.3,0c0.5,0,1-0.2,1.4-0.6c0.4-0.5,0.6-1.1,0.5-1.7c-0.5-3.2-1.4-6.3-2.7-9
						c-1.3-2.7-3-5.3-5.1-7.5c-3.4-3.7-7.9-6.6-13.3-8.7c-4.2-1.6-8-2.9-9.5-3.4l0-4.7c0-0.7-0.4-1.4-1-1.7c-0.3-0.2-0.6-0.3-1-0.3
						c-0.4,0-0.7,0.1-1,0.3c-2,1.2-4.9,2.8-8.1,2.8c-0.4,0-0.9,0-1.3-0.1c-3.7-0.5-7.3-3.4-9.7-5.6
						C296.3,480.6,295.8,480.4,295.3,480.4L295.3,480.4z"/>
				</g>
			</g>
			<g>
				<g>
					<path class="st4" d="M308.5,488c-0.8,0-1.7-0.1-2.5-0.2c-4.6-0.6-8.8-2.9-12-6.5c-3.2-3.5-5-7.9-5-12.2l-0.1-19
						c0-4.4,1.8-8.3,5-11c2.6-2.2,6.1-3.4,9.7-3.4c0.8,0,1.7,0.1,2.5,0.2c4.6,0.6,8.8,2.9,12,6.5c3.2,3.5,5,7.9,5,12.2l0.1,19
						c0,4.4-1.8,8.3-5,11C315.6,486.8,312.1,488,308.5,488z"/>
					<path class="st5" d="M303.6,436.8c0.8,0,1.6,0.1,2.3,0.2c4.5,0.6,8.5,3,11.4,6.2c2.9,3.2,4.7,7.3,4.7,11.5l0.1,19
						c0,4.2-1.7,7.8-4.6,10.2c-2.4,2-5.5,3.1-9.1,3.1c-0.8,0-1.6-0.1-2.3-0.2c-4.5-0.6-8.5-3-11.4-6.2c-2.9-3.2-4.7-7.3-4.7-11.5
						l-0.1-19c0-4.2,1.7-7.8,4.6-10.2C296.9,438,300.1,436.8,303.6,436.8 M303.6,434.8C303.6,434.8,303.6,434.8,303.6,434.8
						c-3.9,0-7.5,1.3-10.3,3.6c-3.5,2.9-5.4,7.1-5.4,11.8l0.1,19c0,4.6,1.9,9.2,5.2,12.9c3.4,3.7,7.9,6.1,12.6,6.8
						c0.9,0.1,1.8,0.2,2.6,0.2c3.9,0,7.5-1.3,10.3-3.6c3.5-2.9,5.4-7.1,5.4-11.8l-0.1-19c0-4.6-1.9-9.2-5.2-12.9
						c-3.4-3.7-7.9-6.1-12.6-6.8C305.4,434.9,304.5,434.8,303.6,434.8L303.6,434.8z"/>
				</g>
			</g>
			<polyline class="st6" points="318.8,485.5 328.6,481.5 328.7,486.6 			"/>
			<path class="st6" d="M319.5,490.5l9.7-3.9c1.4,0.5,5.2,1.7,9.4,3.3c3.3,1.3,6.7,3.1,9.9,5.6c3.1,2.5,5.9,5.8,7.9,10.1
				c1.3,2.8,2.3,6.1,2.8,9.8c0,0.2,0,0.5-0.2,0.6c-0.1,0.1-0.1,0.1-0.2,0.2l-9.7,3.9"/>
			<path class="st7" d="M323.5,483.6c0.8-0.3,2.9-1,3.6-1.4c0.5-0.3,1-0.7,1.5-1c0,0,0.1-0.1,0.1-0.1c3.2-2.6,5.1-6.6,5.1-11.4v-0.1
				l-0.1-18.9v-0.1c0-4.7-2-9.3-5.2-12.8c-3.2-3.5-7.5-6-12.3-6.7l0.1,0c-3.1-0.4-6-0.1-8.5,0.9l-11.6,4.8"/>
			<path class="st8" d="M293.1,482.5c0,0-4.5,0.5-6.9,1.4c-0.6,0.2-1.5,0.6-2.5,1c-4.2,1.7-9.1,4.1-12.2,6.9l-2.1,2.4"/>
		</g>
		<g>
			<g>
				<path class="st2" d="M235.9,436.5l15.3-6.1c0.1,0,0.2-0.1,0.3,0l-15.3,6.1C236.1,436.4,236,436.4,235.9,436.5z"/>
			</g>
			<g>
				<polygon class="st2" points="236.9,438.2 252.2,432 252.3,461.4 237,467.5 				"/>
			</g>
			<g>
				<polygon class="st3" points="262.8,441.8 278.1,435.7 278.2,465 262.9,471.1 				"/>
			</g>
			<g>
				<polygon class="st2" points="237,467.5 252.3,461.4 278.2,465 262.9,471.1 				"/>
			</g>
			<g>
				<path class="st2" d="M279.3,466.7l-15.3,6.1c0.1,0,0.1-0.1,0.2-0.1c0.1-0.1,0.2-0.3,0.2-0.5l15.3-6.1c0,0.2-0.1,0.4-0.2,0.5
					C279.4,466.6,279.3,466.7,279.3,466.7z"/>
			</g>
			<g>
				<polygon class="st3" points="236.9,438.2 252.2,432 278.1,435.7 262.8,441.8 				"/>
			</g>
			<g>
				<polygon class="st2" points="236.2,436.5 252,430.9 278.9,434.2 263.5,440.3 				"/>
			</g>
			<g>
				<polygon class="st2" points="264.2,441.2 279.6,435 279.7,466 264.3,472.2 				"/>
			</g>
			<g>
				<path class="st2" d="M263.5,440.3l15.3-6.1c0.2,0,0.4,0.1,0.5,0.3l-15.3,6.1C263.9,440.4,263.7,440.3,263.5,440.3z"/>
			</g>
			<g>
				<path class="st2" d="M264,440.6l15.3-6.1c0.1,0.2,0.2,0.4,0.2,0.6l-15.3,6.1C264.2,441,264.2,440.8,264,440.6z"/>
			</g>
			<g>
				<path class="st2" d="M264,440.6c0.1,0.2,0.2,0.4,0.2,0.6l0.1,31c0,0.2-0.1,0.4-0.2,0.5c-0.1,0.1-0.3,0.2-0.5,0.2l-27.3-3.8
					c-0.2,0-0.4-0.1-0.5-0.3c-0.1-0.2-0.2-0.4-0.2-0.6l-0.1-31c0-0.2,0.1-0.4,0.2-0.5c0.1-0.1,0.3-0.2,0.5-0.2l27.3,3.8
					C263.7,440.3,263.9,440.4,264,440.6z M262.9,471.1l-0.1-29.3l-25.9-3.6l0.1,29.3L262.9,471.1"/>
			</g>
			<g>
				<g>
					<path class="st9" d="M262.8,472l-25.9-3.6c-0.4-0.1-0.8-0.4-0.8-0.9l-0.1-29.3c0-0.3,0.1-0.5,0.3-0.7c0.2-0.1,0.4-0.2,0.6-0.2
						c0,0,0.1,0,0.1,0l25.9,3.6c0.4,0.1,0.8,0.4,0.8,0.9l0.1,29.3c0,0.3-0.1,0.5-0.3,0.7c-0.2,0.1-0.4,0.2-0.6,0.2
						C262.8,472,262.8,472,262.8,472z"/>
					<path class="st5" d="M236.9,438.2l25.9,3.6l0.1,29.3l-25.9-3.6L236.9,438.2 M236.9,436.4c-0.4,0-0.8,0.2-1.1,0.4
						c-0.4,0.3-0.6,0.8-0.6,1.3l0.1,29.3c0,0.9,0.6,1.6,1.5,1.7l25.9,3.6c0.1,0,0.2,0,0.2,0c0.4,0,0.8-0.2,1.1-0.4
						c0.4-0.3,0.6-0.8,0.6-1.3l-0.1-29.3c0-0.9-0.6-1.6-1.5-1.7l-25.9-3.6C237.1,436.4,237,436.4,236.9,436.4L236.9,436.4z"/>
				</g>
			</g>
			<polyline class="st10" points="236.3,436.9 252.8,430.4 278.9,434.2 278.6,466.2 263.5,472.3 			"/>
			<line class="st10" x1="263.6" y1="440.9" x2="277.5" y2="435.4"/>
		</g>
	</g>
	<g>
		<g>
			<line class="st0" x1="77.4" y1="393.7" x2="77.4" y2="110.7"/>
			<g>
				<polygon class="st1" points="79.9,112.8 79.4,113.3 77,110.8 74.7,113.3 74.1,112.8 77,109.7 				"/>
			</g>
		</g>
	</g>
	<g>
		<g>
			<line class="st0" x1="115.9" y1="113.2" x2="244.9" y2="113.2"/>
			<g>
				<polygon class="st1" points="118.6,116.4 119,115.9 116.5,113.5 119,111.2 118.6,110.7 115.5,113.5 				"/>
			</g>
			<g>
				<polygon class="st1" points="242.3,116.4 241.8,115.9 244.3,113.5 241.8,111.2 242.3,110.7 245.4,113.5 				"/>
			</g>
		</g>
	</g>
	<g>
		<g>
			<line class="st0" x1="310.4" y1="110.7" x2="310.4" y2="393.7"/>
			<g>
				<polygon class="st1" points="307.6,391.5 308.2,391 310.5,393.5 312.9,391 313.4,391.5 310.5,394.5 				"/>
			</g>
		</g>
	</g>
	<g>
		<g>
			<line class="st0" x1="282.4" y1="393.7" x2="282.4" y2="110.7"/>
			<g>
				<polygon class="st1" points="285.3,112.8 284.8,113.3 282.4,110.8 280.1,113.3 279.6,112.8 282.4,109.7 				"/>
			</g>
		</g>
	</g>
	<g>
		<g>
			<line class="st0" x1="115.9" y1="390.2" x2="243.9" y2="390.2"/>
			<g>
				<polygon class="st1" points="118.1,393.5 118.6,393 116,390.6 118.6,388.3 118.1,387.8 115,390.6 				"/>
			</g>
			<g>
				<polygon class="st1" points="241.8,393.5 241.3,393 243.9,390.6 241.3,388.3 241.8,387.8 244.9,390.6 				"/>
			</g>
		</g>
	</g>
</g>
</svg>
