<?xml version="1.0" encoding="utf-8"?>
<!-- Generator: Adobe Illustrator 19.1.0, SVG Export Plug-In . SVG Version: 6.00 Build 0)  -->
<svg version="1.1" id="Layer_1" xmlns="http://www.w3.org/2000/svg" xmlns:xlink="http://www.w3.org/1999/xlink" x="0px" y="0px"
	 viewBox="0 0 45.2 65.2" style="enable-background:new 0 0 45.2 65.2;" xml:space="preserve">
<style type="text/css">
	.st0{fill:none;stroke:#251549;stroke-width:2;stroke-linecap:round;stroke-linejoin:round;stroke-miterlimit:10;}
</style>
<path class="st0" d="M44.2,21c0-11-9.7-20-21.6-20S1,9.9,1,21v23.3c0,11,9.7,20,21.6,20s21.6-8.9,21.6-20V21z"/>
<path class="st0" d="M32.9,12.8C30.8,10.5,26.9,9,22.5,9h-0.1c-4.4,0-8.3,1.5-10.3,3.7"/>
<path class="st0" d="M37.1,28.6c0-5.3-3.6-13-14.4-13l0,0h0.3l0,0c-8.1,0-14.8,5.2-14.8,17.5"/>
<path class="st0" d="M31.7,35.1c0,9.6-4.5,12.9-8.8,12.9h-0.4c-4.3,0-8.8-3.3-8.8-12.9c0-7.1,2.9-12.9,8.8-12.9"/>
<path class="st0" d="M35.1,47.8c-1.8,4.6-5.4,7.8-12.3,7.9h-0.4C8.8,55.6,8.2,43.3,8.2,33"/>
<path class="st0" d="M19.1,36.6c-0.3,4,1.5,5.6,3.3,5.7l0.2,0c1.8,0.1,3.8-1.1,4.1-5.1l0-0.1c0.4-4.7-1.1-8.7-5-9.1"/>
</svg>
