<?xml version="1.0" encoding="utf-8"?>
<!-- Generator: Adobe Illustrator 19.1.0, SVG Export Plug-In . SVG Version: 6.00 Build 0)  -->
<svg version="1.1" id="Layer_1" xmlns="http://www.w3.org/2000/svg" xmlns:xlink="http://www.w3.org/1999/xlink" x="0px" y="0px"
	 viewBox="0 0 58 63.6" style="enable-background:new 0 0 58 63.6;" xml:space="preserve">
<style type="text/css">
	.st0{fill:none;stroke:#251549;stroke-width:2;stroke-linecap:round;stroke-linejoin:round;stroke-miterlimit:10;}
</style>
<g>
	<g>
		<path class="st0" d="M33.2,1.5c3.7-1.1,8.9-0.9,12.3,6.7c0,0,5,1.9,3.8,7.4c0,0,5.2,3.1,3.6,8.6c0,0,6.2,5.5,2.3,11.9
			c0,0,5.1,6.9-2,11.8c0,0,1.4,7.4-8.4,9.4c0,0-3.8,6.8-11.1,4.9c-2.7-0.7-4.5-3.1-4.5-5.9L29,7C29,4.4,30.7,2.2,33.2,1.5z"/>
		<path class="st0" d="M49.4,15.5c0,0-1.7,4.3-6.7,5.6"/>
		<path class="st0" d="M45.3,25.9c0,0,3.3-2.1,1.2-6.2"/>
		<path class="st0" d="M44.8,57.3c0,0,0.8-2.9-3-5.1"/>
		<path class="st0" d="M44.6,44.1c0,0-1-3.9-5.8-3.8c-1.6,0-3.2,0.1-4.5,0.1"/>
		<path class="st0" d="M40.9,35.6c0,0,0.3,4.6-3,4.6"/>
		<path class="st0" d="M33.3,7c0,0,0.5,4.8,7.1,4.1"/>
	</g>
	<g>
		<path class="st0" d="M24.8,1.5c-3.7-1.1-8.9-0.9-12.3,6.7c0,0-5,1.9-3.8,7.4c0,0-5.2,3.1-3.6,8.6c0,0-6.2,5.5-2.3,11.9
			c0,0-5.1,6.9,2,11.8c0,0-1.4,7.4,8.4,9.4c0,0,3.8,6.8,11.1,4.9c2.7-0.7,4.5-3.1,4.5-5.9L28.9,7C28.9,4.4,27.2,2.2,24.8,1.5z"/>
		<path class="st0" d="M8.6,15.5c0,0,1.7,4.3,6.7,5.6"/>
		<path class="st0" d="M12.6,25.9c0,0-3.3-2.1-1.2-6.2"/>
		<path class="st0" d="M13.2,57.3c0,0-0.8-2.9,3-5.1"/>
		<path class="st0" d="M13.3,44.1c0,0,1-3.9,5.8-3.8c1.6,0,3.2,0.1,4.5,0.1"/>
		<path class="st0" d="M17,35.6c0,0-0.3,4.6,3,4.6"/>
		<path class="st0" d="M24.7,7c0,0-0.5,4.8-7.1,4.1"/>
	</g>
</g>
</svg>
