<?xml version="1.0" encoding="utf-8"?>
<!-- Generator: Adobe Illustrator 19.1.0, SVG Export Plug-In . SVG Version: 6.00 Build 0)  -->
<svg version="1.1" id="Layer_1" xmlns="http://www.w3.org/2000/svg" xmlns:xlink="http://www.w3.org/1999/xlink" x="0px" y="0px"
	 viewBox="0 0 145.1 41.8" style="enable-background:new 0 0 145.1 41.8;" xml:space="preserve">
<style type="text/css">
	.st0{fill:none;stroke:#FFFFFF;stroke-width:1.5;stroke-linecap:round;stroke-linejoin:round;stroke-miterlimit:10;}
	.st1{fill:none;stroke:#FFFFFF;stroke-width:1.5;stroke-miterlimit:10;}
	.st2{fill:none;stroke:#FFFFFF;stroke-miterlimit:10;}
	.st3{fill:#FFFFFF;}
</style>
<g>
	<g>
		<polyline class="st0" points="29,31.5 29,36.9 33.2,36.9 36.9,36.9 36.9,41.1 23.2,41.1 9.5,41.1 9.5,36.9 13.2,36.9 17.3,36.9 
			17.3,31.5 		"/>
		<polygon class="st0" points="45.6,31.5 17.5,31.5 0.8,31.5 0.8,0.7 45.6,0.7 		"/>
		<rect x="5.3" y="5.3" class="st1" width="35.7" height="21.6"/>
	</g>
	<g>
		<polyline class="st0" points="127.8,31.5 127.8,36.9 131.9,36.9 135.6,36.9 135.6,41.1 121.9,41.1 108.2,41.1 108.2,36.9 
			111.9,36.9 116.1,36.9 116.1,31.5 		"/>
		<polygon class="st0" points="144.4,31.5 116.3,31.5 99.5,31.5 99.5,0.7 144.4,0.7 		"/>
		<rect x="104.1" y="5.3" class="st1" width="35.7" height="21.6"/>
	</g>
	<g>
		<g>
			<g>
				<line class="st2" x1="90.8" y1="12.8" x2="54.8" y2="12.8"/>
				<g>
					<polygon class="st3" points="56.7,11.1 57,11.5 55.1,13.2 57,15 56.7,15.4 54.4,13.2 					"/>
				</g>
			</g>
		</g>
		<g>
			<g>
				<line class="st2" x1="89.8" y1="23.8" x2="54.8" y2="23.8"/>
				<g>
					<polygon class="st3" points="88.4,22 88.1,22.3 90,24.1 88.1,25.9 88.4,26.3 90.8,24.1 					"/>
				</g>
			</g>
		</g>
	</g>
</g>
</svg>
