<?xml version="1.0" encoding="utf-8"?>
<!-- Generator: Adobe Illustrator 19.1.0, SVG Export Plug-In . SVG Version: 6.00 Build 0)  -->
<svg version="1.1" id="Layer_1" xmlns="http://www.w3.org/2000/svg" xmlns:xlink="http://www.w3.org/1999/xlink" x="0px" y="0px"
	 viewBox="0 0 47.9 48.3" style="enable-background:new 0 0 47.9 48.3;" xml:space="preserve">
<style type="text/css">
	.st0{fill:none;stroke:#FFFFFF;stroke-width:1.5;stroke-linecap:round;stroke-linejoin:round;stroke-miterlimit:10;}
</style>
<g>
	<g>
		<path class="st0" d="M25.7,24.7l3.7-17.6c0.4-2.4-0.9-4.8-3.2-5.9l0,0c-1.4-0.6-3-0.6-4.3,0l0,0c-2.2,1-3.5,3.4-3.2,5.9l3.7,17.6"
			/>
		<path class="st0" d="M21.4,26.3L4.3,31.8C2,32.7,0.6,35,0.8,37.5l0,0c0.1,1.5,0.9,2.9,2.2,3.7l0,0c2,1.4,4.7,1.3,6.7-0.2L23,29"/>
		<path class="st0" d="M25.2,29.2l13.1,11.8c1.9,1.5,4.7,1.6,6.7,0.2v0c1.2-0.9,2-2.2,2.2-3.7v0c0.2-2.5-1.2-4.8-3.5-5.7l-17.1-5.6"
			/>
		<circle class="st0" cx="24" cy="26.7" r="2.5"/>
	</g>
	<path class="st0" d="M2.7,28.3c0-0.5,0-1,0-1.5c0-8.7,5.1-16.1,12.5-19.5"/>
	<path class="st0" d="M45.9,28.3c0-0.5,0-1,0-1.5c0-8.7-5.1-16.1-12.5-19.5"/>
	<path class="st0" d="M36.2,43.9c-0.4,0.3-0.8,0.5-1.2,0.8c-7.5,4.3-16.5,3.6-23.2-1.1"/>
</g>
</svg>
