<?xml version="1.0" encoding="utf-8"?>
<!-- Generator: Adobe Illustrator 19.1.0, SVG Export Plug-In . SVG Version: 6.00 Build 0)  -->
<svg version="1.1" id="Layer_1" xmlns="http://www.w3.org/2000/svg" xmlns:xlink="http://www.w3.org/1999/xlink" x="0px" y="0px"
	 viewBox="0 0 178.9 62.4" style="enable-background:new 0 0 178.9 62.4;" xml:space="preserve">
<style type="text/css">
	.st0{fill:none;stroke:#FFFFFF;stroke-width:0.75;stroke-miterlimit:10;}
	.st1{fill:none;stroke:#FFFFFF;stroke-width:1.5;stroke-linecap:round;stroke-linejoin:round;stroke-miterlimit:10;}
	.st2{fill:none;stroke:#FFFFFF;stroke-width:1.5;stroke-miterlimit:10;}
	.st3{fill:none;}
	.st4{fill:#FFFFFF;}
	.st5{font-family:'OpenSans-Bold';}
	.st6{font-size:12.6px;}
</style>
<g>
	<polyline class="st0" points="12.9,4 25.5,4 25.5,58.3 12.9,58.3 	"/>
	<polyline class="st0" points="55.5,33.2 57,31 55.5,29 57,31 35.7,31 25.5,31 	"/>
	<g>
		<polyline class="st1" points="90.2,47.3 90.2,52.7 94.4,52.7 98.1,52.7 98.1,56.9 84.4,56.9 70.7,56.9 70.7,52.7 74.4,52.7 
			78.5,52.7 78.5,47.3 		"/>
		<polygon class="st1" points="106.8,47.3 78.7,47.3 62,47.3 62,16.5 106.8,16.5 		"/>
		<rect x="66.5" y="21.1" class="st2" width="35.7" height="21.6"/>
	</g>
	<circle class="st2" cx="4.1" cy="3.9" r="3.2"/>
	<circle class="st2" cx="4.1" cy="31.1" r="3.2"/>
	<circle class="st2" cx="3.9" cy="58.5" r="3.2"/>
	<polyline class="st0" points="143.7,33.3 145.3,31.2 143.7,29.1 145.3,31.2 123.9,31.2 113.7,31.2 	"/>
	<rect x="152" y="18.5" class="st3" width="14.4" height="12.6"/>
	<text transform="matrix(1 0 0 1 155.6022 28.082)" class="st4 st5 st6">x</text>
	<line class="st1" x1="159.2" y1="37.3" x2="171.7" y2="24.8"/>
	<rect x="164.5" y="32.8" class="st3" width="14.4" height="12.6"/>
	<text transform="matrix(1 0 0 1 168.1324 42.4198)" class="st4 st5 st6">y</text>
</g>
</svg>
