<?xml version="1.0" encoding="utf-8"?>
<!-- Generator: Adobe Illustrator 19.1.0, SVG Export Plug-In . SVG Version: 6.00 Build 0)  -->
<svg version="1.1" id="Layer_1" xmlns="http://www.w3.org/2000/svg" xmlns:xlink="http://www.w3.org/1999/xlink" x="0px" y="0px"
	 viewBox="0 0 60.1 42.5" style="enable-background:new 0 0 60.1 42.5;" xml:space="preserve">
<style type="text/css">
	.st0{fill:none;stroke:#FFFFFF;stroke-width:1.5;stroke-miterlimit:10;}
</style>
<g>
	<path class="st0" d="M30,41.5c0,0,10.2-10.5,16.1-16.4c3-3,3.6-6.1,3.5-8.7c-0.2-3.6-2-6.8-4.8-9C37.3,1.5,30,8.9,30,8.9
		s-7.3-7.4-14.8-1.5c-2.8,2.2-4.7,5.4-4.8,9c-0.1,2.6,0.5,5.7,3.5,8.7C19.8,31,30,41.5,30,41.5z"/>
	<g>
		<path class="st0" d="M8.4,4.3c-4.9-5.2-3-3.2-3-3.2"/>
		<path class="st0" d="M5.6,17.8c-7.1-0.2-4.3-0.1-4.3-0.1"/>
		<path class="st0" d="M11.4,31.1c-5.2,4.9-3.2,3-3.2,3"/>
	</g>
	<g>
		<path class="st0" d="M51.7,4.3c4.9-5.2,3-3.2,3-3.2"/>
		<path class="st0" d="M54.5,17.8c7.1-0.2,4.3-0.1,4.3-0.1"/>
		<path class="st0" d="M48.7,31.1c5.2,4.9,3.2,3,3.2,3"/>
	</g>
</g>
</svg>
