<?xml version="1.0" encoding="utf-8"?>
<!-- Generator: Adobe Illustrator 21.0.0, SVG Export Plug-In . SVG Version: 6.00 Build 0)  -->
<svg version="1.1" id="Layer_1" xmlns="http://www.w3.org/2000/svg" xmlns:xlink="http://www.w3.org/1999/xlink" x="0px" y="0px"
	 viewBox="0 0 500 311.8" style="enable-background:new 0 0 500 311.8;" xml:space="preserve">
<style type="text/css">
	.st0{fill:#330C00;}
	.st1{fill:#00B497;}
	.st2{fill:#FDCC9B;}
	.st3{fill:#FCBC85;}
	.st4{fill:#3B2519;}
	.st5{fill:#FFFFFF;}
	.st6{fill:#684B37;}
	.st7{fill:#F7945E;}
	.st8{fill:#F9AA8D;}
	.st9{fill:#8FD6E7;}
	.st10{fill:#F6B1CF;}
	.st11{fill:#F283B4;}
	.st12{fill:#3ABDAA;}
	.st13{fill:#401900;}
	.st14{fill:none;stroke:#FFFFFF;stroke-width:2;stroke-miterlimit:10;stroke-dasharray:3;}
	.st15{fill:#51362A;}
	.st16{fill:#F7941E;}
	.st17{fill:#F36C21;}
	.st18{fill:#B9003B;}
	.st19{fill:#86461B;}
	.st20{fill:#D58E64;}
	.st21{fill:#BF805A;}
	.st22{fill:#744A25;}
	.st23{fill:#573514;}
	.st24{fill:none;stroke:#FFFFFF;stroke-width:2;stroke-linejoin:round;stroke-miterlimit:10;stroke-dasharray:6;}
	.st25{fill:#432B1F;}
	.st26{fill:#694B74;}
	.st27{fill:#563C60;}
</style>
<g>
	<g>
		<g>
			<path class="st0" d="M381.1,29.8v41.4c0,0-23.5,2.4-23.5-9c0,0,6.3,0.8,5-4.5c-1.6-6.7-0.7-17.5,0-23.4
				C363.4,28.4,381.1,29.8,381.1,29.8z"/>
			<path class="st0" d="M381.1,29.8v41.4c0,0,23.5,2.4,23.5-9c0,0-6.3,0.8-5-4.5c1.6-6.7,0.7-17.5,0-23.4
				C398.8,28.4,381.1,29.8,381.1,29.8z"/>
			<path class="st1" d="M381.6,65.1v-6c0,0,9.6-0.3,9.6,5.5L381.6,65.1z"/>
			<path class="st1" d="M380.7,65.1v-6c0,0-9.6-0.3-9.6,5.5L380.7,65.1z"/>
			<g>
				<g>
					<rect x="377.3" y="59.1" class="st2" width="7.6" height="8.5"/>
					<path class="st3" d="M377.3,60.1c0,0,3.2,2,7.6,1.6v-2.6h-7.6V60.1z"/>
					<ellipse class="st3" cx="366.4" cy="45.8" rx="3.7" ry="4.2"/>
					<ellipse class="st3" cx="395.9" cy="45.8" rx="3.7" ry="4.2"/>
					<path class="st2" d="M395.9,37.8c0-6.2-4.6-10.8-14.8-10.8c-10.2,0-14.8,4.6-14.8,10.8c0,6.2-1.1,22.7,14.8,22.7
						C397,60.4,395.9,44,395.9,37.8z"/>
					<g>
						<g>
							<ellipse class="st4" cx="374" cy="44.8" rx="1.6" ry="1.8"/>
							<circle class="st5" cx="373.3" cy="44.1" r="0.5"/>
						</g>
						<path class="st6" d="M371.4,41.1c0.8,0.3,2-1,4.7,0.1c0.5,0.2,0.8-1.7-2.2-1.7C371.4,39.5,370.9,40.9,371.4,41.1z"/>
						<g>
							<ellipse class="st4" cx="388.5" cy="44.8" rx="1.6" ry="1.8"/>
							<circle class="st5" cx="387.8" cy="44.1" r="0.5"/>
						</g>
						<path class="st6" d="M390.9,41.1c-0.8,0.3-2-1-4.7,0.1c-0.5,0.2-0.8-1.7,2.2-1.7C390.9,39.5,391.4,40.9,390.9,41.1z"/>
					</g>
					<path class="st3" d="M381.1,51c-1.6,0-2.5-1.2-2.5-0.6c0,0.6,0.5,1.7,2.5,1.7c2.1,0,2.5-1.1,2.5-1.7S382.7,51,381.1,51z"/>
					<path class="st3" d="M381.1,56.2c-0.5,0-0.9-0.4-0.9-0.2s0.2,0.6,0.9,0.6s0.9-0.4,0.9-0.6S381.7,56.2,381.1,56.2z"/>
					<path class="st7" d="M381.1,54.8c-2.5,0-4-1-4-0.8c0,0.3,0.7,1.3,4,1.3s4-1,4-1.3S383.7,54.8,381.1,54.8z"/>
				</g>
				<circle class="st8" cx="371.9" cy="50.4" r="2.2"/>
				<circle class="st8" cx="390.7" cy="50.4" r="2.2"/>
			</g>
			<path class="st9" d="M381.1,62.5v9.6h-16.7C364.5,68.2,372.4,62.5,381.1,62.5z"/>
			<path class="st9" d="M381.1,62.5v9.6h16.7C397.8,68.2,389.9,62.5,381.1,62.5z"/>
			<path class="st10" d="M381.1,71.6v-9.2c-2.4,0-4.8,0.5-7,1.2L381.1,71.6z"/>
			<path class="st10" d="M381.1,71.6v-9.2c2.4,0,4.8,0.5,7,1.2L381.1,71.6z"/>
			<path class="st11" d="M381.1,62.5c-1.8,0-3.5,0.2-5.2,0.6c0.2,1.4,1.2,4.3,5.2,4.3c4,0,4.9-2.9,5.2-4.3
				C384.7,62.7,382.9,62.5,381.1,62.5z"/>
			<path class="st2" d="M377.3,62.8c0,0,0,3.4,3.8,3.4c3.8,0,3.8-3.4,3.8-3.4S381,61.4,377.3,62.8z"/>
			<path class="st12" d="M375.3,63.2c0.1-0.7-4.4-0.2-4.4,1.9c0,2.1,5,3.7,6.4,4.5c1.4,0.8,3.8,2.5,3.8,2.5s0.5-1.8-1.7-3.1
				C377.3,67.6,375.2,64.2,375.3,63.2z"/>
			<path class="st12" d="M386.9,63.2c-0.1-0.7,4.4-0.2,4.4,1.9c0,2.1-5,3.7-6.4,4.5c-1.4,0.8-3.8,2.5-3.8,2.5s-0.5-1.8,1.7-3.1
				C384.9,67.6,387.1,64.2,386.9,63.2z"/>
			<path class="st13" d="M381.1,18.6c-17.1,0-19.4,14.9-19.4,26c0,11,5.7,17.4,10.2,19.2c0,0-7.1-12.6-3.6-24.3
				c2.9-9.6,12.9-6.7,12.9-6.7s10-2.8,12.9,6.7c3.5,11.7-3.6,24.3-3.6,24.3c4.5-1.8,10.2-8.2,10.2-19.2
				C400.6,33.5,398.3,18.6,381.1,18.6z"/>
			<path class="st13" d="M386.9,35.4c0,0-6.4,3.2-12.1,2.6c-5.7-0.6-7.9,5.2-7.5,9.1l-1.9-8.7l3.4-6.9l9.8-5l9.2,0.4l4.4,3.8
				l3.7,4.6l2.6,3l-1.3,9.4l-2.7,3.2C394.6,50.9,397,38.9,386.9,35.4z"/>
		</g>
		<path class="st14" d="M401.8,74.9h-41.3c-6.6,0-12-5.4-12-12V21.6c0-6.6,5.4-12,12-12h41.3c6.6,0,12,5.4,12,12v41.3
			C413.8,69.5,408.4,74.9,401.8,74.9z"/>
	</g>
	<g>
		<path class="st14" d="M151.2,74.3h-41.3c-6.6,0-12-5.4-12-12V21c0-6.6,5.4-12,12-12h41.3c6.6,0,12,5.4,12,12v41.3
			C163.2,68.9,157.8,74.3,151.2,74.3z"/>
		<g>
			<g>
				<rect x="126.4" y="56" class="st2" width="8" height="9"/>
				<path class="st3" d="M126.4,57.1c0,0,3.4,2.1,8,1.6V56h-8V57.1z"/>
				<ellipse class="st3" cx="114.9" cy="42.1" rx="3.9" ry="4.5"/>
				<ellipse class="st3" cx="146" cy="42.1" rx="3.9" ry="4.5"/>
				<path class="st2" d="M145.9,33.6c0-6.6-4.8-11.4-15.5-11.4s-15.5,4.8-15.5,11.4s-1.1,23.8,15.5,23.8S145.9,40.2,145.9,33.6z"/>
				<g>
					<g>
						<ellipse class="st4" cx="122.9" cy="41.1" rx="1.7" ry="1.8"/>
						<circle class="st5" cx="122.1" cy="40.2" r="0.5"/>
					</g>
					<path class="st15" d="M120.2,36.5c0.8,0.4,2.1-1.3,5,0.2c0.5,0.3,0.8-2.4-2.3-2.4C120.2,34.3,119.7,36.3,120.2,36.5z"/>
					<g>
						<ellipse class="st4" cx="138.2" cy="41.1" rx="1.7" ry="1.8"/>
						<circle class="st5" cx="137.5" cy="40.2" r="0.5"/>
					</g>
					<path class="st15" d="M140.7,36.5c-0.8,0.4-2.1-1.3-5,0.2c-0.5,0.3-0.8-2.4,2.3-2.4C140.7,34.3,141.2,36.3,140.7,36.5z"/>
				</g>
				<path class="st3" d="M130.4,47.5c-1.7,0-2.7-1.2-2.7-0.6c0,0.6,0.5,1.7,2.7,1.7s2.7-1.1,2.7-1.7
					C133.1,46.3,132.1,47.5,130.4,47.5z"/>
				<path class="st3" d="M130.4,53c-0.6,0-0.9-0.4-0.9-0.2c0,0.2,0.2,0.6,0.9,0.6s0.9-0.4,0.9-0.6C131.3,52.6,131,53,130.4,53z"/>
				<path class="st7" d="M130.4,51.5c-2.6,0-4.2-1.1-4.2-0.8c0,0.3,0.8,1.3,4.2,1.3c3.5,0,4.2-1.1,4.2-1.3
					C134.6,50.4,133.1,51.5,130.4,51.5z"/>
			</g>
			<path class="st16" d="M130.4,59.6v10.1H111C111,65.6,121.2,59.6,130.4,59.6z"/>
			<path class="st16" d="M130.4,59.6v10.1h19.4C149.9,65.6,139.6,59.6,130.4,59.6z"/>
			<path class="st17" d="M130.4,59.6c-2,0-4,0.3-5.9,0.7c0,0,2.2,2.8,5.9,2.8c3.5,0,5.8-2.4,6.1-2.7
				C134.5,59.9,132.5,59.6,130.4,59.6z"/>
			<path class="st2" d="M126.4,60c0,0,1.2,1.5,4,1.5c2.8,0,4-1.5,4-1.5S130.3,58.4,126.4,60z"/>
			<path class="st15" d="M143.2,20.9c0,0-5.8-7.3-17.7-4.6c-12,2.8-12.9,10-12.5,17c0.4,7,1.3,11.1,2.5,10.6
				c1.1-0.5,0.5-5.1,0.7-6.2c0.1-1.1,1.2-5.9,8.5-5.2c7.3,0.7,13.4-1.9,13.4-1.9s2.5,3.1,4.1,3.7c3.2,1.2,2.2,9.2,3.5,9.2
				C146.8,43.5,153,25.1,143.2,20.9z"/>
		</g>
	</g>
	<g>
		<g>
			<path class="st0" d="M54.5,150.4v28.1c0,0-14.8,1.7-14.8-6.1c0,0,4,0.5,3.2-3c-1-4.5-0.5-11.9,0-15.9
				C43.3,149.4,54.5,150.4,54.5,150.4z"/>
			<path class="st0" d="M25.8,137.2v41.5c0,0,23.6,2.4,23.6-9c0,0-6.3,0.8-5-4.5c1.6-6.7,0.7-17.5,0-23.5
				C43.6,135.8,25.8,137.2,25.8,137.2z"/>
			<g>
				<g>
					<rect x="36.3" y="166.9" class="st2" width="7.6" height="8.5"/>
					<path class="st3" d="M36.3,167.9c0,0,3.2,2,7.6,1.6v-2.6h-7.6V167.9z"/>
					<ellipse class="st3" cx="25.3" cy="153.6" rx="3.7" ry="4.2"/>
					<ellipse class="st3" cx="54.9" cy="153.6" rx="3.7" ry="4.2"/>
					<path class="st2" d="M54.9,145.5c0-6.3-4.6-10.8-14.8-10.8c-10.2,0-14.8,4.6-14.8,10.8c0,6.3-1.1,22.7,14.8,22.7
						S54.9,151.8,54.9,145.5z"/>
					<g>
						<g>
							<ellipse class="st4" cx="32.9" cy="152.6" rx="1.6" ry="1.8"/>
							<circle class="st5" cx="32.2" cy="151.9" r="0.5"/>
						</g>
						<path class="st6" d="M30.3,148.8c0.8,0.3,2-1,4.8,0.1c0.5,0.2,0.8-1.7-2.2-1.7C30.3,147.2,29.9,148.7,30.3,148.8z"/>
						<g>
							<ellipse class="st4" cx="47.5" cy="152.6" rx="1.6" ry="1.8"/>
							<circle class="st5" cx="46.8" cy="151.9" r="0.5"/>
						</g>
						<path class="st6" d="M49.9,148.8c-0.8,0.3-2-1-4.8,0.1c-0.5,0.2-0.8-1.7,2.2-1.7C49.9,147.2,50.3,148.7,49.9,148.8z"/>
					</g>
					<path class="st3" d="M40.1,158.8c-1.6,0-2.5-1.2-2.5-0.6c0,0.6,0.5,1.7,2.5,1.7c2.1,0,2.5-1.1,2.5-1.7S41.7,158.8,40.1,158.8z"
						/>
					<path class="st3" d="M40.1,164.1c-0.5,0-0.9-0.4-0.9-0.2s0.2,0.6,0.9,0.6c0.7,0,0.9-0.4,0.9-0.6S40.6,164.1,40.1,164.1z"/>
					<path class="st7" d="M40.1,162.6c-2.5,0-4-1-4-0.8c0,0.3,0.7,1.3,4,1.3c3.3,0,4-1,4-1.3S42.6,162.6,40.1,162.6z"/>
				</g>
				<circle class="st8" cx="30.8" cy="158.2" r="2.2"/>
				<circle class="st8" cx="49.6" cy="158.2" r="2.2"/>
			</g>
			<path class="st18" d="M40.1,170.3v9.6H23.4C23.4,176.1,31.3,170.3,40.1,170.3z"/>
			<path class="st18" d="M40.1,170.3v9.6h16.7C56.8,176.1,48.9,170.3,40.1,170.3z"/>
			<path class="st11" d="M40.1,170.3c-1.8,0-3.5,0.2-5.2,0.7c0.2,1.4,1.2,4.4,5.2,4.4c4,0,4.9-2.9,5.2-4.4
				C43.6,170.6,41.9,170.3,40.1,170.3z"/>
			<path class="st2" d="M36.3,170.7c0,0,0,3.4,3.8,3.4c3.8,0,3.8-3.4,3.8-3.4S40,169.2,36.3,170.7z"/>
			<path class="st13" d="M40.1,126.3c-17.2,0-24.2,16.1-19.5,26c5.1,10.8,1.8,22.5,6.2,24.3c0,0-3.2-17.7,0.3-29.4
				c2.9-9.6,12.9-6.7,12.9-6.7s10-2.8,12.9,6.7c-1.8,14.6,1.9,26.9,1.9,26.9c2.4-5.6,2.6-10.4,2.6-21.5
				C57.5,141.6,57.3,126.3,40.1,126.3z"/>
			<path class="st13" d="M45.9,143.1c0,0-6.4,3.2-12.1,2.6c-5.7-0.6-7.9,5.2-7.5,9.2l-1.9-8.7l3.4-6.9l9.8-5l9.2,0.4l4.4,3.8
				l3.7,4.6l2.6,3l-1.3,9.4l-2.7,3.2C53.6,158.8,56,146.7,45.9,143.1z"/>
		</g>
		<path class="st14" d="M60.8,182.8H19.3c-6.6,0-12-5.4-12-12v-41.5c0-6.6,5.4-12,12-12h41.5c6.6,0,12,5.4,12,12v41.5
			C72.8,177.4,67.4,182.8,60.8,182.8z"/>
	</g>
	<g>
		<path class="st14" d="M418.9,288.2h-59.7c-6.6,0-12-5.4-12-12v-59.7c0-6.6,5.4-12,12-12h59.7c6.6,0,12,5.4,12,12v59.7
			C430.9,282.8,425.5,288.2,418.9,288.2z"/>
		<g>
			<g>
				<rect x="385.9" y="265.8" class="st2" width="10.2" height="11.4"/>
				<path class="st3" d="M385.9,267.1c0,0,4.3,2.7,10.2,2.1v-3.4h-10.2V267.1z"/>
				<ellipse class="st3" cx="371.2" cy="248.2" rx="5" ry="5.7"/>
				<ellipse class="st3" cx="410.7" cy="248.2" rx="5" ry="5.7"/>
				<path class="st2" d="M410.6,237.4c0-8.3-6.1-14.4-19.7-14.4s-19.7,6.1-19.7,14.4c0,8.3-1.4,30.3,19.7,30.3
					S410.6,245.7,410.6,237.4z"/>
				<g>
					<g>
						<ellipse class="st4" cx="381.3" cy="246.8" rx="2.1" ry="2.3"/>
						<circle class="st5" cx="380.4" cy="245.8" r="0.6"/>
					</g>
					<path class="st19" d="M377.9,241c1,0.5,2.6-1.7,6.3,0.2c0.7,0.4,1.1-3-2.9-3C377.9,238.2,377.3,240.7,377.9,241z"/>
					<g>
						<ellipse class="st4" cx="400.8" cy="246.8" rx="2.1" ry="2.3"/>
						<circle class="st5" cx="399.9" cy="245.8" r="0.6"/>
					</g>
					<path class="st19" d="M403.9,241c-1,0.5-2.6-1.7-6.3,0.2c-0.7,0.4-1.1-3,2.9-3C403.9,238.2,404.6,240.7,403.9,241z"/>
				</g>
				<path class="st3" d="M390.9,255c-2.1,0-3.4-1.6-3.4-0.8c0,0.8,0.6,2.2,3.4,2.2s3.4-1.4,3.4-2.2S393,255,390.9,255z"/>
				<path class="st3" d="M390.9,262c-0.7,0-1.2-0.5-1.2-0.3s0.2,0.8,1.2,0.8s1.2-0.5,1.2-0.8S391.7,262,390.9,262z"/>
				<path class="st7" d="M390.9,260.1c-3.3,0-5.4-1.4-5.4-1c0,0.3,1,1.7,5.4,1.7s5.4-1.4,5.4-1.7
					C396.3,258.7,394.3,260.1,390.9,260.1z"/>
			</g>
			<path class="st20" d="M390.9,270.4v12.8h-24.7C366.3,278,379.3,270.4,390.9,270.4z"/>
			<path class="st20" d="M390.9,270.4v12.8h24.7C415.6,278,402.6,270.4,390.9,270.4z"/>
			<path class="st21" d="M390.9,270.4c-2.5,0-5,0.3-7.5,0.9c0,0,2.7,3.5,7.5,3.5c4.4,0,7.3-3,7.8-3.5
				C396.1,270.7,393.5,270.4,390.9,270.4z"/>
			<path class="st2" d="M385.9,270.8c0,0,1.5,1.8,5.1,1.8c3.6,0,5.1-1.8,5.1-1.8S390.7,268.9,385.9,270.8z"/>
			<path class="st19" d="M390.9,263.3v4.7c-10.6,0-14.1-5.7-15.2-7.2c-0.8-1.2,5,4.1,10.1,4.1C388.1,264.9,388,263.3,390.9,263.3z"
				/>
			<path class="st19" d="M390.9,263.3v4.7c10.6,0,14.1-5.7,15.2-7.2c0.8-1.2-5,4.1-10.1,4.1C393.8,264.9,393.9,263.3,390.9,263.3z"
				/>
			<path class="st19" d="M391.1,231.9v-16.7c-17.4,0-20.6,6.5-21.5,18.7c-0.8,12.2,1,16.4,2.2,16.4c1.2,0,0.6-14,2.2-17
				C377.1,227.8,382.6,231.9,391.1,231.9z"/>
			<path class="st19" d="M391.1,231.9v-16.7c17.4,0,20.6,6.5,21.5,18.7c0.8,12.2-1,16.4-2.2,16.4c-1.2,0-0.6-14-2.2-17
				C405,227.8,399.6,231.9,391.1,231.9z"/>
			<path class="st22" d="M380.1,272.3c-7.7,2.6-13.9,7.3-13.9,10.9h13.9L380.1,272.3L380.1,272.3L380.1,272.3z"/>
			<path class="st23" d="M380.9,283.2v-11.7c0,0-2,0.8-2.7,1.1l-2,10.6L380.9,283.2L380.9,283.2z"/>
			<path class="st22" d="M401.8,272.3c7.7,2.6,13.9,7.3,13.9,10.9h-13.9L401.8,272.3L401.8,272.3L401.8,272.3z"/>
			<path class="st23" d="M401,283.2v-11.7c0,0,2,0.8,2.7,1.1l2,10.6L401,283.2L401,283.2z"/>
		</g>
	</g>
	<g>
		<path class="st24" d="M163.7,254.9c0-114.6,82.1-207.3,183.5-207.3"/>
		<path class="st24" d="M163.7,254.9c0-59.4,117.4-107.5,262.4-107.5"/>
		<path class="st24" d="M163.7,274.7c0,0.2,82.1,0.4,183.5,0.4"/>
		<path class="st24" d="M347.2,246.9c0-111.8-82.3-202.2-184.1-202.2"/>
		<path class="st24" d="M347.2,275.1c0-67.4-119.5-122-267.2-122"/>
		<path class="st24" d="M39.2,188.1c0,42.5,18.3,76.9,40.8,76.9"/>
		<path class="st24" d="M459.3,182.2c0,45.8-12.7,82.8-28.4,82.8"/>
		<path class="st24" d="M34.5,119.3c0-42,20.6-75.5,62.6-75.5"/>
		<path class="st24" d="M458.5,109.6c0-34.7-21-66.2-42.7-66.2"/>
		<path class="st24" d="M163.2,40.7c0,0.3,82.9,0.6,185.3,0.6"/>
		<path class="st24" d="M126.4,81.4c0,27.1,57.6,49.1,128.8,49.1"/>
		<path class="st24" d="M380.3,79.6c0,28.1-55.9,50.9-125.1,50.9"/>
	</g>
	<g>
		<g>
			<path class="st25" d="M100.6,268.6c2.3,7.1-1.3,20.3-1.3,20.3h21.2v-40.4l-23.2,4.9C97.2,253.3,98.5,262.1,100.6,268.6z"/>
			<path class="st25" d="M140.3,268.6c-2.3,7.1,1.3,20.3,1.3,20.3h-21.2v-40.4l23.2,4.9C143.7,253.3,142.4,262.1,140.3,268.6z"/>
			<g>
				<g>
					<rect x="115.5" y="272.1" class="st2" width="9.8" height="12.1"/>
					<path class="st3" d="M115.5,273.5c0,0,4.1,2.9,9.8,2.2v-3.6h-9.8V273.5z"/>
					<ellipse class="st3" cx="101.3" cy="253.3" rx="4.8" ry="6"/>
					<ellipse class="st3" cx="139.5" cy="253.3" rx="4.8" ry="6"/>
					<path class="st2" d="M139.5,241.9c0-8.8-5.9-15.3-19-15.3c-13.2,0-19,6.5-19,15.3c0,8.8-1.4,32.1,19,32.1
						C140.8,274,139.5,250.7,139.5,241.9z"/>
					<g>
						<g>
							<ellipse class="st4" cx="111.1" cy="251.9" rx="2.1" ry="2.5"/>
							<ellipse class="st5" cx="110.2" cy="250.8" rx="0.6" ry="0.7"/>
						</g>
						<path class="st15" d="M107.8,246.6c1,0.4,2.5-1.4,6.1,0.2c0.7,0.3,1-2.4-2.8-2.4C107.8,244.3,107.3,246.3,107.8,246.6z"/>
						<g>
							<ellipse class="st4" cx="129.9" cy="251.9" rx="2.1" ry="2.5"/>
							<ellipse class="st5" cx="129" cy="250.8" rx="0.6" ry="0.7"/>
						</g>
						<path class="st15" d="M133,246.6c-1,0.4-2.5-1.4-6.1,0.2c-0.7,0.3-1-2.4,2.8-2.4C133,244.3,133.6,246.3,133,246.6z"/>
					</g>
					<path class="st3" d="M120.4,260.6c-2,0-3.3-1.7-3.3-0.9c0,0.8,0.6,2.3,3.3,2.3c2.7,0,3.3-1.5,3.3-2.3
						C123.7,258.9,122.5,260.6,120.4,260.6z"/>
					<path class="st3" d="M120.4,268c-0.7,0-1.1-0.6-1.1-0.3s0.2,0.8,1.1,0.8c0.9,0,1.1-0.5,1.1-0.8S121.1,268,120.4,268z"/>
					<path class="st7" d="M120.4,266c-3.2,0-5.2-1.4-5.2-1.1c0,0.4,0.9,1.8,5.2,1.8s5.2-1.4,5.2-1.8
						C125.6,264.5,123.6,266,120.4,266z"/>
				</g>
				<ellipse class="st8" cx="108.5" cy="259.8" rx="2.8" ry="3.1"/>
				<ellipse class="st8" cx="132.7" cy="259.8" rx="2.8" ry="3.1"/>
			</g>
			<path class="st26" d="M120.4,276.9v13.6H98.9C98.9,285,109.1,276.9,120.4,276.9z"/>
			<path class="st26" d="M120.4,276.9v13.6h21.5C141.9,285,131.7,276.9,120.4,276.9z"/>
			<path class="st27" d="M120.3,276.9c-2.4,0-4.9,0.4-7.3,1c0,0,2.7,3.7,7.3,3.7c4.3,0,7.2-3.2,7.6-3.7
				C125.4,277.3,122.9,276.9,120.3,276.9z"/>
			<path class="st2" d="M115.5,277.4c0,0,1.4,2,4.9,2c3.5,0,4.9-2,4.9-2S120.2,275.3,115.5,277.4z"/>
			<path class="st15" d="M137.7,223.5c-12.4-16.2-35.9-9.7-41.1,12.6c-5.2,22.3,4,32.7,4,32.7c-3.5-13.1,4.7-26.7,11.8-26.9
				c7.1-0.2,18.3-4.5,18.3-4.5s1.9,10.5,8,14.3c4.6,2.9,2.8,11.4,1.7,17.1C144.6,267,157.7,230.2,137.7,223.5z"/>
		</g>
		<path class="st14" d="M151.7,294.3H92.1c-6.6,0-12-5.4-12-12v-59.7c0-6.6,5.4-12,12-12h59.7c6.6,0,12,5.4,12,12v59.7
			C163.7,288.9,158.3,294.3,151.7,294.3z"/>
	</g>
	<g>
		<g>
			<path class="st0" d="M444,128.8v41.5c0,0,31.7,2.4,31.7-9c0,0-8.5,0.8-6.8-4.5c2.2-6.7,1-17.5,0-23.5
				C467.9,127.4,444,128.8,444,128.8z"/>
			<g>
				<g>
					<rect x="455.1" y="157.7" class="st2" width="7.6" height="8.5"/>
					<path class="st3" d="M455.1,158.7c0,0,3.2,2,7.6,1.6v-2.6h-7.6V158.7z"/>
					<ellipse class="st3" cx="444.1" cy="144.5" rx="3.7" ry="4.2"/>
					<ellipse class="st3" cx="473.7" cy="144.5" rx="3.7" ry="4.2"/>
					<path class="st2" d="M473.7,136.3c0-6.3-4.6-10.8-14.8-10.8c-10.2,0-14.8,4.6-14.8,10.8c0,6.3-1.1,22.7,14.8,22.7
						S473.7,142.6,473.7,136.3z"/>
					<g>
						<g>
							<ellipse class="st4" cx="451.7" cy="143.4" rx="1.6" ry="1.8"/>
							<circle class="st5" cx="451" cy="142.7" r="0.5"/>
						</g>
						<path class="st6" d="M449.1,139.7c0.8,0.3,2-1,4.8,0.1c0.5,0.2,0.8-1.7-2.2-1.7C449.1,138,448.7,139.5,449.1,139.7z"/>
						<g>
							<ellipse class="st4" cx="466.3" cy="143.4" rx="1.6" ry="1.8"/>
							<circle class="st5" cx="465.6" cy="142.7" r="0.5"/>
						</g>
						<path class="st6" d="M468.7,139.7c-0.8,0.3-2-1-4.8,0.1c-0.5,0.2-0.8-1.7,2.2-1.7C468.7,138,469.1,139.5,468.7,139.7z"/>
					</g>
					<path class="st3" d="M458.9,149.6c-1.6,0-2.5-1.2-2.5-0.6c0,0.6,0.5,1.7,2.5,1.7s2.5-1.1,2.5-1.7S460.5,149.6,458.9,149.6z"/>
					<path class="st3" d="M458.9,154.9c-0.5,0-0.9-0.4-0.9-0.2c0,0.2,0.2,0.6,0.9,0.6s0.9-0.4,0.9-0.6
						C459.8,154.5,459.5,154.9,458.9,154.9z"/>
					<path class="st7" d="M458.9,153.4c-2.5,0-4-1-4-0.8c0,0.3,0.7,1.3,4,1.3s4-1,4-1.3C462.9,152.4,461.4,153.4,458.9,153.4z"/>
				</g>
				<circle class="st8" cx="449.7" cy="149" r="2.2"/>
				<circle class="st8" cx="468.5" cy="149" r="2.2"/>
			</g>
			<path class="st9" d="M458.9,161.1v9.6h-16.7C442.2,166.9,450.1,161.1,458.9,161.1z"/>
			<path class="st9" d="M458.9,161.1v9.6h16.7C475.6,166.9,467.7,161.1,458.9,161.1z"/>
			<path class="st10" d="M458.9,170.3v-9.2c-2.4,0-4.8,0.5-7,1.2L458.9,170.3z"/>
			<path class="st10" d="M458.9,170.3v-9.2c2.4,0,4.8,0.5,7,1.2L458.9,170.3z"/>
			<path class="st11" d="M458.9,161.1c-1.8,0-3.5,0.2-5.2,0.7c0.2,1.4,1.2,4.4,5.2,4.4c4,0,4.9-2.9,5.2-4.4
				C462.4,161.4,460.7,161.1,458.9,161.1z"/>
			<path class="st2" d="M455.1,161.5c0,0,0,3.4,3.8,3.4c3.8,0,3.8-3.4,3.8-3.4S458.8,160,455.1,161.5z"/>
			<path class="st13" d="M458.9,117.1c-17.2,0-19.5,15-19.5,26c0,11,5.7,17.5,10.2,19.2c0,0-7.1-12.6-3.6-24.3
				c2.9-9.6,12.9-6.7,12.9-6.7s10-2.8,12.9,6.7c3.5,11.7-3.6,24.3-3.6,24.3c4.5-1.8,10.2-8.2,10.2-19.2
				C478.4,132.1,476.1,117.1,458.9,117.1z"/>
			<path class="st13" d="M464.3,128.8c0,0-6.4,3.2-12.1,2.6c-5.7-0.6-7.9,5.2-7.5,9.2l-1.9-8.7l3.4-6.9l9.8-5l9.2,0.4l4.4,3.8
				l3.7,4.6l2.6,3l-1.3,9.4l-2.7,3.2C472,144.5,474.4,132.4,464.3,128.8z"/>
		</g>
		<path class="st14" d="M479.6,173.6h-41.5c-6.6,0-12-5.4-12-12v-41.5c0-6.6,5.4-12,12-12h41.5c6.6,0,12,5.4,12,12v41.5
			C491.6,168.2,486.2,173.6,479.6,173.6z"/>
	</g>
</g>
</svg>
