<?xml version="1.0" encoding="utf-8"?>
<!-- Generator: Adobe Illustrator 21.0.0, SVG Export Plug-In . SVG Version: 6.00 Build 0)  -->
<svg version="1.1" id="Layer_1" xmlns="http://www.w3.org/2000/svg" xmlns:xlink="http://www.w3.org/1999/xlink" x="0px" y="0px"
	 viewBox="0 0 512 512" style="enable-background:new 0 0 512 512;" xml:space="preserve">
<style type="text/css">
	.st0{fill:#192231;}
</style>
<g>
	<g>
		<path class="st0" d="M386.7,496h103.5c5.4,0,9.8-4.5,9.8-10s-4.4-10-9.8-10H66.7l53.4-60.9c4.7,2.5,10,4,15.7,4
			c13.1,0,24.4-7.7,30-18.8l54.6,14.1c1.4,17.7,15.9,31.6,33.5,31.6c18.6,0,33.7-15.5,33.7-34.5c0-10.5-4.6-19.9-11.8-26.2l44.5-109
			l31.7,82.8c-7.6,6.3-12.4,16-12.4,26.7c0,19,15.1,34.5,33.7,34.5c18.6,0,33.7-15.5,33.7-34.5c0-3.9-0.6-7.6-1.8-11.1l38.9-39.8
			c3.8-3.9,3.8-10.3,0-14.2c-3.8-3.9-10-3.9-13.9,0l-36.7,37.6c-5.6-4.3-12.6-6.9-20.2-6.9c-1,0-2.1,0.1-3.1,0.2l-39-101.8
			l39.2-95.9c1,0.1,1.9,0.1,2.9,0.1c15.6,0,28.7-10.9,32.5-25.7h61.7c5.4,0,9.8-4.5,9.8-10c0-5.5-4.4-10-9.8-10h-62.4
			c-4.6-13.5-17.1-23.2-31.8-23.2c-18.6,0-33.7,15.5-33.7,34.5c0,10.8,4.9,20.5,12.6,26.8l-31.3,76.5l-45.7-119.3
			c6.9-6.3,11.2-15.5,11.2-25.6c0-19-15.1-34.5-33.7-34.5s-33.7,15.5-33.7,34.5c0,8.2,2.8,15.8,7.5,21.7l-80.8,125.4
			c-3.5-1.3-7.3-2-11.2-2c-4,0-7.9,0.7-11.5,2.1l-69.4-93.6V28.9c0-5.5-4.4-10-9.8-10s-9.8,4.5-9.8,10v98.7H17.8
			c-5.4,0-9.8,4.5-9.8,10c0,5.5,4.4,10,9.8,10h16.4v100.9H17.8c-5.4,0-9.8,4.5-9.8,10s4.4,10,9.8,10h16.4V372H17.8
			c-5.4,0-9.8,4.5-9.8,10c0,5.5,4.4,10,9.8,10h16.4V486c0,5.5,4.4,10,9.8,10h84.4 M266.2,496h100.9 M148.1,496h98.5 M373.3,371.3
			c7.8,0,14.1,6.5,14.1,14.4c0,7.9-6.3,14.4-14.1,14.4c-7.8,0-14.1-6.5-14.1-14.4C359.2,377.8,365.5,371.3,373.3,371.3z
			 M373.3,104.9c7.8,0,14.1,6.5,14.1,14.4s-6.3,14.4-14.1,14.4c-7.8,0-14.1-6.5-14.1-14.4S365.5,104.9,373.3,104.9z M135.9,398.9
			c-7.8,0-14.1-6.5-14.1-14.4c0-7.9,6.3-14.4,14.1-14.4s14.1,6.5,14.1,14.4C149.9,392.5,143.6,398.9,135.9,398.9z M254,425.8
			c-7.8,0-14.1-6.5-14.1-14.4c0-7.9,6.3-14.4,14.1-14.4c7.8,0,14.1,6.5,14.1,14.4C268.1,419.4,261.7,425.8,254,425.8z M252.8,63.4
			c7.8,0,14.1,6.5,14.1,14.4s-6.3,14.4-14.1,14.4c-7.8,0-14.1-6.5-14.1-14.4S245,63.4,252.8,63.4z M134.7,243
			c7.8,0,14.1,6.5,14.1,14.4c0,7.9-6.3,14.4-14.1,14.4s-14.1-6.5-14.1-14.4C120.6,249.5,126.9,243,134.7,243z M53.8,164.6l53.7,72.4
			c-4.1,5.7-6.5,12.8-6.5,20.4c0,19,15.1,34.5,33.7,34.5s33.7-15.5,33.7-34.5c0-7.7-2.5-14.8-6.7-20.6l81.2-126.1
			c3.1,1,6.4,1.5,9.9,1.5c1.6,0,3.1-0.1,4.7-0.3l52.6,137.4l-52.2,127.8c-1.3-0.1-2.6-0.2-3.9-0.2c-12.6,0-23.7,7.2-29.4,17.7
			l-55.3-14.3c-2-17.1-16.2-30.3-33.4-30.3c-18.6,0-33.7,15.5-33.7,34.5c0,5.9,1.5,11.5,4,16.3l-52.4,59.7V164.6z"/>
	</g>
</g>
</svg>
