<?xml version="1.0" encoding="utf-8"?>
<!-- Generator: Adobe Illustrator 21.0.0, SVG Export Plug-In . SVG Version: 6.00 Build 0)  -->
<svg version="1.1" id="Layer_1" xmlns="http://www.w3.org/2000/svg" xmlns:xlink="http://www.w3.org/1999/xlink" x="0px" y="0px"
	 viewBox="0 0 489.4 489.4" style="enable-background:new 0 0 489.4 489.4;" xml:space="preserve">
<style type="text/css">
	.st0{fill:#A7A9AC;}
</style>
<g>
	<g>
		<circle id="XMLID_496_" class="st0" cx="140.8" cy="230.3" r="27.7"/>
		<circle id="XMLID_495_" class="st0" cx="244.7" cy="230.3" r="27.7"/>
		<circle id="XMLID_491_" class="st0" cx="348.6" cy="230.3" r="27.7"/>
		<path d="M36.8,462.3c20.3,0,36.8-16.5,36.8-36.8c0-16.9-11.5-31.2-27.1-35.4v-70.9H132v70.6c-16.1,3.9-28.1,18.4-28.1,35.7
			c0,20.3,16.5,36.8,36.8,36.8s36.8-16.5,36.8-36.8c0-17-11.7-31.4-27.4-35.5V265.9c15.7-4.2,27.4-18.5,27.4-35.5
			s-11.7-31.4-27.4-35.5v-24h85.5v23.8c-15.9,4.1-27.7,18.5-27.7,35.6c0,20.3,16.5,36.8,36.8,36.8s36.8-16.5,36.8-36.8
			c0-17.2-11.8-31.6-27.7-35.6v-24h85.5v24c-15.7,4.2-27.4,18.5-27.4,35.5s11.7,31.4,27.4,35.5v35.2h-94.6c-5,0-9.1,4.1-9.1,9.1
			v79.8c-15.9,4.1-27.7,18.5-27.7,35.6c0,20.3,16.5,36.8,36.8,36.8s36.8-16.5,36.8-36.8c0-17.2-11.8-31.6-27.7-35.6v-70.7h85.5v70.8
			c-15.7,4.2-27.4,18.5-27.4,35.5c0,20.3,16.5,36.8,36.8,36.8s36.8-16.5,36.8-36.8c0-17.3-12-31.8-28.1-35.7v-70.6h85.5V390
			c-15.6,4.3-27.1,18.5-27.1,35.4c0,20.3,16.5,36.8,36.8,36.8s36.8-16.5,36.8-36.8c0-17.4-12.1-32-28.4-35.8V310
			c0-5-4.1-9.1-9.1-9.1h-94.5v-35.1c16.1-3.9,28.1-18.4,28.1-35.7s-12-31.8-28.1-35.7v-32.7c0-5-4.1-9.1-9.1-9.1h-94.5V92.9
			c15.9-4.1,27.7-18.5,27.7-35.6c0-20.3-16.5-36.8-36.8-36.8S207.9,37,207.9,57.3c0,17.2,11.8,31.6,27.7,35.6v59.7h-94.5
			c-5,0-9.1,4.1-9.1,9.1v32.9c-16.1,3.9-28.1,18.4-28.1,35.7s12,31.8,28.1,35.7v35.1H37.5c-5,0-9.1,4.1-9.1,9.1v79.5
			C12.2,393.5,0,408.1,0,425.5C0,445.8,16.5,462.3,36.8,462.3z M263.4,230.3c0,10.3-8.4,18.7-18.7,18.7s-18.7-8.4-18.7-18.7
			s8.4-18.7,18.7-18.7S263.4,220,263.4,230.3z M263.4,425.5c0,10.3-8.4,18.7-18.7,18.7s-18.7-8.4-18.7-18.7
			c0-10.3,8.4-18.7,18.7-18.7S263.4,415.2,263.4,425.5z M471.2,425.5c0,10.3-8.4,18.7-18.7,18.7c-10.3,0-18.7-8.4-18.7-18.7
			c0-10.3,8.4-18.7,18.7-18.7C462.9,406.8,471.2,415.2,471.2,425.5z M367.3,425.5c0,10.3-8.4,18.7-18.7,18.7
			c-10.3,0-18.7-8.4-18.7-18.7c0-10.3,8.4-18.7,18.7-18.7S367.3,415.2,367.3,425.5z M367.3,230.3c0,10.3-8.4,18.7-18.7,18.7
			c-10.3,0-18.7-8.4-18.7-18.7s8.4-18.7,18.7-18.7S367.3,220,367.3,230.3z M226,57.3c0-10.3,8.4-18.7,18.7-18.7s18.7,8.4,18.7,18.7
			S255,76,244.7,76C234.4,76,226,67.6,226,57.3z M159.4,425.5c0,10.3-8.4,18.7-18.7,18.7s-18.7-8.4-18.7-18.7
			c0-10.3,8.4-18.7,18.7-18.7S159.4,415.2,159.4,425.5z M122.1,230.3c0-10.3,8.4-18.7,18.7-18.7s18.7,8.4,18.7,18.7
			s-8.4,18.7-18.7,18.7C130.5,248.9,122.1,240.6,122.1,230.3z M36.8,406.8c10.3,0,18.7,8.4,18.7,18.7c0,10.3-8.4,18.7-18.7,18.7
			s-18.7-8.4-18.7-18.7C18.2,415.2,26.5,406.8,36.8,406.8z"/>
	</g>
</g>
</svg>
