<?xml version="1.0" encoding="iso-8859-1"?>
<!-- Generator: Adobe Illustrator 19.0.0, SVG Export Plug-In . SVG Version: 6.00 Build 0)  -->
<svg xmlns="http://www.w3.org/2000/svg" xmlns:xlink="http://www.w3.org/1999/xlink" version="1.1" id="Layer_1" x="0px" y="0px" viewBox="0 0 421 421" style="enable-background:new 0 0 421 421;" xml:space="preserve" width="512px" height="512px">
<g>
	<g>
		<g>
			<path d="M47.944,123.886c-2.047,0-4.095,0.781-5.657,2.343l-27.2,27.2c-1.5,1.5-2.343,3.535-2.343,5.657s0.843,4.157,2.343,5.657     l27.2,27.2c1.562,1.562,3.609,2.343,5.657,2.343c2.048,0,4.095-0.781,5.657-2.343L75.144,170.4l37.646,37.646l-21.543,21.543     c-3.125,3.124-3.125,8.189,0,11.313l27.2,27.2c1.5,1.5,3.535,2.343,5.657,2.343s4.157-0.843,5.657-2.343l21.543-21.543     l37.646,37.646l-21.543,21.543c-3.125,3.124-3.125,8.189,0,11.313l27.2,27.2c1.562,1.562,3.609,2.343,5.657,2.343     c2.048,0,4.095-0.781,5.657-2.343l27.2-27.2c3.125-3.124,3.125-8.189,0-11.313l-27.2-27.2l-48.96-48.96l-2.045-2.045     c18.262,3.907,37.439,2.562,55.677-4.265l7.713-2.887c24.186-9.053,50.723-6.566,72.806,6.822     c4.346,2.635,8.393,5.623,12.121,8.911l7.423,7.422c10.987,12.47,18.077,28.048,20.174,45.064l11.356,92.154     c0.5,4.053,3.948,7.022,7.93,7.022c0.327,0,0.657-0.02,0.989-0.061c4.385-0.541,7.502-4.533,6.961-8.918l-11.356-92.154     c-0.352-2.856-0.822-5.677-1.406-8.459l21.132,21.132c1.562,1.562,3.609,2.343,5.657,2.343c2.048,0,4.095-0.781,5.657-2.343     l27.2-27.2c3.125-3.124,3.125-8.189,0-11.313l-27.2-27.2c-1.5-1.5-3.535-2.343-5.657-2.343s-4.157,0.843-5.657,2.343     l-21.543,21.543l-37.646-37.646l21.543-21.543c3.125-3.124,3.125-8.189,0-11.313l-27.2-27.2c-3.124-3.124-8.189-3.124-11.313,0     l-21.543,21.543l-37.646-37.646l21.543-21.543c3.125-3.124,3.125-8.189,0-11.313l-27.2-27.2c-1.5-1.5-3.535-2.343-5.657-2.343     s-4.157,0.843-5.657,2.343l-27.2,27.2c-3.125,3.124-3.125,8.189,0,11.313l27.2,27.2l48.959,48.959l5.205,5.205     c-18.294-3.884-37.49-2.538-55.583,4.235l-7.713,2.887c-25.322,9.478-52.802,6.396-75.395-8.458     c-3.824-2.514-7.386-5.295-10.685-8.303l-5.459-5.459c-12.895-14.146-20.531-32.316-21.511-52.102l-4.486-90.581     c-0.219-4.413-3.965-7.816-8.386-7.595c-4.413,0.219-7.813,3.973-7.594,8.386l4.486,90.582c0.267,5.399,0.96,10.695,2.039,15.858     L53.602,126.23C52.039,124.667,49.992,123.886,47.944,123.886z M216.149,311.405l-15.886,15.886l-15.886-15.886l15.886-15.886     L216.149,311.405z M372.09,250.584l15.886,15.886l-15.886,15.886l-15.886-15.886L372.09,250.584z M295.931,174.424l15.886,15.886     l-15.886,15.886l-15.886-15.886L295.931,174.424z M203.885,114.151l15.886-15.886l15.886,15.886l-15.886,15.886L203.885,114.151z      M124.103,219.359l15.886,15.886l-15.886,15.886l-15.886-15.886L124.103,219.359z M47.944,174.972l-15.886-15.886L47.944,143.2     l15.886,15.886L47.944,174.972z" fill="#192231"/>
			<path d="M400.5,0h-380c-4.418,0-8,3.582-8,8s3.582,8,8,8h372v170.12c0,4.418,3.582,8,8,8c4.418,0,8-3.582,8-8V8     C408.5,3.582,404.918,0,400.5,0z" fill="#192231"/>
			<path d="M400.5,405h-372V254.12c0-4.418-3.582-8-8-8c-4.418,0-8,3.582-8,8V413c0,4.418,3.582,8,8,8h380c4.418,0,8-3.582,8-8     C408.5,408.582,404.918,405,400.5,405z" fill="#192231"/>
		</g>
	</g>
</g>
<g>
</g>
<g>
</g>
<g>
</g>
<g>
</g>
<g>
</g>
<g>
</g>
<g>
</g>
<g>
</g>
<g>
</g>
<g>
</g>
<g>
</g>
<g>
</g>
<g>
</g>
<g>
</g>
<g>
</g>
</svg>
