<?xml version="1.0" encoding="utf-8"?>
<!-- Generator: Adobe Illustrator 21.0.0, SVG Export Plug-In . SVG Version: 6.00 Build 0)  -->
<svg version="1.1" id="Layer_1" xmlns="http://www.w3.org/2000/svg" xmlns:xlink="http://www.w3.org/1999/xlink" x="0px" y="0px"
	 viewBox="0 0 500 500" style="enable-background:new 0 0 500 500;" xml:space="preserve">
<style type="text/css">
	.st0{fill:#CCC;stroke-width:2}
	.st1{opacity:0.32;fill:none;stroke:white;stroke-width:2;stroke-miterlimit:10;stroke-dasharray:8;}
	.st2{fill:#CCC;}
	.st3{fill:none;stroke:#AAA;stroke-width:3;stroke-miterlimit:10;}
</style>
<g>
	<g>
		<g>
			<path class="st0" d="M31.4,282.3c4.5-1.1,9.4-1.3,14-1.5c14.5-0.6,29.1,0.7,43.5,2.9c30.7,4.6,61,12.8,87.3,29.7
				c14.4,9.2,27.3,20.3,39.6,32c0.9,0.9,2.3,0,2.1-1.2c-4.6-21.2,24.6-29.2,39.9-31.5c18.4-2.8,37.3-3.5,55.9-2.5
				c37.3,2,74.3,11.1,107.8,27.6c0.3-0.8,0.6-1.5,1-2.3c-20.4-5-26.5-29.4-13.9-45.2c14.7-18.5,42.4-23.7,64.1-28.5
				c1.4-0.3,1-2.4-0.3-2.5c-30.5-2.2-61.2-3.4-91.6-6.9c-13.6-1.5-28.9-4.3-39.9-13.1c-9.5-7.6-16.2-20.6-8.8-31.9
				c0.9-1.3-1.3-2.6-2.2-1.3c-6.2,9.4-3.6,20.5,3.1,28.9c8.6,10.8,22.3,15.6,35.5,18.1c15.9,3.1,32.3,3.5,48.4,4.7
				c18.5,1.3,36.9,2.7,55.4,4c-0.1-0.8-0.2-1.6-0.3-2.5c-14.1,3.2-28.3,6.5-41.6,12.4c-10.4,4.7-21.4,11.5-27,21.8
				c-9.4,17.5-1.5,39.6,18.3,44.4c1.3,0.3,2.3-1.6,1-2.3c-28.2-13.9-58.6-22.5-89.8-26.2c-16.3-2-32.9-2.5-49.3-1.7
				c-15.4,0.8-32,1.9-46.5,7.6c-11.9,4.7-24.8,15.3-21.7,29.6c0.7-0.4,1.4-0.8,2.1-1.2c-21.5-20.5-45-38.3-73-48.8
				c-15.6-5.9-32-9.7-48.5-12.5c-15.5-2.6-31.2-4.4-46.9-4.1c-6.1,0.1-12.5,0.3-18.4,1.7C29.2,280.3,29.8,282.7,31.4,282.3
				L31.4,282.3z"/>
		</g>
	</g>
	<g>
		<g>
			<path class="st0" d="M31.4,282.3c10.7-1.7,21.4-3.8,31.7-7.4c12.7-4.3,24.8-10.3,36.7-16.4c10.7-5.5,21.6-11.8,29.4-21.2
				c5.8-7,9.5-15.3,13.9-23.1c-0.7,0-1.4,0-2.2,0c6.3,8.8,20.4,12.8,30.4,15.1c16.3,3.8,34.4,3.2,50.9,2.5
				c36.2-1.6,72.1-9.4,105.4-23.8c1.5-0.6,0.2-2.8-1.3-2.2c-31.8,13.7-66,21.4-100.6,23.3c-16.4,0.9-33.8,1.2-50.1-1.4
				c-5.8-0.9-11.5-2.7-17-4.9c-5.4-2.1-12.3-4.9-15.8-9.9c-0.5-0.7-1.7-0.9-2.2,0c-4.3,7.7-7.9,15.8-13.5,22.6
				c-8.1,9.7-19.5,16-30.6,21.7c-11.7,5.9-23.6,11.7-36,15.8c-9.8,3.2-19.9,5.2-30,6.8C29.1,280.1,29.8,282.5,31.4,282.3L31.4,282.3
				z"/>
		</g>
	</g>
	<ellipse class="st1" cx="262.2" cy="281" rx="234.9" ry="71.1"/>
	<g>
		<path class="st2" d="M25,233.9c0,0.8-0.1,1.7-0.1,2.5c0,15.3,0,30.6,0,45.8c0,0.8,0.1,1.5-0.1,2.3c-0.4,1.8-1.5,3-3.4,3
			c-1.9,0.1-3.4-0.8-3.9-2.7c-0.2-0.8-0.2-1.6-0.2-2.5c0-8.2,0-16.4,0-24.6c0-0.8,0-1.6,0-2.4c-0.2,0-0.5-0.1-0.7-0.1
			c-0.1,0.8-0.3,1.5-0.3,2.3c0,8.7,0,17.3,0,26c0,2.5-1.3,4-3.6,4.1c-2.2,0.1-3.7-1.3-3.8-3.6c-0.1-2.3,0-4.5,0-6.8
			c0-13.6,0-27.2,0-40.9c0-0.9-0.1-1.7-0.1-2.6c-0.2,0-0.4,0-0.7,0c-0.1,0.7-0.2,1.5-0.2,2.2c0,5,0,9.9,0,14.9c0,2.4-1,3.7-2.7,3.7
			c-1.7,0-2.6-1.3-2.6-3.8c0-6.5,0-13.1,0-19.6c0-3.7,2.2-6.3,5.9-6.4c5.6-0.2,11.1-0.2,16.7,0c3.4,0.1,5.8,2.9,5.9,6.3
			c0.1,6.8,0,13.5,0,20.3c0,1.8-0.7,3.2-2.7,3.2c-2,0-2.6-1.5-2.6-3.3c0-5,0-9.9,0-14.9c0-0.8,0-1.6,0-2.4
			C25.5,234,25.2,233.9,25,233.9z"/>
		<path class="st2" d="M16.6,222.3c-3.4-0.1-5.9-2.7-5.8-6.1c0.1-3.2,2.8-5.7,6.1-5.7c3.3,0.1,5.9,2.8,5.8,6.2
			C22.5,220,20,222.4,16.6,222.3z"/>
	</g>
	<g>
		<path class="st2" d="M149.5,170.6c0,0.7-0.1,1.5-0.1,2.2c0,13.2,0,26.5,0,39.7c0,0.7,0.1,1.3-0.1,1.9c-0.3,1.6-1.3,2.6-3,2.6
			c-1.7,0.1-2.9-0.7-3.4-2.4c-0.2-0.7-0.2-1.4-0.2-2.1c0-7.1,0-14.2,0-21.3c0-0.7,0-1.4,0-2.1c-0.2,0-0.4,0-0.6-0.1
			c-0.1,0.7-0.2,1.3-0.2,2c0,7.5,0,15,0,22.5c0,2.2-1.2,3.4-3.1,3.5c-1.9,0.1-3.2-1.1-3.3-3.1c-0.1-2,0-3.9,0-5.9
			c0-11.8,0-23.6,0-35.4c0-0.7-0.1-1.5-0.1-2.2c-0.2,0-0.4,0-0.6,0c-0.1,0.6-0.2,1.3-0.2,1.9c0,4.3,0,8.6,0,12.9
			c0,2.1-0.9,3.2-2.3,3.2c-1.4,0-2.3-1.2-2.3-3.3c0-5.7,0-11.3,0-17c0-3.2,1.9-5.4,5.1-5.5c4.8-0.2,9.6-0.2,14.5,0
			c2.9,0.1,5.1,2.5,5.1,5.4c0,5.9,0,11.7,0,17.6c0,1.6-0.6,2.8-2.3,2.7c-1.7,0-2.2-1.3-2.2-2.8c0-4.3,0-8.6,0-12.9
			c0-0.7,0-1.4,0-2.1C150,170.6,149.8,170.6,149.5,170.6z"/>
		<path class="st2" d="M142.3,160.6c-3-0.1-5.1-2.3-5-5.3c0.1-2.8,2.5-5,5.3-4.9c2.9,0.1,5.1,2.4,5,5.3
			C147.4,158.5,145.2,160.6,142.3,160.6z"/>
	</g>
	<g>
		<path class="st2" d="M491.8,209.2c0,0.7-0.1,1.5-0.1,2.2c0,13.2,0,26.5,0,39.7c0,0.7,0.1,1.3-0.1,1.9c-0.3,1.6-1.3,2.6-3,2.6
			c-1.7,0.1-2.9-0.7-3.4-2.4c-0.2-0.7-0.2-1.4-0.2-2.1c0-7.1,0-14.2,0-21.3c0-0.7,0-1.4,0-2.1c-0.2,0-0.4,0-0.6-0.1
			c-0.1,0.7-0.2,1.3-0.2,2c0,7.5,0,15,0,22.5c0,2.2-1.2,3.4-3.1,3.5c-1.9,0.1-3.2-1.1-3.3-3.1c-0.1-2,0-3.9,0-5.9
			c0-11.8,0-23.6,0-35.4c0-0.7-0.1-1.5-0.1-2.2c-0.2,0-0.4,0-0.6,0c-0.1,0.6-0.2,1.3-0.2,1.9c0,4.3,0,8.6,0,12.9
			c0,2.1-0.9,3.2-2.3,3.2c-1.4,0-2.3-1.2-2.3-3.3c0-5.7,0-11.3,0-17c0-3.2,1.9-5.4,5.1-5.5c4.8-0.2,9.6-0.2,14.5,0
			c2.9,0.1,5.1,2.5,5.1,5.4c0,5.9,0,11.7,0,17.6c0,1.6-0.6,2.8-2.3,2.7c-1.7,0-2.2-1.3-2.2-2.8c0-4.3,0-8.6,0-12.9
			c0-0.7,0-1.4,0-2.1C492.3,209.3,492,209.2,491.8,209.2z"/>
		<path class="st2" d="M484.6,199.2c-3-0.1-5.1-2.3-5-5.3c0.1-2.8,2.5-5,5.3-4.9c2.9,0.1,5.1,2.4,5,5.3
			C489.7,197.2,487.5,199.3,484.6,199.2z"/>
	</g>
	<g>
		<path class="st2" d="M338.1,160.4c0,0.7-0.1,1.5-0.1,2.2c0,13.2,0,26.5,0,39.7c0,0.7,0.1,1.3-0.1,1.9c-0.3,1.6-1.3,2.6-3,2.6
			c-1.7,0.1-2.9-0.7-3.4-2.4c-0.2-0.7-0.2-1.4-0.2-2.1c0-7.1,0-14.2,0-21.3c0-0.7,0-1.4,0-2.1c-0.2,0-0.4,0-0.6-0.1
			c-0.1,0.7-0.2,1.3-0.2,2c0,7.5,0,15,0,22.5c0,2.2-1.2,3.4-3.1,3.5c-1.9,0.1-3.2-1.1-3.3-3.1c-0.1-2,0-3.9,0-5.9
			c0-11.8,0-23.6,0-35.4c0-0.7-0.1-1.5-0.1-2.2c-0.2,0-0.4,0-0.6,0c-0.1,0.6-0.2,1.3-0.2,1.9c0,4.3,0,8.6,0,12.9
			c0,2.1-0.9,3.2-2.3,3.2c-1.4,0-2.3-1.2-2.3-3.3c0-5.7,0-11.3,0-17c0-3.2,1.9-5.4,5.1-5.5c4.8-0.2,9.6-0.2,14.5,0
			c2.9,0.1,5.1,2.5,5.1,5.4c0,5.9,0,11.7,0,17.6c0,1.6-0.6,2.8-2.3,2.7c-1.7,0-2.2-1.3-2.2-2.8c0-4.3,0-8.6,0-12.9
			c0-0.7,0-1.4,0-2.1C338.6,160.4,338.3,160.4,338.1,160.4z"/>
		<path class="st2" d="M330.9,150.3c-3-0.1-5.1-2.3-5-5.3c0.1-2.8,2.5-5,5.3-4.9c2.9,0.1,5.1,2.4,5,5.3
			C336,148.3,333.8,150.4,330.9,150.3z"/>
	</g>
	<path class="st3" d="M210.5,338.5c6.5-71.5,28.5-87.5,121-136"/>
	<path class="st3" d="M211,350c-3.6-71.2-15.9-87.2-67.5-135.5"/>
	<path class="st3" d="M211,328c13.6-34.7,59.8-42.5,254-66"/>
	<g>
		<path class="st2" d="M219.6,305.7c0,0.9-0.1,1.8-0.1,2.7c0,16.1,0,32.3,0,48.4c0,0.8,0.1,1.6-0.1,2.4c-0.4,1.9-1.6,3.1-3.6,3.2
			c-2.1,0.1-3.6-0.8-4.1-2.9c-0.2-0.8-0.2-1.7-0.2-2.6c0-8.7,0-17.3,0-26c0-0.9,0-1.7,0-2.6c-0.2,0-0.5-0.1-0.7-0.1
			c-0.1,0.8-0.3,1.6-0.3,2.4c0,9.1,0,18.3,0,27.4c0,2.6-1.4,4.2-3.8,4.3c-2.3,0.1-3.9-1.4-4-3.8c-0.1-2.4,0-4.8,0-7.2
			c0-14.4,0-28.8,0-43.2c0-0.9-0.1-1.8-0.1-2.7c-0.2,0-0.5,0-0.7,0c-0.1,0.8-0.2,1.6-0.2,2.3c0,5.2,0,10.5,0,15.7
			c0,2.5-1.1,3.9-2.8,3.9c-1.8,0-2.8-1.4-2.8-4c0-6.9,0-13.8,0-20.7c0-3.9,2.4-6.6,6.2-6.7c5.9-0.2,11.8-0.2,17.6,0
			c3.6,0.1,6.2,3.1,6.2,6.6c0.1,7.2,0,14.3,0,21.5c0,1.9-0.7,3.4-2.8,3.3c-2.1,0-2.7-1.5-2.7-3.5c0-5.2,0-10.5,0-15.7
			c0-0.9,0-1.7,0-2.6C220.2,305.7,219.9,305.7,219.6,305.7z"/>
		<path class="st2" d="M210.8,293.5c-3.6-0.1-6.3-2.9-6.1-6.5c0.1-3.4,3-6.1,6.4-6c3.5,0.1,6.2,2.9,6.1,6.5
			C217.1,291,214.4,293.6,210.8,293.5z"/>
	</g>
	<g>
		<path class="st2" d="M434.2,285.1c0,0.9-0.1,1.8-0.1,2.7c0,16.1,0,32.3,0,48.4c0,0.8,0.1,1.6-0.1,2.4c-0.4,1.9-1.6,3.1-3.6,3.2
			c-2.1,0.1-3.6-0.8-4.1-2.9c-0.2-0.8-0.2-1.7-0.2-2.6c0-8.7,0-17.3,0-26c0-0.9,0-1.7,0-2.6c-0.2,0-0.5-0.1-0.7-0.1
			c-0.1,0.8-0.3,1.6-0.3,2.4c0,9.1,0,18.3,0,27.4c0,2.6-1.4,4.2-3.8,4.3c-2.3,0.1-3.9-1.4-4-3.8c-0.1-2.4,0-4.8,0-7.2
			c0-14.4,0-28.8,0-43.2c0-0.9-0.1-1.8-0.1-2.7c-0.2,0-0.5,0-0.7,0c-0.1,0.8-0.2,1.6-0.2,2.3c0,5.2,0,10.5,0,15.7
			c0,2.5-1.1,3.9-2.8,3.9c-1.8,0-2.8-1.4-2.8-4c0-6.9,0-13.8,0-20.7c0-3.9,2.4-6.6,6.2-6.7c5.9-0.2,11.8-0.2,17.6,0
			c3.6,0.1,6.2,3.1,6.2,6.6c0.1,7.2,0,14.3,0,21.5c0,1.9-0.7,3.4-2.8,3.3c-2.1,0-2.7-1.5-2.7-3.5c0-5.2,0-10.5,0-15.7
			c0-0.9,0-1.7,0-2.6C434.8,285.1,434.5,285.1,434.2,285.1z"/>
		<path class="st2" d="M425.4,272.9c-3.6-0.1-6.3-2.9-6.1-6.5c0.1-3.4,3-6.1,6.4-6c3.5,0.1,6.2,2.9,6.1,6.5
			C431.6,270.4,428.9,272.9,425.4,272.9z"/>
	</g>
</g>
</svg>
