<?xml version="1.0" encoding="utf-8"?>
<!-- Generator: Adobe Illustrator 21.0.0, SVG Export Plug-In . SVG Version: 6.00 Build 0)  -->
<svg version="1.1" id="Layer_1" xmlns="http://www.w3.org/2000/svg" xmlns:xlink="http://www.w3.org/1999/xlink" x="0px" y="0px"
	 viewBox="0 0 500 500" style="enable-background:new 0 0 500 500;" xml:space="preserve">
<style type="text/css">
	.st0{fill:none;stroke:#CCC;stroke-width:2;stroke-miterlimit:10;}
	.st1{fill:white;}
</style>
<ellipse transform="matrix(0.9613 -0.2756 0.2756 0.9613 -94.8065 116.8856)" class="st0" cx="368.4" cy="395.7" rx="46.7" ry="46.7"/>
<g>
	
		<ellipse transform="matrix(0.1585 -0.9874 0.9874 0.1585 -170.8748 243.9514)" class="st1" cx="57.7" cy="222.2" rx="11.8" ry="11.8"/>
	<path class="st1" d="M78.7,256.7v-1.4v-12c0-5.2-4.3-9.5-9.5-9.5H46.1c-5.2,0-9.5,4.3-9.5,9.5v13.4
		C36.6,256.7,55.3,269.6,78.7,256.7z"/>
</g>
<g id="DB1b7h_7_">
	<g>
		<path class="st1" d="M86.3,394.4c1.2-1.1,1.1-2.5,1-3.9c-0.3-2.8,0.9-4.5,3.3-5.8c6.7-3.8,13.9-5.9,21.6-6.7
			c4.7-0.5,9.4-0.5,14,0.2c6,0.8,11.1,3.7,15.9,7c1.9,1.3,3.8,2,6.1,2.2c3.8,0.4,7.4,1.3,10.9,2.8c1.7,0.7,3.2,1.6,4.1,3.3
			c0.3,0.5,0.9,0.8,1.4,1.3c0,1.3,0,2.5,0,3.8c-0.4,0.3-0.8,0.6-0.9,1c-0.1,2.1-1.5,2.2-3,2.1c-1.6-0.1-3.1,0-4.7,0
			c-1,0-1.5-0.4-1.9-1.4c-1.2-3.7-4-5.9-7.5-5.9c-3.4,0-6.3,2.3-7.3,6c-0.3,1.2-1,1.6-2.1,1.6c-0.5,0-0.9,0-1.4,0
			c-3.4,0-3.4,0-4.4-3.3c-1.1-3.6-4.5-5.7-8.9-5.4c-3.7,0.3-6.7,3-7.1,6.7c-0.2,1.7-0.9,2.1-2.3,2c-0.5,0-0.9-0.1-1.4,0
			c-2.3,0.2-4,0-4.8-3c-0.8-3-3.6-4.5-6.7-4.6c-3.2-0.1-5.6,1.5-7.1,4.5c-0.9,1.8-3.5,2.7-5.3,1.7c-0.5-0.3-0.8-0.7-0.8-1.3
			c0-0.6-0.1-1.2-0.7-1.5C86.3,396.7,86.3,395.5,86.3,394.4z M105.9,386.3C105.9,386.3,105.9,386.3,105.9,386.3c2.8,0,5.5,0,8.3,0
			c1.3,0,1.9-0.4,1.9-1.8c-0.1-1.1-0.1-2.2,0-3.3c0.1-1.5-0.5-1.9-2-1.8c-4.9,0.4-9.7,1.2-14.3,3.1c-1.1,0.5-2,1.1-2.8,2
			c-0.3,0.4-0.8,0.8-0.6,1.4c0.2,0.6,0.9,0.4,1.4,0.4C100.5,386.4,103.2,386.3,105.9,386.3z M124.8,386.3
			C124.8,386.3,124.8,386.3,124.8,386.3c1.9,0,3.8-0.1,5.7,0c1.6,0.1,2-0.7,1.9-2.1c-0.1-0.9-0.6-1.4-1.3-1.9c-3.8-2.5-8-3-12.4-2.9
			c-0.9,0-1.1,0.6-1.2,1.4c0,1.3,0,2.5,0,3.8c-0.1,1.3,0.6,1.7,1.8,1.7C121.2,386.3,123,386.3,124.8,386.3z"/>
		<path class="st1" d="M123.7,423.3c-4.2,0.1-8.1-0.2-11.9-1.2c-2.1-0.5-2.3-1-1.9-3.1c0.9-4.6,3.9-6.2,7.9-7.6
			c1-0.4,1.2,0.5,1.3,1.1c0.8,2.9,1.8,5.7,3.3,8.4c0.6,1.1,1,1.2,1.7,0c1.4-2.6,2.5-5.3,3.2-8.2c0.3-1.3,0.8-1.6,2-1.1
			c3.8,1.4,6.6,3.5,7.4,7.7c0.3,1.6-0.2,2.5-1.7,2.8c-1.3,0.3-2.6,0.6-3.9,0.8C128.7,423.2,126,423.4,123.7,423.3z"/>
		<path class="st1" d="M123.4,395.3c3.9,0,6.2,2.2,6.3,6.1c0,0.8,0.1,1.6,0.4,2.4c0.2,0.5,0.3,1.1,0.2,1.5c-0.9,2.8-2.1,5.4-4.4,7.3
			c-2.1,1.6-5,0.9-6.6-1.6c-0.9-1.3-1.6-2.7-2.3-4.1c-0.6-1.1-0.8-2.3-0.2-3.5c0.3-0.7,0.3-1.3,0.3-2
			C117.3,397.5,119.5,395.3,123.4,395.3z"/>
		<path class="st1" d="M93.8,402c0.1-3.4,2.7-6,6.1-6c3.3,0.1,6.1,2.9,6.1,6.2c0,3.2-3,6.2-6.2,6.1C96.3,408.2,93.7,405.5,93.8,402z
			 M103.6,402.2c0-2.2-1.7-3.9-3.8-3.9c-1.9,0-3.6,1.7-3.7,3.7c-0.1,2.2,1.6,3.8,3.8,3.8C102,405.9,103.6,404.4,103.6,402.2z"/>
		<path class="st1" d="M152.7,402.2c0,3.4-2.9,6.2-6.2,6.1c-3.2-0.1-6-3-6-6.2c0-3.2,2.9-6.1,6.2-6
			C150.1,396.1,152.8,398.8,152.7,402.2z M146.6,405.9c2.1,0,3.8-1.6,3.8-3.6c0-2.1-1.7-3.9-3.8-3.9c-2,0-3.7,1.7-3.7,3.8
			C143,404.4,144.4,405.8,146.6,405.9z"/>
		<path class="st1" d="M99.8,399c1.7,0,3.2,1.4,3.2,3.2c0,1.7-1.3,3.1-3,3.1c-1.8,0.1-3.3-1.3-3.3-3C96.6,400.5,98,399,99.8,399z"/>
		<path class="st1" d="M146.7,399c1.7,0,3.2,1.5,3.2,3.2c0,1.7-1.6,3.1-3.3,3c-1.8-0.1-3.2-1.5-3.1-3.3
			C143.5,400.4,145,399,146.7,399z"/>
	</g>
</g>
<g>
	<g id="Layer_1_13_">
		<g>
			<path class="st1" d="M272.4,84.4h-40c-1.1,0-2,0.9-2,2c0,1.1,0.9,2,2,2h40c1.1,0,2-0.9,2-2C274.4,85.3,273.5,84.4,272.4,84.4z"/>
			<path class="st1" d="M234.9,79.2c-1.1,0-2,0.9-2,2s0.9,2,2,2h35c1.1,0,2-0.9,2-2s-0.9-2-2-2h-0.5v-18h0.5c0.6,0,1-0.4,1-1
				s-0.4-1-1-1h-35c-0.6,0-1,0.4-1,1s0.4,1,1,1h0.5v18L234.9,79.2L234.9,79.2z M265.4,61.1v18h-6v-18H265.4z M255.4,61.1v18h-6v-18
				H255.4z M239.4,61.1h6v18h-6V61.1z"/>
			<path class="st1" d="M232.4,57.3h40c0,0,0,0,0,0c1.1,0,2-0.9,2-2c0-0.9-0.6-1.6-1.4-1.9l-19.9-8.9c-0.5-0.2-1.1-0.2-1.6,0l-20,9
				c-0.9,0.4-1.3,1.3-1.1,2.2C230.6,56.7,231.5,57.3,232.4,57.3z"/>
		</g>
	</g>
</g>
<g>
	<path class="st1" d="M409.5,390.7h-10.6v-0.1c0-2.1-1.7-3.9-3.9-3.9c-2.1,0-3.9,1.7-3.9,3.9v0.1h-10.6c-0.7,0-1.2,0.6-1.2,1.2
		c0,0.7,0.6,1.2,1.2,1.2h9.3v1.4c0,0,0,0.1,0,0.1h-42.4c0,0,0-0.1,0-0.1v-1.4h9.3c0.7,0,1.2-0.6,1.2-1.2c0-0.7-0.6-1.2-1.2-1.2
		h-10.6v-0.1c0-2.1-1.7-3.9-3.9-3.9c-2.1,0-3.9,1.7-3.9,3.9v0.1h-10.6c-0.7,0-1.2,0.6-1.2,1.2c0,0.7,0.6,1.2,1.2,1.2h9.3v1.4
		c0,2.9,2.3,5.2,5.2,5.2c1.9,0,3.6-1.1,4.5-2.6h7.8l1.2,3.5c0.9,2.7,3.4,4.5,6.2,4.5h5.5v3c-1.5,0.5-2.6,2-2.6,3.7
		c0,2.1,1.7,3.9,3.9,3.9c2.1,0,3.9-1.7,3.9-3.9c0-1.7-1.1-3.2-2.6-3.7v-3h5.5c2.8,0,5.3-1.8,6.2-4.5l1.2-3.5h7.8
		c0.9,1.6,2.6,2.6,4.5,2.6c2.9,0,5.2-2.3,5.2-5.2v-1.4h9.3c0.7,0,1.2-0.6,1.2-1.2C410.8,391.3,410.2,390.7,409.5,390.7L409.5,390.7z
		 M340.9,390.6c0-0.8,0.6-1.4,1.4-1.4c0.8,0,1.4,0.6,1.4,1.4v0.1L340.9,390.6L340.9,390.6z M342.3,397.3c-1.5,0-2.7-1.2-2.7-2.7
		v-1.4h5.4v1.4C345,396.1,343.8,397.3,342.3,397.3L342.3,397.3z M368.7,413.1c-0.8,0-1.4-0.6-1.4-1.4c0-0.8,0.6-1.4,1.4-1.4
		c0.8,0,1.4,0.6,1.4,1.4C370.1,412.5,369.4,413.1,368.7,413.1L368.7,413.1z M379.3,399.8c-0.6,1.7-2.1,2.8-3.8,2.8h-13.5
		c-1.7,0-3.3-1.1-3.8-2.8l-0.9-2.7h22.9L379.3,399.8z M393.6,390.6c0-0.8,0.6-1.4,1.4-1.4c0.8,0,1.4,0.6,1.4,1.4v0.1L393.6,390.6
		L393.6,390.6z M397.8,394.6c0,1.5-1.2,2.7-2.7,2.7c-1.5,0-2.7-1.2-2.7-2.7v-1.4h5.4V394.6z M397.8,394.6"/>
	<path class="st1" d="M375.1,418.2c0.5-0.5,0.5-1.3,0-1.7c-0.5-0.5-1.3-0.5-1.7,0c-2.6,2.6-6.8,2.6-9.4,0c-0.5-0.5-1.3-0.5-1.7,0
		c-0.5,0.5-0.5,1.3,0,1.7c1.8,1.8,4.1,2.7,6.5,2.7C371,420.9,373.4,420,375.1,418.2L375.1,418.2z M375.1,418.2"/>
	<path class="st1" d="M358.5,420.2c-0.5,0.5-0.5,1.3,0,1.7c2.7,2.7,6.3,4.2,10.2,4.2c3.9,0,7.5-1.5,10.2-4.2c0.5-0.5,0.5-1.3,0-1.7
		c-0.5-0.5-1.3-0.5-1.7,0c-2.3,2.3-5.3,3.5-8.4,3.5c-3.2,0-6.2-1.2-8.4-3.5C359.7,419.7,359,419.7,358.5,420.2L358.5,420.2z
		 M358.5,420.2"/>
	<path class="st1" d="M380.9,423.9c-6.7,6.7-17.6,6.7-24.4,0c-0.5-0.5-1.3-0.5-1.7,0c-0.5,0.5-0.5,1.3,0,1.7
		c3.8,3.8,8.9,5.8,13.9,5.8c5,0,10.1-1.9,13.9-5.8c0.5-0.5,0.5-1.3,0-1.7C382.1,423.4,381.3,423.4,380.9,423.9L380.9,423.9z
		 M380.9,423.9"/>
</g>
<ellipse transform="matrix(0.9613 -0.2756 0.2756 0.9613 -104.2976 49.3539)" class="st0" cx="123.4" cy="395.7" rx="46.7" ry="46.7"/>
<ellipse transform="matrix(0.9613 -0.2756 0.2756 0.9613 -62.4671 24.991)" class="st0" cx="57.7" cy="234.7" rx="46.7" ry="46.7"/>
<g>
	
		<ellipse transform="matrix(0.1585 -0.9874 0.9874 0.1585 147.4599 605.4516)" class="st1" cx="428.9" cy="216.2" rx="11.8" ry="11.8"/>
	<path class="st1" d="M450,250.7v-1.4v-12c0-5.2-4.3-9.5-9.5-9.5h-23.1c-5.2,0-9.5,4.3-9.5,9.5v13.4
		C407.8,250.7,426.6,263.6,450,250.7z"/>
</g>
<ellipse transform="matrix(0.9613 -0.2756 0.2756 0.9613 -46.4504 126.9546)" class="st0" cx="428.4" cy="228.7" rx="46.7" ry="46.7"/>
<ellipse transform="matrix(0.9613 -0.2756 0.2756 0.9613 -8.5086 72.1486)" class="st0" cx="252.4" cy="66.3" rx="46.7" ry="46.7"/>
<line class="st0" x1="103" y1="222" x2="382" y2="216"/>
<line class="st0" x1="356" y1="351" x2="265" y2="111"/>
<line class="st0" x1="137" y1="351" x2="242" y2="113"/>
<line class="st0" x1="406" y1="188" x2="299" y2="83"/>
<line class="st0" x1="384" y1="242" x2="150" y2="357"/>
<line class="st0" x1="343" y1="357" x2="104" y2="242"/>
<line class="st0" x1="79" y1="188" x2="208" y2="79"/>
<line class="st0" x1="71" y1="280" x2="111" y2="351"/>
<line class="st0" x1="379" y1="349" x2="415" y2="274"/>
<line class="st0" x1="170" y1="401" x2="324" y2="401"/>
</svg>
