<?xml version="1.0" encoding="utf-8"?>
<!-- Generator: Adobe Illustrator 21.0.0, SVG Export Plug-In . SVG Version: 6.00 Build 0)  -->
<svg version="1.1" xmlns="http://www.w3.org/2000/svg" xmlns:xlink="http://www.w3.org/1999/xlink" x="0px" y="0px"
	 viewBox="0 0 500 500" style="enable-background:new 0 0 500 500;" xml:space="preserve">
<style type="text/css">
	.st0{fill:none;stroke:#FCFCFC;stroke-width:3;stroke-linejoin:round;stroke-miterlimit:10;stroke-dasharray:6;}
	.st1{fill:none;stroke:#FFFFFF;stroke-width:3;stroke-linejoin:round;stroke-miterlimit:10;stroke-dasharray:6;}
	.st2{display:none;}
	.st3{display:inline;}
	.st4{fill:#FFFFFF;}
	.st5{fill:none;stroke:#FFFFFF;stroke-width:2;stroke-miterlimit:10;}
	.st6{display:inline;fill:none;stroke:#FFFFFF;stroke-width:2;stroke-miterlimit:10;}
	.st7{fill:none;stroke:#FFFFFF;stroke-width:0.25;stroke-miterlimit:10;}
</style>
<g id="Layer_3">
</g>
<g id="Layer_2_1_">
	<g>
		<circle class="st0" cx="242.9" cy="221.1" r="55.2"/>
		<line class="st1" x1="242.9" y1="108.7" x2="242.9" y2="165.8"/>
		<line class="st1" x1="302.4" y1="221.1" x2="376.2" y2="221.1"/>
		<line class="st1" x1="184.7" y1="337" x2="220" y2="275.2"/>
		<line class="st1" x1="187.6" y1="223.6" x2="106.1" y2="223.6"/>
		<line class="st1" x1="267.1" y1="276.3" x2="312" y2="346.5"/>
	</g>
</g>
<g id="Layer_1">
	<g id="Layer_1_1_" class="st2">
		<g class="st3">
			
				<ellipse transform="matrix(0.1585 -0.9874 0.9874 0.1585 -161.0645 257.1803)" class="st4" cx="70.3" cy="223.1" rx="11.8" ry="11.8"/>
			<path class="st4" d="M91.3,257.6v-1.4v-12c0-5.2-4.3-9.5-9.5-9.5H58.7c-5.2,0-9.5,4.3-9.5,9.5v13.4
				C49.2,257.6,67.9,270.5,91.3,257.6z"/>
		</g>
		<g class="st3">
			<g id="Layer_1_13_">
				<g>
					<path class="st4" d="M273.7,96.8h-40c-1.1,0-2,0.9-2,2s0.9,2,2,2h40c1.1,0,2-0.9,2-2S274.8,96.8,273.7,96.8z"/>
					<path class="st4" d="M236.2,91.6c-1.1,0-2,0.9-2,2s0.9,2,2,2h35c1.1,0,2-0.9,2-2s-0.9-2-2-2h-0.5v-18h0.5c0.6,0,1-0.4,1-1
						s-0.4-1-1-1h-35c-0.6,0-1,0.4-1,1s0.4,1,1,1h0.5v18H236.2L236.2,91.6z M266.7,73.5v18h-6v-18H266.7z M256.7,73.5v18h-6v-18
						H256.7z M240.7,73.5h6v18h-6V73.5z"/>
					<path class="st4" d="M233.7,69.7h40l0,0c1.1,0,2-0.9,2-2c0-0.9-0.6-1.6-1.4-1.9l-19.9-8.9c-0.5-0.2-1.1-0.2-1.6,0l-20,9
						c-0.9,0.4-1.3,1.3-1.1,2.2C231.9,69.1,232.7,69.7,233.7,69.7z"/>
				</g>
			</g>
		</g>
		<g class="st3">
			
				<ellipse transform="matrix(0.9613 -0.2756 0.2756 0.9613 -96.0611 121.7831)" class="st5" cx="385.3" cy="402.7" rx="46.7" ry="46.7"/>
			<g id="DB1b7h_7_">
				<g>
					<path class="st4" d="M81.6,401.4c1.2-1.1,1.1-2.5,1-3.9c-0.3-2.8,0.9-4.5,3.3-5.8c6.7-3.8,13.9-5.9,21.6-6.7
						c4.7-0.5,9.4-0.5,14,0.2c6,0.8,11.1,3.7,15.9,7c1.9,1.3,3.8,2,6.1,2.2c3.8,0.4,7.4,1.3,10.9,2.8c1.7,0.7,3.2,1.6,4.1,3.3
						c0.3,0.5,0.9,0.8,1.4,1.3c0,1.3,0,2.5,0,3.8c-0.4,0.3-0.8,0.6-0.9,1c-0.1,2.1-1.5,2.2-3,2.1c-1.6-0.1-3.1,0-4.7,0
						c-1,0-1.5-0.4-1.9-1.4c-1.2-3.7-4-5.9-7.5-5.9c-3.4,0-6.3,2.3-7.3,6c-0.3,1.2-1,1.6-2.1,1.6c-0.5,0-0.9,0-1.4,0
						c-3.4,0-3.4,0-4.4-3.3c-1.1-3.6-4.5-5.7-8.9-5.4c-3.7,0.3-6.7,3-7.1,6.7c-0.2,1.7-0.9,2.1-2.3,2c-0.5,0-0.9-0.1-1.4,0
						c-2.3,0.2-4,0-4.8-3s-3.6-4.5-6.7-4.6c-3.2-0.1-5.6,1.5-7.1,4.5c-0.9,1.8-3.5,2.7-5.3,1.7c-0.5-0.3-0.8-0.7-0.8-1.3
						c0-0.6-0.1-1.2-0.7-1.5C81.6,403.7,81.6,402.5,81.6,401.4z M101.2,393.3L101.2,393.3c2.8,0,5.5,0,8.3,0c1.3,0,1.9-0.4,1.9-1.8
						c-0.1-1.1-0.1-2.2,0-3.3c0.1-1.5-0.5-1.9-2-1.8c-4.9,0.4-9.7,1.2-14.3,3.1c-1.1,0.5-2,1.1-2.8,2c-0.3,0.4-0.8,0.8-0.6,1.4
						c0.2,0.6,0.9,0.4,1.4,0.4C95.8,393.4,98.5,393.3,101.2,393.3z M120.1,393.3L120.1,393.3c1.9,0,3.8-0.1,5.7,0
						c1.6,0.1,2-0.7,1.9-2.1c-0.1-0.9-0.6-1.4-1.3-1.9c-3.8-2.5-8-3-12.4-2.9c-0.9,0-1.1,0.6-1.2,1.4c0,1.3,0,2.5,0,3.8
						c-0.1,1.3,0.6,1.7,1.8,1.7C116.5,393.3,118.3,393.3,120.1,393.3z"/>
					<path class="st4" d="M119,430.3c-4.2,0.1-8.1-0.2-11.9-1.2c-2.1-0.5-2.3-1-1.9-3.1c0.9-4.6,3.9-6.2,7.9-7.6
						c1-0.4,1.2,0.5,1.3,1.1c0.8,2.9,1.8,5.7,3.3,8.4c0.6,1.1,1,1.2,1.7,0c1.4-2.6,2.5-5.3,3.2-8.2c0.3-1.3,0.8-1.6,2-1.1
						c3.8,1.4,6.6,3.5,7.4,7.7c0.3,1.6-0.2,2.5-1.7,2.8c-1.3,0.3-2.6,0.6-3.9,0.8C124,430.2,121.3,430.4,119,430.3z"/>
					<path class="st4" d="M118.7,402.3c3.9,0,6.2,2.2,6.3,6.1c0,0.8,0.1,1.6,0.4,2.4c0.2,0.5,0.3,1.1,0.2,1.5
						c-0.9,2.8-2.1,5.4-4.4,7.3c-2.1,1.6-5,0.9-6.6-1.6c-0.9-1.3-1.6-2.7-2.3-4.1c-0.6-1.1-0.8-2.3-0.2-3.5c0.3-0.7,0.3-1.3,0.3-2
						C112.6,404.5,114.8,402.3,118.7,402.3z"/>
					<path class="st4" d="M89.1,409c0.1-3.4,2.7-6,6.1-6c3.3,0.1,6.1,2.9,6.1,6.2c0,3.2-3,6.2-6.2,6.1C91.6,415.2,89,412.5,89.1,409
						z M98.9,409.2c0-2.2-1.7-3.9-3.8-3.9c-1.9,0-3.6,1.7-3.7,3.7c-0.1,2.2,1.6,3.8,3.8,3.8C97.3,412.9,98.9,411.4,98.9,409.2z"/>
					<path class="st4" d="M148,409.2c0,3.4-2.9,6.2-6.2,6.1c-3.2-0.1-6-3-6-6.2s2.9-6.1,6.2-6C145.4,403.1,148.1,405.8,148,409.2z
						 M141.9,412.9c2.1,0,3.8-1.6,3.8-3.6c0-2.1-1.7-3.9-3.8-3.9c-2,0-3.7,1.7-3.7,3.8C138.3,411.4,139.7,412.8,141.9,412.9z"/>
					<path class="st4" d="M95.1,406c1.7,0,3.2,1.4,3.2,3.2c0,1.7-1.3,3.1-3,3.1c-1.8,0.1-3.3-1.3-3.3-3
						C91.9,407.5,93.3,406,95.1,406z"/>
					<path class="st4" d="M142,406c1.7,0,3.2,1.5,3.2,3.2s-1.6,3.1-3.3,3c-1.8-0.1-3.2-1.5-3.1-3.3C138.8,407.4,140.3,406,142,406z"
						/>
				</g>
			</g>
			<g>
				<path class="st4" d="M426.4,397.7h-10.6v-0.1c0-2.1-1.7-3.9-3.9-3.9c-2.1,0-3.9,1.7-3.9,3.9v0.1h-10.6c-0.7,0-1.2,0.6-1.2,1.2
					c0,0.7,0.6,1.2,1.2,1.2h9.3v1.4v0.1h-42.4v-0.1v-1.4h9.3c0.7,0,1.2-0.6,1.2-1.2c0-0.7-0.6-1.2-1.2-1.2H363v-0.1
					c0-2.1-1.7-3.9-3.9-3.9c-2.1,0-3.9,1.7-3.9,3.9v0.1h-10.6c-0.7,0-1.2,0.6-1.2,1.2c0,0.7,0.6,1.2,1.2,1.2h9.3v1.4
					c0,2.9,2.3,5.2,5.2,5.2c1.9,0,3.6-1.1,4.5-2.6h7.8l1.2,3.5c0.9,2.7,3.4,4.5,6.2,4.5h5.5v3c-1.5,0.5-2.6,2-2.6,3.7
					c0,2.1,1.7,3.9,3.9,3.9c2.1,0,3.9-1.7,3.9-3.9c0-1.7-1.1-3.2-2.6-3.7v-3h5.5c2.8,0,5.3-1.8,6.2-4.5l1.2-3.5h7.8
					c0.9,1.6,2.6,2.6,4.5,2.6c2.9,0,5.2-2.3,5.2-5.2v-1.4h9.3c0.7,0,1.2-0.6,1.2-1.2C427.7,398.3,427.1,397.7,426.4,397.7
					L426.4,397.7z M357.8,397.6c0-0.8,0.6-1.4,1.4-1.4s1.4,0.6,1.4,1.4v0.1L357.8,397.6L357.8,397.6z M359.2,404.3
					c-1.5,0-2.7-1.2-2.7-2.7v-1.4h5.4v1.4C361.9,403.1,360.7,404.3,359.2,404.3L359.2,404.3z M385.6,420.1c-0.8,0-1.4-0.6-1.4-1.4
					s0.6-1.4,1.4-1.4s1.4,0.6,1.4,1.4S386.3,420.1,385.6,420.1L385.6,420.1z M396.2,406.8c-0.6,1.7-2.1,2.8-3.8,2.8h-13.5
					c-1.7,0-3.3-1.1-3.8-2.8l-0.9-2.7h22.9L396.2,406.8z M410.5,397.6c0-0.8,0.6-1.4,1.4-1.4s1.4,0.6,1.4,1.4v0.1L410.5,397.6
					L410.5,397.6z M414.7,401.6c0,1.5-1.2,2.7-2.7,2.7s-2.7-1.2-2.7-2.7v-1.4h5.4L414.7,401.6L414.7,401.6z"/>
				<path class="st4" d="M392,425.2c0.5-0.5,0.5-1.3,0-1.7c-0.5-0.5-1.3-0.5-1.7,0c-2.6,2.6-6.8,2.6-9.4,0c-0.5-0.5-1.3-0.5-1.7,0
					c-0.5,0.5-0.5,1.3,0,1.7c1.8,1.8,4.1,2.7,6.5,2.7C387.9,427.9,390.3,427,392,425.2L392,425.2z"/>
				<path class="st4" d="M375.4,427.2c-0.5,0.5-0.5,1.3,0,1.7c2.7,2.7,6.3,4.2,10.2,4.2c3.9,0,7.5-1.5,10.2-4.2
					c0.5-0.5,0.5-1.3,0-1.7c-0.5-0.5-1.3-0.5-1.7,0c-2.3,2.3-5.3,3.5-8.4,3.5c-3.2,0-6.2-1.2-8.4-3.5
					C376.6,426.7,375.9,426.7,375.4,427.2L375.4,427.2z"/>
				<path class="st4" d="M397.8,430.9c-6.7,6.7-17.6,6.7-24.4,0c-0.5-0.5-1.3-0.5-1.7,0c-0.5,0.5-0.5,1.3,0,1.7
					c3.8,3.8,8.9,5.8,13.9,5.8s10.1-1.9,13.9-5.8c0.5-0.5,0.5-1.3,0-1.7C399,430.4,398.2,430.4,397.8,430.9L397.8,430.9z"/>
			</g>
			
				<ellipse transform="matrix(0.9613 -0.2756 0.2756 0.9613 -106.3881 48.3089)" class="st5" cx="118.7" cy="402.7" rx="46.7" ry="46.7"/>
		</g>
		
			<ellipse transform="matrix(0.9613 -0.2756 0.2756 0.9613 -62.6758 28.5656)" class="st6" cx="70.3" cy="237.3" rx="46.7" ry="46.7"/>
		<g class="st3">
			<g>
				
					<ellipse transform="matrix(0.1585 -0.9874 0.9874 0.1585 142.3831 618.7598)" class="st4" cx="434.2" cy="225.8" rx="11.8" ry="11.8"/>
				<path class="st4" d="M455.3,260.3v-1.4v-12c0-5.2-4.3-9.5-9.5-9.5h-23.1c-5.2,0-9.5,4.3-9.5,9.5v13.4
					C413.1,260.3,431.9,273.2,455.3,260.3z"/>
			</g>
			
				<ellipse transform="matrix(0.9613 -0.2756 0.2756 0.9613 -48.6039 128.719)" class="st5" cx="433.7" cy="237.3" rx="46.7" ry="46.7"/>
		</g>
		
			<ellipse transform="matrix(0.9613 -0.2756 0.2756 0.9613 -11.8655 72.9668)" class="st6" cx="253.7" cy="78.7" rx="46.7" ry="46.7"/>
	</g>
	<g id="Layer_2">
		<g>
			
				<ellipse transform="matrix(0.1585 -0.9874 0.9874 0.1585 -152.4604 231.1867)" class="st4" cx="59.4" cy="205" rx="11.8" ry="11.8"/>
			<path class="st4" d="M80.5,239.5v-1.4v-12c0-5.2-4.3-9.5-9.5-9.5H47.9c-5.2,0-9.5,4.3-9.5,9.5v13.4
				C38.4,239.5,57.1,252.4,80.5,239.5z"/>
		</g>
		<g>
			<g id="Layer_1_2_">
				<g>
					<path class="st4" d="M262.9,78.8h-40c-1.1,0-2,0.9-2,2s0.9,2,2,2h40c1.1,0,2-0.9,2-2S264,78.8,262.9,78.8z"/>
					<path class="st4" d="M225.4,73.6c-1.1,0-2,0.9-2,2s0.9,2,2,2h35c1.1,0,2-0.9,2-2s-0.9-2-2-2h-0.5v-18h0.5c0.6,0,1-0.4,1-1
						s-0.4-1-1-1h-35c-0.6,0-1,0.4-1,1s0.4,1,1,1h0.5v18H225.4L225.4,73.6z M255.9,55.5v18h-6v-18H255.9z M245.9,55.5v18h-6v-18
						H245.9z M229.9,55.5h6v18h-6V55.5z"/>
					<path class="st4" d="M222.9,51.7h40l0,0c1.1,0,2-0.9,2-2c0-0.9-0.6-1.6-1.4-1.9l-19.9-8.9c-0.5-0.2-1.1-0.2-1.6,0l-20,9
						c-0.9,0.4-1.3,1.3-1.1,2.2C221.1,51.1,221.9,51.7,222.9,51.7z"/>
				</g>
			</g>
		</g>
		<g>
			
				<ellipse transform="matrix(0.9613 -0.2756 0.2756 0.9613 -90.398 108.9844)" class="st5" cx="342.6" cy="376.2" rx="46.7" ry="46.7"/>
			<g id="DB1b7h_1_">
				<g>
					<path class="st4" d="M115.5,384c1.2-1.1,1.1-2.5,1-3.9c-0.3-2.8,0.9-4.5,3.3-5.8c6.7-3.8,13.9-5.9,21.6-6.7
						c4.7-0.5,9.4-0.5,14,0.2c6,0.8,11.1,3.7,15.9,7c1.9,1.3,3.8,2,6.1,2.2c3.8,0.4,7.4,1.3,10.9,2.8c1.7,0.7,3.2,1.6,4.1,3.3
						c0.3,0.5,0.9,0.8,1.4,1.3c0,1.3,0,2.5,0,3.8c-0.4,0.3-0.8,0.6-0.9,1c-0.1,2.1-1.5,2.2-3,2.1c-1.6-0.1-3.1,0-4.7,0
						c-1,0-1.5-0.4-1.9-1.4c-1.2-3.7-4-5.9-7.5-5.9c-3.4,0-6.3,2.3-7.3,6c-0.3,1.2-1,1.6-2.1,1.6c-0.5,0-0.9,0-1.4,0
						c-3.4,0-3.4,0-4.4-3.3c-1.1-3.6-4.5-5.7-8.9-5.4c-3.7,0.3-6.7,3-7.1,6.7c-0.2,1.7-0.9,2.1-2.3,2c-0.5,0-0.9-0.1-1.4,0
						c-2.3,0.2-4,0-4.8-3s-3.6-4.5-6.7-4.6c-3.2-0.1-5.6,1.5-7.1,4.5c-0.9,1.8-3.5,2.7-5.3,1.7c-0.5-0.3-0.8-0.7-0.8-1.3
						c0-0.6-0.1-1.2-0.7-1.5C115.5,386.3,115.5,385.1,115.5,384z M135.1,375.9L135.1,375.9c2.8,0,5.5,0,8.3,0c1.3,0,1.9-0.4,1.9-1.8
						c-0.1-1.1-0.1-2.2,0-3.3c0.1-1.5-0.5-1.9-2-1.8c-4.9,0.4-9.7,1.2-14.3,3.1c-1.1,0.5-2,1.1-2.8,2c-0.3,0.4-0.8,0.8-0.6,1.4
						c0.2,0.6,0.9,0.4,1.4,0.4C129.7,376,132.4,375.9,135.1,375.9z M154,375.9L154,375.9c1.9,0,3.8-0.1,5.7,0c1.6,0.1,2-0.7,1.9-2.1
						c-0.1-0.9-0.6-1.4-1.3-1.9c-3.8-2.5-8-3-12.4-2.9c-0.9,0-1.1,0.6-1.2,1.4c0,1.3,0,2.5,0,3.8c-0.1,1.3,0.6,1.7,1.8,1.7
						C150.4,375.9,152.2,375.9,154,375.9z"/>
					<path class="st4" d="M152.9,412.9c-4.2,0.1-8.1-0.2-11.9-1.2c-2.1-0.5-2.3-1-1.9-3.1c0.9-4.6,3.9-6.2,7.9-7.6
						c1-0.4,1.2,0.5,1.3,1.1c0.8,2.9,1.8,5.7,3.3,8.4c0.6,1.1,1,1.2,1.7,0c1.4-2.6,2.5-5.3,3.2-8.2c0.3-1.3,0.8-1.6,2-1.1
						c3.8,1.4,6.6,3.5,7.4,7.7c0.3,1.6-0.2,2.5-1.7,2.8c-1.3,0.3-2.6,0.6-3.9,0.8C157.9,412.8,155.2,413,152.9,412.9z"/>
					<path class="st4" d="M152.6,384.9c3.9,0,6.2,2.2,6.3,6.1c0,0.8,0.1,1.6,0.4,2.4c0.2,0.5,0.3,1.1,0.2,1.5
						c-0.9,2.8-2.1,5.4-4.4,7.3c-2.1,1.6-5,0.9-6.6-1.6c-0.9-1.3-1.6-2.7-2.3-4.1c-0.6-1.1-0.8-2.3-0.2-3.5c0.3-0.7,0.3-1.3,0.3-2
						C146.5,387.1,148.7,384.9,152.6,384.9z"/>
					<path class="st4" d="M123,391.6c0.1-3.4,2.7-6,6.1-6c3.3,0.1,6.1,2.9,6.1,6.2c0,3.2-3,6.2-6.2,6.1
						C125.5,397.8,122.9,395.1,123,391.6z M132.8,391.8c0-2.2-1.7-3.9-3.8-3.9c-1.9,0-3.6,1.7-3.7,3.7c-0.1,2.2,1.6,3.8,3.8,3.8
						C131.2,395.5,132.8,394,132.8,391.8z"/>
					<path class="st4" d="M181.9,391.8c0,3.4-2.9,6.2-6.2,6.1c-3.2-0.1-6-3-6-6.2s2.9-6.1,6.2-6C179.3,385.7,182,388.4,181.9,391.8z
						 M175.8,395.5c2.1,0,3.8-1.6,3.8-3.6c0-2.1-1.7-3.9-3.8-3.9c-2,0-3.7,1.7-3.7,3.8C172.2,394,173.6,395.4,175.8,395.5z"/>
					<path class="st4" d="M129,388.6c1.7,0,3.2,1.4,3.2,3.2c0,1.7-1.3,3.1-3,3.1c-1.8,0.1-3.3-1.3-3.3-3
						C125.8,390.1,127.2,388.6,129,388.6z"/>
					<path class="st4" d="M175.9,388.6c1.7,0,3.2,1.5,3.2,3.2s-1.6,3.1-3.3,3c-1.8-0.1-3.2-1.5-3.1-3.3
						C172.7,390,174.2,388.6,175.9,388.6z"/>
				</g>
			</g>
			<g>
				<path class="st4" d="M383.4,377h-10.6v-0.1c0-2.1-1.7-3.9-3.9-3.9c-2.1,0-3.9,1.7-3.9,3.9v0.1h-10.6c-0.7,0-1.2,0.6-1.2,1.2
					c0,0.7,0.6,1.2,1.2,1.2h9.3v1.4v0.1h-42.4v-0.1v-1.4h9.3c0.7,0,1.2-0.6,1.2-1.2c0-0.7-0.6-1.2-1.2-1.2H320v-0.1
					c0-2.1-1.7-3.9-3.9-3.9c-2.1,0-3.9,1.7-3.9,3.9v0.1h-10.6c-0.7,0-1.2,0.6-1.2,1.2c0,0.7,0.6,1.2,1.2,1.2h9.3v1.4
					c0,2.9,2.3,5.2,5.2,5.2c1.9,0,3.6-1.1,4.5-2.6h7.8l1.2,3.5c0.9,2.7,3.4,4.5,6.2,4.5h5.5v3c-1.5,0.5-2.6,2-2.6,3.7
					c0,2.1,1.7,3.9,3.9,3.9c2.1,0,3.9-1.7,3.9-3.9c0-1.7-1.1-3.2-2.6-3.7v-3h5.5c2.8,0,5.3-1.8,6.2-4.5l1.2-3.5h7.8
					c0.9,1.6,2.6,2.6,4.5,2.6c2.9,0,5.2-2.3,5.2-5.2v-1.4h9.3c0.7,0,1.2-0.6,1.2-1.2C384.7,377.6,384.1,377,383.4,377L383.4,377z
					 M314.8,376.9c0-0.8,0.6-1.4,1.4-1.4s1.4,0.6,1.4,1.4v0.1L314.8,376.9L314.8,376.9z M316.2,383.6c-1.5,0-2.7-1.2-2.7-2.7v-1.4
					h5.4v1.4C318.9,382.4,317.7,383.6,316.2,383.6L316.2,383.6z M342.6,399.4c-0.8,0-1.4-0.6-1.4-1.4s0.6-1.4,1.4-1.4
					s1.4,0.6,1.4,1.4S343.3,399.4,342.6,399.4L342.6,399.4z M353.2,386.1c-0.6,1.7-2.1,2.8-3.8,2.8h-13.5c-1.7,0-3.3-1.1-3.8-2.8
					l-0.9-2.7h22.9L353.2,386.1z M367.5,376.9c0-0.8,0.6-1.4,1.4-1.4s1.4,0.6,1.4,1.4v0.1L367.5,376.9L367.5,376.9z M371.7,380.9
					c0,1.5-1.2,2.7-2.7,2.7s-2.7-1.2-2.7-2.7v-1.4h5.4L371.7,380.9L371.7,380.9z"/>
				<path class="st4" d="M349,404.5c0.5-0.5,0.5-1.3,0-1.7c-0.5-0.5-1.3-0.5-1.7,0c-2.6,2.6-6.8,2.6-9.4,0c-0.5-0.5-1.3-0.5-1.7,0
					c-0.5,0.5-0.5,1.3,0,1.7c1.8,1.8,4.1,2.7,6.5,2.7C344.9,407.2,347.3,406.3,349,404.5L349,404.5z"/>
				<path class="st4" d="M332.4,406.5c-0.5,0.5-0.5,1.3,0,1.7c2.7,2.7,6.3,4.2,10.2,4.2c3.9,0,7.5-1.5,10.2-4.2
					c0.5-0.5,0.5-1.3,0-1.7c-0.5-0.5-1.3-0.5-1.7,0c-2.3,2.3-5.3,3.5-8.4,3.5c-3.2,0-6.2-1.2-8.4-3.5
					C333.6,406,332.9,406,332.4,406.5L332.4,406.5z"/>
				<path class="st4" d="M354.8,410.2c-6.7,6.7-17.6,6.7-24.4,0c-0.5-0.5-1.3-0.5-1.7,0c-0.5,0.5-0.5,1.3,0,1.7
					c3.8,3.8,8.9,5.8,13.9,5.8s10.1-1.9,13.9-5.8c0.5-0.5,0.5-1.3,0-1.7C356,409.7,355.2,409.7,354.8,410.2L354.8,410.2z"/>
			</g>
			
				<ellipse transform="matrix(0.9613 -0.2756 0.2756 0.9613 -97.7899 56.6822)" class="st5" cx="152.8" cy="376.3" rx="46.7" ry="46.7"/>
		</g>
		
			<ellipse transform="matrix(0.9613 -0.2756 0.2756 0.9613 -58.1538 24.8566)" class="st5" cx="59.4" cy="219.4" rx="46.7" ry="46.7"/>
		<g>
			<g>
				
					<ellipse transform="matrix(0.1585 -0.9874 0.9874 0.1585 151.0548 592.8769)" class="st4" cx="423.3" cy="207.8" rx="11.8" ry="11.8"/>
				<path class="st4" d="M444.5,242.3v-1.4v-12c0-5.2-4.3-9.5-9.5-9.5h-23.1c-5.2,0-9.5,4.3-9.5,9.5v13.4
					C402.3,242.3,421.1,255.2,444.5,242.3z"/>
			</g>
			
				<ellipse transform="matrix(0.9613 -0.2756 0.2756 0.9613 -44.0705 125.0354)" class="st5" cx="422.9" cy="219.3" rx="46.7" ry="46.7"/>
		</g>
		
			<ellipse transform="matrix(0.9613 -0.2756 0.2756 0.9613 -7.3321 69.2832)" class="st5" cx="242.9" cy="60.7" rx="46.7" ry="46.7"/>
	</g>
	<path class="st7" d="M114,242"/>
	<path class="st7" d="M387.3,251.3"/>
</g>
</svg>
