<?xml version="1.0" encoding="utf-8"?>
<!-- Generator: Adobe Illustrator 21.0.0, SVG Export Plug-In . SVG Version: 6.00 Build 0)  -->
<svg version="1.1" id="Layer_1" xmlns="http://www.w3.org/2000/svg" xmlns:xlink="http://www.w3.org/1999/xlink" x="0px" y="0px"
	 viewBox="0 0 200 200" style="enable-background:new 0 0 200 200;" xml:space="preserve">
<style type="text/css">
	.st0{fill:none;stroke:#343A56;stroke-width:8;stroke-miterlimit:10;}
	.st1{fill:none;stroke:#343A56;stroke-width:8;stroke-miterlimit:10;stroke-dasharray:12;}
</style>
<g>
	<path class="st0" d="M113.7,75.9c4.2-0.6,8.4-0.7,12.4-0.3c-0.1-1-0.2-1.9-0.3-2.9c-4.1-28.3-30.4-48-58.7-43.9s-48,30.4-43.9,58.7
		c3.5,24.1,23.1,42,46.3,44.2C67.1,104.5,86.3,79.8,113.7,75.9z"/>
	<path class="st1" d="M126.2,75.6c2.4,27.2-16.9,51.9-44.3,55.8c-4.2,0.6-8.4,0.7-12.4,0.3c0.1,1,0.2,1.9,0.3,2.9
		c4.1,28.3,30.4,48,58.7,43.9s48-30.4,43.9-58.7C169,95.7,149.4,77.8,126.2,75.6z"/>
	<path class="st0" d="M126.2,75.6c-4.1-0.4-8.2-0.3-12.4,0.3c-27.4,3.9-46.7,28.6-44.3,55.8c4.1,0.4,8.2,0.3,12.4-0.3
		C109.3,127.5,128.6,102.8,126.2,75.6z"/>
</g>
</svg>
